<?xml version="1.0" encoding="UTF-8"?>
<svg id="Layer_1" data-name="Layer 1" xmlns="http://www.w3.org/2000/svg" viewBox="0 0 150 150">
  <defs>
    <style>
      .cls-1 {
        fill: #bc0056;
      }
    </style>
  </defs>
  <path class="cls-1" d="m121.66,59.33c-.23.33-.59.48-.96.66-.12.3.15.57.16.86.02.35.37.46.37.84-.08.15-.21.36-.2.63.02.7,0,1.41,0,2.11,0,.13-.03.24-.13.32.12.31.12.39.02.63.13.09.28,0,.4.05l.63-.63h.37c.08.1.26.15.15.41.54-.12,1.01-.17,1.48,0,.04-.23.2-.35.17-.55-.02-.18,0-.37,0-.53.05-.09.12-.07.2-.08.18.42-.1.81-.09,1.21-.08.03-.15.05-.25.09.14.29.27.56.4.84-.04.06-.09.13-.13.19.21.44.14.91.07,1.36-.02.12-.08.27-.07.4.03.41-.09.78-.21,1.16-.02.05-.03.11-.04.17,0,.06,0,.12,0,.19,0,.5.02,1,0,1.49-.03.51.05,1.01-.06,1.52-.11.47-.02.98-.06,1.47-.04.43.23.82.12,1.25-.07.29-.3.46-.48.65-.08.21.06.38.14.5.13.2.1.36.05.56-.08.32-.18.64-.21.98-.02.29-.2.6-.09.87.11.28.08.55.11.79-.23.38-.36.77-.39,1.17-.12.11-.19.02-.27-.06-.11,0-.2.12-.2.17,0,.42-.13.81-.25,1.2-.03.09,0,.2,0,.29.11.07.15.24.32.16.13.33.32.61.06.96-.06.08,0,.24-.01.37-.02.21.06.43-.11.64-.07.09-.06.31,0,.42.23.45.05.93.12,1.38.03.19-.17.3-.14.51.03.2.17.35.15.57-.02.19-.09.41.1.57.02.02.01.08,0,.12-.06.88.19,1.74.14,2.62-.01.23-.2.39-.15.63.04.2-.05.43.02.62.21.56.05,1.13.12,1.69.04.37-.07.72-.17,1.05-.07.21-.04.39-.09.62.13.11.27.22.38.31v.68c-.08.08-.15.15-.25.25.05.37.06.77.17,1.14.05.16.07.31.07.46,0,.56,0,1.12,0,1.68,0,.41.02.83,0,1.24-.02.41.21.78.13,1.19.23.59.09,1.21.12,1.81,0,.18.03.35.13.5-.08.3-.3.48-.49.68.1.14.31.22.22.53-.07.06-.2.15-.39.3,0,0-.11-.05-.19.02-.07.18.08.22.15.34h.51c.08.08.13.14.18.19.04.2-.17.22-.23.46.03.14-.12.42.09.64-.05.1-.1.2-.15.32h-.51c-.08.08-.13.14-.18.19,0,.36.27.6.36.94-.19.23-.1.55-.11.85-.01.28,0,.57,0,.9-.35-.4-.51-.86-.76-1.24-.33-.12-.44.14-.61.31.23.33.1.71.14,1.06-.09.16-.29.23-.28.45-.31-.13-.34-.49-.6-.67v-.79c-.1,0-.18-.01-.22-.01-.19.19-.36.37-.49.5-.39,0-.7,0-1.01.01v-.48c-.07-.06-.17-.14-.27-.22v-.68c-.27,0-.33.22-.5.34.21.38.35.78.77,1.04v.38c.13.13.3.3.49.49,0,.16-.22.19-.27.34-.51.03-.98.15-1.4.27-.18-.18-.33-.34-.53-.56.04-.32-.34-.38-.61-.58-.28.32-.73-.03-1.01.28-.25-.14-.36-.35-.48-.63-.04-.35-.03-.76.15-1.2-.22-.04-.42-.08-.66-.24.04.6.41,1.06.2,1.66-.07.08-.07.31-.28.4-.23-.08-.47-.17-.7-.25-.24.14-.25.36-.18.58.06.2.12.41.23.58.11.17.15.29.04.48-.17.27.18.51.09.79.18.13.1.36.22.53.17.23.17.6.55.63h1.22c.18.11.26.26.19.46-.04.01-.09.05-.1.04-.28-.23-.55-.1-.84.04-.02.19-.07.4-.23.58h-.36c-.14-.15-.29-.32-.41-.44-.44-.2-.69.24-1.05.2-.1-.2-.21-.37-.4-.49-.07.14-.07.25.03.39.13.18.03.34-.14.47h-.47c-.45.46-1.13.64-1.46,1.29.17.16.46.17.63.39v.3h-.69c-.23-.31-.68-.42-.88-.78-.2-.35-.41-.68-.71-.94h-.29c.04.24-.18.42-.15.67.03.28.17.54.39.63.28.12.36.33.49.58-.29.42-.72.49-1.05.48-.21-.15-.35-.24-.52-.36.18-.18.31-.32.45-.46-.04-.28-.27-.24-.43-.33-.2-.11-.39-.06-.62-.11-.09.11-.19.23-.31.38.07.33.21.66.49.92-.11.24-.32.2-.56.2-.06.08-.13.19-.17.25q-.28,0-.49-.23c.02-.23.24-.23.37-.33-.07-.38-.12-.47-.44-.8h-.23c-.41.63-.82,1.25-1.23,1.87q-.05-.32.18-.75c.01-.13-.12-.15-.17-.25h-.63c-.18.08-.23.37-.49.37-.14-.13,0-.29-.1-.43.11-.08.21-.15.28-.2v-.55c-.04-.06-.11-.05-.16-.07-.17-.06-.29.09-.37.14-.23.17-.4.12-.57-.02-.27.08-.33.32-.24.49.19.4.06.8.12,1.2q.28.28.56.34c-.26.26-.53.53-.83.83-.27-.08-.39-.37-.47-.64-.12-.4-.32-.74-.53-1.09h-.75c-.27.1-.16.34-.26.49-.07-.11-.21-.11-.3-.17-.03-.14-.05-.28.1-.38-.03-.06-.08-.06-.14-.07-.7-.17-.73-.12-1.69-.01-.59.07-1.19.28-1.7.13-.14.1-.23.16-.35.25.18.18.33.34.48.51h.32c.15.13.28.23.36.3.03.13-.03.17-.06.22-.11.22-.43,0-.54.37,0,.03,0,.17-.02.32-.23.14-.23.47-.5.59v.56h-.74c-.16.14-.35.2-.5.33-.29.24-.75.18-1.04-.09-.18-.17-.35-.35-.5-.5-.19-.84.18-1.53.48-2.24-.3-.2-.58-.4-.87-.6-.28.08-.35.35-.5.58-.11.4.28.79.15,1.25-.14.12-.28.24-.4.34,0,.2.2.27.15.45.35.17.65.34.95.58v.48l-.22.23c.13.25.27.48.49.62-.02.14.03.25-.08.32-.29.06-.08-.37-.34-.36h-.63c-.22.12-.31.36-.45.59.08.16.16.32.24.48-.14.08-.23.01-.27-.07-.17-.38-.49-.71-.45-1.2.1-.08.21-.18.36-.31.25-.11.53.28.85.1.07-.12,0-.21-.08-.25-.65-.31-.82-.9-.91-1.54-.09-.07-.19-.03-.29-.03-.11.21-.24.42-.14.75.03.03.12.11.21.2v.34c-.12.1-.27.21-.36.29-.01.23-.02.37-.02.52-.22,0-.43.1-.61-.22,0-.36-.02-.81,0-1.26.01-.21.09-.41.18-.61.1-.23.12-.42-.09-.6q-.55-.04-.86.09c-.25-.12-.41-.36-.45-.59-.04-.24-.18-.35-.31-.5-.32-.05-.63-.05-.91.13q-.14.64.03,1.22c.11.21.4.04.53.27.18-.13.38-.22.63-.11-.16.31-.62.24-.75.61.17.22.4.33.7.35.14.15.29.27.33.53.07.45.51.61.86.82.09.06.15.14.24.19-.06.06-.12.11-.2.19-.26,0-.55,0-.83,0-.32,0-.6-.05-.9-.23-.26-.17-.62-.2-.94-.26-.36-.07-.72-.13-1.06-.28q-.02-.38.21-.78c0-.4.09-.83-.29-1.16-.58-.11-.84.36-1.2.68.11.37.45.38.75.47v.19h-.65c-.26.24-.32.56-.47.81.04.04.06.06.07.07.09-.14.31-.07.37-.25.14.13.28.23.18.45-.06.13-.21.02-.33.09-.05.03,0,.11-.03.16-.08.17.22.21.1.41-.8.08-1.58,0-2.29-.5,0-.39-.26-.58-.56-.74-.13.15-.05.3-.07.43.04.22.33.15.38.33-.03.06-.04.12-.06.12-.29.02-.56.22-.87.14-.04,0-.1-.02-.12,0-.41.38-.91.2-1.38.25-.12.12-.23.23-.36.36h-.79c-.08-.1-.2-.24-.31-.38-.13.13-.25.25-.35.36-.62.14-1.2-.16-1.81-.12-.16.01-.43-.03-.55-.13-.22-.17-.52-.12-.69-.35.29.05.6-.09.89.08.24.14.56-.07.79.15,0,0,.08-.08.09-.09-.1-.1-.2-.21-.38-.38-.13,0-.33-.15-.53-.31v-.26c.35-.35.91-.46,1.13-.98-.15-.13-.3-.05-.44-.08-.24.2-.41.52-.73.6-.43.1-.77.5-1.23.4-.21.11-.19.37-.38.5-.31.07-.51-.2-.78-.29-.25-.08-.24-.1-.51.11v.87c-.09.08-.15.17-.29.2-.58.14-1.16.27-1.71-.1-.08-.05-.16-.02-.23-.04-.21-.04-.34.17-.57.14-.18-.03-.37,0-.58.07-.42.15-.85.04-1.26-.19-.1-.21,0-.47-.16-.68-.14-.18-.28-.38-.25-.65.05-.05.11-.1.21-.19h.5c.08-.22.12-.43.22-.61.09-.18.11-.41.04-.53-.19-.3-.05-.6-.12-.91-.05-.06-.12-.13-.17-.18-.2-.06-.22.24-.42.08,0,.34-.05.61-.26.84v.97c-.02.24-.37.12-.39.39-.02.19-.3.17-.39.28-.51.18-.88-.18-1.32-.26.31-.34.07-.69-.08-.92-.18-.29-.29-.58-.33-.93-.22.16-.3.31-.38.64-.39.05-.8-.08-1.18.18v.77c.53.5.06,1.05-.04,1.63-.13.11-.38.11-.54.3-.3-.11-.56.13-.86.11-.28-.02-.52.17-.81.14-.29-.03-.61-.1-.91.08-.19-.11-.49-.06-.59-.3-.29-.14-.48.1-.72.09-.26,0-.47.18-.75.13-.24-.04-.49,0-.74-.01-.23-.01-.46.04-.7-.11-.19-.12-.44.1-.7,0-.21-.08-.5.09-.68-.2.14-.12.23-.27.44-.34.18-.05.2-.24.16-.42-.21-.11-.41-.24-.68-.16-.13.14-.12.39-.29.54v.49c-.09.08-.14.22-.35.19-.07-.3,0-.62-.03-.93-.14-.05-.07-.23-.17-.3-.17-.02-.31.11-.3.23.04.24-.16.41-.14.63.01.13-.12.16-.17.24-.73.02-1.44.23-2.17.14-.2-.02-.35.09-.5.15-.24.09-.46.1-.69.1-.21-.23-.48-.25-.76-.25-.64,0-1.27,0-1.91,0-.44,0-.86.17-1.31.14-.3-.02-.56-.19-.87-.15-.15.02-.25.11-.38.14-.13-.03-.2-.12-.25-.23.01-.04.01-.08.03-.11.11-.21.33-.2.49-.15.49.17.96.17,1.45,0,.1-.04.26-.07.35.03.14.15.31.04.44.09.13-.08.04-.26.19-.31-.25-.22.05-.61-.25-.79.08-.15.14-.27.2-.4h.3c.09.1.21.24.33.36h.28v-.83c.26-.06.48-.09.64.17.06.28-.34.55,0,.86-.11.08-.22.17-.37.28-.15-.03-.33.14-.55.17-.19.02-.26.23-.17.48.47,0,.96-.03,1.45,0,.49.03.94-.25,1.41-.12.11-.11.19-.2.3-.3v-.91s-.1-.1-.16-.16h-.5c-.27.3-.6.44-1,.35-.08-.22-.27-.41-.11-.71.03-.02.07-.14.24-.15.14.16.34.33.6.35.1-.04.2-.08.3-.12.1-.35.39-.63.41-1.01-.27-.12-.45-.36-.79-.45-.24.28-.59.45-.95.38-.3.13-.52.27-.65.5-.32-.04-.61,0-.9.19,0,.11-.2.21-.18.42.02.13-.11.24-.22.25-.33.02-.53.26-.74.44-.28.23-.58.39-.88.56-.21.11-.41.23-.66.04-.12-.09-.3-.06-.45.02-.27.15-.54.28-.85.44-.37,0-.78,0-1.19,0-.28,0-.54,0-.82-.1-.17-.06-.39-.13-.64-.04-.27.1-.56-.19-.87-.11-.16-.18-.37-.14-.56-.12-.21.03-.36-.13-.57-.15-.47-.04-.9-.23-1.12-.71-.32.23-.16.72-.47.97-.49.11-.77-.29-1.14-.49-.36-.2-.73-.39-.98-.76-.4.11-.32.59-.54.73-.15-.1-.28-.19-.39-.27.16-.46.46-.74.86-.93v-.59s-.07-.03-.13-.03c-.16,0-.33.02-.45-.2v-.44c-.19-.31-.35-.57-.52-.83.14-.16.11-.41.43-.54.07-.02.18.25.38.15.16.14-.03.37.13.51.21-.02.29-.22.42-.32v-.5c-.28-.1-.46-.36-.78-.44-.09.08-.19.17-.28.25-.24.04-.37-.13-.56-.2.07-.33.5-.29.58-.56.08-.27.35-.37.43-.58-.03-.16-.12-.13-.2-.15-.4-.09-.67-.31-.67-.75,0-.17-.09-.26-.22-.39-.06.27,0,.58-.24.77-.32.03-.24-.34-.49-.48-.16.03-.37-.08-.61.09-.14.1-.4.07-.55-.2v-.45c-.14-.29-.45-.14-.59-.33-.12.06-.24.11-.37.16,0,.04-.04.08-.02.11.08.14.17.27.12.41.2.21.5.26.62.54.01.16-.11.22-.24.28q-.23-.2-.29-.5c-.3-.1-.5-.36-.74-.59-.15,0-.17.22-.31.21-.15,0-.26.07-.41.14-.46-.39-1.11-.59-1.36-1.25-.14.04-.21.12-.23.24h-.48c-.02.66.29,1.3.22,1.98-.37.03-.33-.31-.49-.46.06-.41-.23-.78-.11-1.17-.16-.29-.36-.28-.64-.08.07-.48.12-.9.63-1.07-.19-.06-.32-.21-.51-.22-.12-.23-.23-.44-.35-.69v-.71c-.08-.07-.18-.14-.25-.2,0-.12,0-.21,0-.29.1-.09.27-.09.34-.22.03-.03.01-.05-.03-.09-.07-.07-.14-.15-.26-.13-.14.02-.27,0-.37-.11-.06.06-.12.12-.18.17-.03.21.19.25.25.42-.03.19-.21.27-.33.4h-.36c-.08-.1-.18-.22-.3-.38v-.28c.05-.16.29-.21.26-.42.15-.11.33.03.47-.09-.08-.21-.27-.2-.44-.22-.04-.17-.19-.3-.17-.49.02-.16,0-.33,0-.5-.09-.17-.18-.34-.28-.54.29-.1.58-.14.66-.51.04-.2.35-.18.49-.39-.52-.31-.91-.77-1.35-1.21v-.74c.08-.15.16-.32.27-.52-.33-.29-.01-.74-.27-1.04.23-.74.14-1.41-.26-2.11,0-.23-.03-.52,0-.81.04-.3-.15-.53-.15-.82,0-.27.14-.58-.11-.82.04-.36-.03-.72.07-1.09.12-.42.11-.89,0-1.32-.02-.07-.06-.14-.06-.22,0-.88-.19-1.74-.13-2.62.04-.58,0-1.16.01-1.74,0-.3-.03-.58.1-.89.11-.27,0-.59-.22-.82-.05-.13.12-.19.11-.26-.07-.53.16-1.04.14-1.57-.02-.54.07-1.09-.03-1.61-.08-.47-.01-.94-.12-1.38-.16-.65-.06-1.3-.11-1.94-.01-.16.05-.33-.11-.46-.04-.03,0-.16-.01-.24-.08-.28.2-.5.12-.75-.08-.25-.14-.49-.11-.74.19-.23.3-.48.22-.78-.25.02-.21-.25-.36-.36.05-.63.2-1.27.14-1.92.21-.27.11-.59.12-.88,0-.23.06-.48-.11-.7-.06-.08-.08-.28.05-.4.16-.15-.05-.42.17-.55-.08-.09-.08-.22-.13-.31-.12-.21-.11-.42-.11-.64,0-.35-.01-.71,0-1.06.01-.32.18-.61.12-.94-.04-.23.06-.48-.12-.7-.05-.06-.05-.23,0-.3.21-.3.1-.63.11-.95,0-.3-.03-.59-.09-.89-.08-.38-.3-.81-.13-1.18.12-.25.15-.52.08-.7-.17-.39-.16-.79-.08-1.13.13-.57.06-1.13.11-1.68.05-.05.1-.1.15-.15.1-.07.08.13.15.09.18.02.23-.12.32-.2-.01-.21-.21-.28-.32-.42-.1.11-.08.31-.27.36-.16-.29.31-.6-.01-.89.04-.1.08-.2.13-.32h.51c.15-.17.03-.33.11-.52-.3.06-.48-.17-.78-.13.05-.48-.09-.97.14-1.43.3-.21.72-.18.97-.48.04-.2-.01-.36-.24-.45-.26.05-.53.23-.85.09v-1.11c.16-.15.34-.32.48-.45.02-.5-.47-.66-.49-1.06v-2.4c.25,0,.47-.12.6-.37q-.2-.34-.58-.15v-.62h.81c-.04-.41-.7-.31-.57-.86.06-.16.37-.12.47-.35-.05-.35-.52-.27-.62-.73,0,.02,0-.1,0-.28-.12-.09-.26-.21-.42-.34.15-.41.15-.83.26-1.23.08-.3.1-.64-.03-.96-.1-.24-.06-.49,0-.75.12-.47.12-.98,0-1.45-.06-.21-.05-.4-.06-.59,0-.2,0-.4-.15-.55.13-.14.11-.33.27-.42-.02-.58.07-1.17-.15-1.69.21-.4.65-.13.87-.45.01-.06-.1-.07-.13-.16h-.58c.05-.37-.06-.7.09-1.08.1-.27.13-.64-.05-.95-.08-.14-.04-.28-.04-.42,0-1.12,0-2.24,0-3.36.06-.06.12-.12.18-.18.14,0,.28-.01.44-.02,0-.12.04-.24,0-.32-.15-.26-.14-.55-.11-.82.02-.22-.06-.43-.17-.55-.29-.31-.36-.66-.33-1.05,0-.1,0-.2,0-.3.15-.15.31-.28.34-.5.03-.26,0-.55.21-.81.49.01,1.01-.06,1.53.15.01-.15.02-.25.03-.35.15-.07.35-.03.48-.18v.32c.43.24.48.3.59.79h-.75s-.08-.15-.18-.33c0,.78.69,1.81,1.48,2.34.27-.5.27-.71.02-1-.25.05-.13-.27-.3-.31.08-.2-.15-.32-.13-.5.08-.11.25-.04.31-.19.13.22.38.05.54.16.24.17.14.36.05.56.1.02.2.03.26.13.1-.05.2-.1.33-.16-.11-.17.2-.22.13-.42-.12-.24-.24-.48-.36-.71-.26-.08-.5-.14-.74-.21-.3-.15-.35-.53-.63-.75-.21.11-.34.42-.63.27.02-.06-.05-.17.04-.22.28-.15.52-.34.58-.63.22-.05.28.17.44.13.24.53.45,1.08,1.19,1.24-.12-.34-.18-.63-.34-.89-.15-.14-.34-.19-.52-.27-.23-.34-.16-.72-.16-1.08.27-.08.3.23.55.23.17-.06.4-.14.65-.22v.8c.36.13.59.66,1.1.28.09-.33.06-.65-.18-.88-.2-.19-.46-.35-.79-.18.14-.23.29-.45.43-.67h.3c.15.66.68.93,1.25,1.11.08.38.02.68-.21.95-.02.52-.04,1.05.43,1.43h.38c.2.25.5.41.6.74h.25s.04-.02.04-.03c0-.47,0-.94,0-1.4-.06-.07-.11-.13-.18-.22-.27.23-.58.38-.9.54-.17-.04-.23-.22-.36-.31v-.4c.09-.08.2-.17.33-.29.29-.02.66-.14.89-.31.02-.47,0-.94-.23-1.38-.06-.12-.03-.28.11-.38-.11-.46-.46-.9-.11-1.4.3.08.43.27.5.57-.08.16-.17.33-.27.52.06.11.12.25.19.38.36-.08.67-.22.88-.52.18.1.31.2.52.14.02.22.11.44-.13.6.14.17.15.35.19.52h.41c.27-.19.13-.64.5-.74h.72c.22-.1.15-.37.34-.46-.17-.15-.3-.28-.39-.36v-.73c.13-.12.22-.32.44-.33.08-.17.15-.33.22-.48.29-.03.5.11.68.3.21.21.4.45.71.55.04-.04.1-.1.15-.15v-.57h-.82c-.07-.63-.09-1.26-.64-1.67v-.8c.32.05.6-.23.94-.13.3.26.15.73.51.99v-.58c.45-.31.66-.83,1.07-1.17.73-.05,1.44-.07,1.95.6h.67c.2-.5.72-.47,1.07-.7.39-.26.82-.02,1.27-.03.05.06.11.14.18.22h.55c.1.21.32.25.5.38.45.11.81-.22,1.18-.32.43.15.77-.11,1.21-.09,0-.02.03.05.07.14-.13.2-.04.48-.07.77h.82c.05-.12.21-.07.29-.16.04-.18-.09-.3-.22-.31-.2-.01-.11-.18-.2-.25-.11-.09-.21-.2-.31-.31.06-.2.31-.15.39-.3.54-.12,1.04.06,1.56.11.53.05,1.03-.13,1.55-.14.09.12.27.16.2.32.06.07.07.03.12.01.34-.18.71-.26,1.1-.34.58-.12,1.16-.1,1.74-.09.21,0,.34-.2.57-.14.19.04.41,0,.61,0,.21-.23.48-.24.77-.26.29-.02.61.13.87-.13.42.26.88.08,1.33.14.06-.08.12-.16.19-.24h.57c.09.09.19.19.29.29-.15.07-.09.27-.18.32.21.22.44.44.72.73-.02,0,.08.04.2-.04.06-.43-.43-.62-.41-1.12-.04.06.05.08.08.05.44-.51,1.03-.35,1.58-.37.18.17.45.19.62.11.36-.18.71-.06,1.06-.08-.45.38-.99.13-1.52.24-.16.23-.55.26-.66.58,0,.14.12.17.18.26h.74s.04-.02.04-.03c.02-.3.31-.31.47-.45.16.16.32.32.49.49.52.03.73-.5,1.12-.63-.13-.13-.25-.25-.43-.44.51-.06.76-.39,1.13-.58.34.2.72.15,1.1.15.27,0,1.21.2,1.58.37.1.05.15.12.24.18v.41c-.07.04-.18.11-.24.14v.34c.11.13.27.03.42.07.11-.13.23-.27.32-.38h.62v.31c.15.27.56.12.67.49.28-.2.61-.23.83-.52-.08-.19-.23-.37-.08-.65.35-.11.61.37,1.01.25.38-.11.73.23,1.12.09.02-.26.23-.49.15-.77.26-.3.59-.35.94-.31.24.18.16.52.36.73h.52c.05-.08.11-.18.15-.24h.66c.51.27,1,.53,1.37.98h.42c.12-.21-.09-.5.16-.67-.04-.25.37-.3.2-.66-.03-.02-.13-.09-.23-.16.07-.08.11-.13.17-.19.41.2.91-.07,1.34.26v.36c.05.1.09.1.11.04.09-.46.5-.39.79-.44.38-.06.78-.01,1.17-.01.31,0,.63.06.92-.02.29-.07.55.02.83.03.33.01.61-.19.94-.14.17-.23.42-.07.63-.14.19-.2.43-.23.7-.24.42-.01.84.08,1.25-.11.09-.04.22.01.34.05.36.12.74.13,1.1-.06.13.09.27.18.43.12.97-.36,1.98-.21,2.96-.25.09-.09.16-.16.22-.22h2.53c-.39.07-.75.21-1.09.42.16.13.31.27.23.57.34-.06.63.06.96-.12.23-.13.54,0,.8.13.38-.35.86-.51,1.08-.8.45-.27.81-.22,1.17-.23.22.15.42.32.32.69.31-.13.46-.27.54-.52.33-.22.7-.25,1.06,0,.1.07.18.08.28.08.14,0,.29.02.43,0,.63-.09,1.23.19,1.86.12.12-.01.17.12.26.12.31,0,.64.05.93-.22-.14-.18-.37-.3-.41-.52.05-.19.18-.1.27-.13.35.15.42.61.83.75.38,0,.81,0,1.25,0,.13,0,.28.05.4-.08.03-.04.12-.05.16-.04.65.24,1.32.09,1.99.11.34.01.58.1.76.41.13.23.38.34.64.49-.08.33.4.64-.04.96.26.33.31.7.48,1.12.25.22.63.11,1.02.14v-.59c-.1-.1-.22-.22-.34-.34v-.43c.36.01.6-.24.99-.38h.62c.27-.09.2-.47.5-.51.16.04.08.26.23.31,0,.42.05.85-.22,1.36,0,0-.22-.09-.27.11v.51c-.14.22-.45.18-.5.45,0,.12.12.15.19.26h.55v1.19c.32.11.59.26.78.52.33.07.63-.02.94-.1.3-.07.65.09.96-.12.04.05.09.11.15.18q-.25.85-.82,1.1c-.04.55-.35,1.02-.53,1.53-.13.12-.31-.02-.47.09v.28c.33.1.49.41.73.6-.09.35-.33.65-.23,1.02.11.05.21.1.31.15.19-.15.22-.4.34-.59.17-.04.31,0,.42.16.12.17.3.05.46.08.17-.48-.11-.82-.31-1.19.06-.06.12-.12.16-.16.27-.08.55.11.78-.16.17.06.34.22.55.13.2.22.38.44.49.55.67.22,1.25.23,1.77.45.18.2.36.39.56.61v.95c-.06.05-.12.11-.18.17-.32-.19-.65-.38-1.02-.6-.02.05-.05.12-.09.19-.02-.01-.04-.03-.06-.04v.54c.27.25.35.69.78.81h.66q.02.37-.09.64c.11.29.46.3.62.54.02.18-.16.22-.26.49-.04.15.06.4.26.63,0,.67,0,1.35,0,2.03,0,.19.09.41-.11.58-.05.04.09.53.21.84.02.05.03.11.03.15-.04.28-.31.45-.23.77.17.16.36.34.58.55.35,0,.71-.07,1.05-.34.21-.17.53-.33.8.01.03.19.07.39-.16.56h-.47c-.46.33-.22.96-.66,1.26-.29.02-.55-.22-.87-.1-.14.28-.28.57-.41.85-.03.22.15.33.18.5h.37c.06.04.06.1.06.16,0,.08,0,.15-.07.22-.35.43-.44.97-.62,1.48-.07.2-.11.42-.01.58.09.14.07.27.08.4,0,.16.16.16.18.29.33-.08.59-.24.93-.11,0-.35-.03-.63.17-.88.83-.23.82-.4,1.38-.14.05-.07.11-.15.18-.24.07-.21-.11-.31-.24-.45v-.71c-.06-.15-.24-.19-.26-.38.37-.25.74-.54.93-.96.18,0,.23.12.33.24-.29.35-.81.57-.77,1.16.2.32.5.53.87.64-.03.13.07.28-.1.34.07.27.22.45.43.61.17-.07.35-.11.48-.25.13.19-.02.25-.12.37-.18.04-.46-.1-.62.19-.1.03-.05.19-.19.25v1c.19.15.29.36.38.6-.12.15-.3.04-.44.08-.24.36-.2.89-.64,1.11-.13.02-.2-.07-.21-.12-.11-.51-.5-.91-.59-1.45-.16-.16-.33-.34-.51-.51-.4.11-.59.57-1.02.62-.24.63-.24.43-.03,1.06.24.09.49.2.74.29.27.09.22.54.59.46v.69c-.09.17-.18.36-.29.58-.07.04-.17.01-.27,0-.22-.43-.26-.97-.82-1.25-.06-.01-.1.1-.2.18v1.04c.08.08.19.19.29.29.16,0,.33,0,.49,0,.14.1.21.34.54.19.35-.48.99-.69,1.6-.94-.17-.28-.08-.56-.12-.84.35.07.64.21.78.43.26.13.35-.12.52-.08.08-.16.16-.33.29-.58-.01.32.19.51.14.76-.04.22-.32.69-.54.92h-.5c-.08.08-.14.14-.2.2.03.19.04.37.88,1.14-.14.46.16.89.11,1.36-.02.15.06.32-.09.46-.08.07-.04.19-.02.29.15.58.15.64-.05,1.15h-.46c-.06-.01-.09-.26-.28-.23-.03.03-.08.05-.08.08,0,.18,0,.34.11.52.1.15.2.35.1.62-.3.16-.35.65-.76.82-.13-.25-.1-.45.05-.64-.15-.36-.25-.73-.48-1.08.21-.23.21-.58.38-.86-.19-.13-.38-.05-.55-.08-.17.14-.41.16-.51.38-.16,0-.3,0-.47,0,.16-.25.42-.4.55-.67-.16-.08-.29-.15-.42-.22-.23.26-.58.02-.82.23-.05-.06-.1-.11-.16-.17.12-.12.24-.24.36-.36,0-.15.06-.31-.07-.46-.21.03-.28.22-.36.28-.25.45-.17.88-.19,1.28.33.49.71-.07,1.11.07Zm-80.7,24.25c0,.09.04.13.12.12-.08.25.24.31.25.55-.21.21-.43.44-.64.65.16.41.57.48.77.74-.08.26-.23.31-.3.31-.22.13-.36.22-.48.29.12.24.27.44.03.63.09.27-.19.37-.28.58.28.26.4.58.53.91.02.05.06.06.09.03.04-.04.09-.09.13-.13.08-.19-.04-.41.08-.59.06,0,.13-.03.18.06v.76c-.08.11-.21.16-.24.3.13.42.62.69.5,1.13.18.36.58.37.71.69-.18.12-.4-.03-.6.09,0,.07.03.18,0,.23-.2.25-.15.48,0,.71.2.3.19.66.09.93-.08.23-.06.43-.08.58.12.35.41.17.54.24.24.21.23.47.29.68.07.25.05.54,0,.8-.05.3.14.54.13.82,0,.33,0,.66,0,.98-.11.12-.21.22-.28.3h-.63c.23-.34.17-.69.17-1.02,0-.35-.43-.52-.39-.83-.17-.17-.31-.31-.44-.45-.14.22-.5-.08-.64.37,0,.03,0,.17.04.33.1.31.26.6.4.89.06.14.2.25.17.43-.05.33.09.62.17.9.13.18.41.14.39.33-.04.11-.08.21-.09.25-.12.05-.11-.09-.27.04-.13.29-.36.63-.45.98.02.21.21.24.25.38-.03.27.15.55-.12.95-.26.21-.68.49-.98.89-.06.51.09,1.04-.12,1.59.29.11.61.06.84.26.02.23.21.32.32.43h.37c.16-.09.15-.26.25-.35.2.32.27.64.06.99-.13.22-.26.42-.56.37-.1.14-.3.21-.32.42.13.11.21.25.36.33.16.08.32.12.45.14.15.18.15.4.31.53-.14.09-.12.24-.12.38,0,.33,0,.66,0,.99-.32.35,0,.61.15.96-.08.56-.17,1.19-.27,1.83.46,0,.89,0,1.32,0,.24,0,.45.12.66.21.2.08.19.34.29.49.1.14-.02.34.19.44.47-.23.15-.88.61-1.15.34.06.71-.09,1.08-.09.38,0,.73-.18,1.1-.14.25.22.25.45.07.69.14.11.12.34.31.41.11-.15.39-.11.43-.42-.12-.12-.26-.26-.38-.38,0-.11.01-.19.02-.31.21,0,.45-.07.61.01.38.2.74.13,1.07-.02.37-.16.67-.14.92.09.44-.15.87-.04,1.38-.1.08.11.18.26.27.39.43.02.63-.28.83-.47h2.06c-.18.13-.28.2-.38.27.13.11.29.1.37.06.33-.18.69-.22,1.04-.32.29-.09.6-.33.94-.05.06.05.23.05.3,0,.31-.25.59-.09.87.01.08-.06.11-.15.21-.13.35.06.12.51.42.61.3-.32.72-.21,1.12-.24.12-.2.34-.25.52-.37.49.02,1-.07,1.5.19.19.2.44.39.57.69.27-.13.53-.22.67-.52v-.36c.27.02.53-.06.72.14.33-.14.58-.46.94-.15.07.06.24,0,.36.01.44.05.86-.21,1.31-.13.19.03.39-.06.57-.09.23-.03.44-.16.68-.16,1.13,0,2.26,0,3.42,0-.05.28.2.33.31.5.2-.26.34-.55.53-.69.51-.21.89.06,1.31.07,1.24.03,2.47-.27,3.66-.12.64-.38.7-.37,1.37.13.13-.13.27-.28.42-.42.2.08.41-.06.59.13.05.05.22.06.29.01.34-.2.71-.1,1.06-.11.41-.01.83.03,1.21-.22.05-.03.11-.03.17-.03.83,0,1.65-.21,2.48-.13.27.02.54-.01.8,0,.31.03.57-.1.81-.25,1.23,0,2.44,0,3.65,0,.15,0,.3.03.47-.06.43-.22.44-.18.99-.19.54-.02,1.08.1,1.62-.1.24-.09.53-.05.8,0,.28.04.48-.15.75-.15.25,0,.44.18.79.12.11-.13.26-.31.43-.51.61.15,1.21.26,1.82.03.08.11.19.14.32.12.37-.05.68.13,1.01.25.1.03.16.21.35.07-.12-.18.06-.31.13-.46.13-.29.41-.41.69-.34.28.07.58.07.83.27.11-.21.2-.38.43-.46.14-.05.27-.05.4-.06.16-.01.34.04.49-.01.15-.05.23.11.41.05.72-.2,1.46-.38,2.23-.3.09.01.21.05.29-.03.28-.27.63-.22.96-.21.53.02.98-.13,1.3-.6v-1.09l.23-.23c.03-.37.02-.74.1-1.13.07-.3.12-.67-.08-1.01-.11-.18.06-.46.09-.69.07-.5.03-1,.13-1.5.09-.43.02-.87.12-1.32.09-.4.02-.83.13-1.25.08-.31,0-.66.02-.99.02-.32-.05-.62.09-.96.12-.28.03-.65.03-.98,0-.52,0-1.04,0-1.55,0-.6,0-1.2,0-1.8-.01-.61.08-1.22-.12-1.81.09-.78-.19-1.53-.13-2.31.02-.19,0-.37,0-.56.01-.24-.08-.49.12-.69-.09-.31.22-.61.11-.87-.2-.44.03-.93-.23-1.34,0-.66,0-1.33,0-1.99,0-.09.07-.16.07-.21.02-.28.25-.52.16-.79-.14-.4-.15-.81-.23-1.21-.03-.17.08-.38-.11-.51,0-.39-.11-.8.04-1.16.17-.41.21-.8.19-1.27-.07-.05-.16-.12-.26-.19.08-.24-.03-.41-.12-.58.06-.08.1-.14.15-.22-.22-.24-.19-.56-.12-.81.05-.16.13-.26-.01-.4.18-.12.11-.3.11-.45,0-.68,0-1.37,0-2.05,0-.12.04-.29-.03-.36-.18-.21-.14-.47-.08-.64.13-.34.08-.68.11-1.01,0-.04.02-.07.06-.2-.01-.14.24,0,.31-.14,0-.06-.02-.12.05-.17.07-.05.1-.12.06-.23-.17-.11-.39.04-.55-.06-.15-.38-.27-.78-.15-1.12.1-.27.09-.51.1-.77.01-.62,0-1.24,0-1.87,0-.1.04-.23,0-.31-.15-.26-.14-.56-.22-.84-.09-.3.04-.64-.13-.94-.04-.08,0-.22.04-.35.11-.35.23-.71.21-1.1-.03-.5,0-1-.11-1.51-.09-.41.01-.87-.03-1.3-.04-.45.15-.87.13-1.32.29-.39,0-.73-.09-1.09.09-.05.09-.15.1-.26.05-1.43-.11-2.87.11-4.3.04-.28.12-.54.19-.8.03-.09.07-.18.07-.28.04-1.04-.1-2.09.12-3.12v-5.79c-.22-.09-.24-.39-.48-.46-.05-.1.07-.25-.11-.33-.21.02-.24.22-.32.37-.29-.04-.48.23-.75.27-.11-.11-.21-.21-.31-.32.04-.07.14-.1.11-.26-.09-.06-.22-.16-.4-.28-.04,0-.18-.06-.29.02-.09.09-.19.14-.15.28.08.08.16.18.28.31h-.46c-.18-.15-.37-.3-.33-.56-.19-.2-.37-.37-.53-.53h-.81v.43c.3.08.44.33.68.56-.28.21-.45.45-.58.7-.44.08-.85-.05-1.26-.08-.46-.03-.89-.11-1.3-.32-.2-.1-.35-.1-.55,0-.17.08-.28.22-.41.29-.36,0-.71.04-.98-.24-.03-.03-.12,0-.18,0,.01-.06-.02-.1-.07-.11,0,0-.04.03-.04.04.01.06.05.08.11.07.03.19-.07.3-.23.37-.06,0-.15.03-.18,0-.29-.28-.51-.04-.72.1-.17.11-.29.28-.44.43-.18-.1-.33-.18-.48-.26-.05.05-.11.11-.17.17,0,.48.38.82.46,1.27-.11.04-.06.18-.13.25-.06.07-.12.18-.28.15-.22-.48-.51-.94-.95-1.32.1-.29-.05-.59.13-.89.09-.16.11-.49-.17-.63-.26.21-.55.3-.89.21-.12-.13-.24-.3-.47-.22-.09.11-.25.18-.31.35,0,.02,0,.04,0,.14.15.12.33.28.52.44.12.23-.17.3-.16.47.02.22-.11.3-.33.34-.28.06-.55.19-.78.42v1.05c-.55-.04-1,.4-1.53.24-.08-.06-.14-.12-.2-.16v-.63c-.08-.05-.11-.16-.2-.15-.17.22.08.34.08.51-.13.2-.33.32-.5.42.2.2.37.37.5.5-.01.23.04.38-.04.52h-.52c-.05-.05-.1-.1-.16-.16-.01-.21-.07-.44.09-.65-.21-.29-.59-.36-.77-.68-.37.05-.7-.05-1.01-.23-.07.07-.15.15-.23.23h-.39c-.08-.09-.16-.16-.23-.23-.21.14-.32.34-.46.65v.68c-.08.07-.14.12-.18.16-.19-.01-.24-.18-.36-.25h-.98c-.1-.1-.21-.21-.31-.31v-.46c.13-.29.39-.35.63-.4-.02-.09-.02-.12-.03-.16-.2-.13-.41.08-.58.02-.23-.09-.42-.03-.7-.03.18.24.24.45.19.67-.06.06-.12.12-.19.19-.46-.11-.89.21-1.36.1-.11-.15-.36-.22-.28-.56.08-.08.27-.19.32-.34.13-.38.43-.4.73-.47.31-.26.53-.62.9-.79l-.19-.19c-.43.24-.97.18-1.4.44.01.19-.21.31-.14.49-.24.44-.74.5-1.02.78-.31-.12-.61-.08-.86-.29-.23-.19-.31-.51-.58-.71-.37.26-.34.91-.93.92-.04-.05-.1-.12-.11-.14-.28-.51.3-.83.18-1.3-.08-.08-.16-.17-.24-.25v-.5c.12-.12.24-.24.36-.36v-.39c-.23-.09-.21-.4-.34-.48-.45-.17-.76.13-1.17.06.15.36.27.65.39.94-.16.17-.1.36-.09.47.17.31.5.13.6.44,0,.1.04.24-.03.38-.34.08-.55-.14-.75-.35-.08.02-.1.14-.2.12-.12,0-.16-.13-.26-.19.06-.17-.06-.36.05-.53.15-.22.09-.39-.03-.61-.07-.13-.2-.24-.2-.41-.46.01-.63.11-1.19.72.08.31.21.64.11.98q-.25.13-.46.47c.01.06.16.08.05.2-.29-.06-.4-.38-.62-.5h-.37c-.08.08-.16.16-.23.23-.38.07-.64-.13-.9-.38-.49.1-.98-.05-1.47-.09-.15.05-.17.33-.37.21.09-.52.09-1.06.51-1.49-.16-.12-.29-.21-.49-.36-.33-.02-.69.24-1.1.39-.17,0-.32-.25-.48-.12-.17.13-.35.14-.51.1-.23-.05-.35.16-.57.14-.46-.04-.88.2-1.35.12,0,.15,0,.26,0,.36,0,.15-.15.19-.21.28-.05.08-.02.2-.13.26-.09.04-.12.2-.28.18,0-.44.41-.66.48-1.08-.23-.03-.5.04-.73-.12-.07-.05-.23-.04-.29,0-.22.16-.53.12-.72.34-.23.24-.2.55-.2.8-.27.38-.32.86-.72,1.08-.27-.01-.47-.13-.63-.31-.03-.04-.03-.12.03-.17.16-.09.28.02.42.08.11-.15.41-.1.41-.42-.1-.02-.11-.19-.25-.18-.24.12-.46.24-.57.29-.38,0-.5-.2-.64-.34v-.6c.29.06.56-.05.83.13.14.09.3-.04.38-.2.02-.54-.11-1.05-.29-1.54-.39.01-.76-.06-1.06.19q.24.49.23,1c-.25.35-.69.23-1.02.46-.08-.19-.37-.13-.41-.32-.05-.3-.31-.31-.46-.43-.56.25-1.17.15-1.72.36-.27.1-.3.44-.58.65v-1.04c-.16.02-.23-.04-.29-.12-.29.11-.29.47-.5.59-.18.05-.22-.17-.37-.11-.04.03-.08.07-.13.12-.08-.11-.19-.12-.32-.12-.56,0-1.11-.02-1.67,0-.87.04-1.74-.14-2.6.12-.06.02-.14.03-.18,0-.27-.2-.58-.1-.88-.12-.14-.01-.32.04-.42-.03-.34-.23-.77.07-1.07-.24-.06.06-.11.1-.15.14-.04-.04-.09-.08-.15-.13-.04.19-.18.14-.3.14-.82,0-1.65,0-2.47,0-.1,0-.22.03-.3-.02-.43-.27-.96-.12-1.4-.35-.05-.03-.14-.03-.18,0-.38.26-.77.14-1.13-.01-.25-.11-.5-.11-.76-.11-.49,0-.98,0-1.41,0-.26-.14-.47-.24-.72-.37-.33.05-.67-.12-1.03-.2-.36-.08-.77,0-1.1-.18-.36-.21-.75-.02-1.17-.18.12-.22.22-.4.32-.58-.17-.24-.34-.48-.51-.72-.27-.19.25-.22.08-.37-.96.3-.73.36-1.04,1.08-.05.12-.13.19-.2.28-.13,0-.25,0-.37,0-.01,0-.03-.03-.07-.07.06-.17,0-.36.06-.57.09-.32.43-.33.59-.61-.2-.66-.67-1.18-1.13-1.7.11-.08.15-.2.29-.17.07,0,.07.14.17.09.16-.36-.2-.61-.22-.93.23-.07.51.07.62-.26v-.6c-.19-.07-.37-.2-.61-.18v-.44c-.1-.29-.44-.07-.58-.3-.11-.19-.31-.33-.46-.49h-.36c-.16.15-.31.3-.45.43v.75c.07.17.27.16.39.3-.09.28-.18.56-.29.88h.34c.23-.19.27-.48.33-.71h.81c0,.08.01.14.01.2,0,.08,0,.16,0,.22-.17.17-.34.3-.45.47-.12.18-.39.16-.45.42-.05.19-.36.16-.45.35,0,.13-.05.28,0,.37.17.29.14.55.02.85-.07.18-.1.4.03.58.07.1.02.2.06.29.09.18-.15.3-.05.48.1.19.04.4.05.6,0,.53,0,1.07,0,1.6.39.07.76-.02,1.13.06v.88c.56-.17.95-.57,1.43-.7v-.82c-.22-.09-.32.22-.59.06-.18-.1-.15-.32-.1-.59.26.13.26-.27.51-.24.04.03.1.06.12.11.12.33.25.64.43.94.06.11.08.31-.05.46-.08.1-.12.24-.19.4.28.23.42.59.63.89-.26.29-.05.54.06.8.39.02.59.09.81.31v.37c-.07.12-.24.16-.25.38.13.25.17.57.09.87-.08.5-.6.6-.87.95.42.41,1.12.26,1.4.84,0,.15-.04.33.1.48-.21.28-.08.6-.09.89-.01.3-.09.54-.31.75-.07-.06-.13-.15-.27-.11-.04.04-.09.11-.16.18v.98c.14.38.61.02.71.4-.12.07-.11.19-.11.32,0,.75,0,1.49,0,2.24,0,.14.05.33-.03.42-.16.19-.11.4-.09.58.03.22-.16.37-.14.57,0,.06-.03.15,0,.18.2.21.09.46.12.7.01.1-.04.25,0,.3.26.3.06.55-.06.81-.1,0-.2.02-.27.02-.17.22.06.35.07.51-.08.21-.28.33-.41.52q.33.07.57-.14c.12.1.25.2.35.28-.04.34.06.64-.13.93-.23.36-.3.77-.24,1.2.29.5.33.74.36,1.22.05.84-.22,1.66-.13,2.5,0,.06.02.12-.04.17-.18.19-.14.48-.06.64.16.34.09.68.1,1.02.03,1.09-.09,2.19.24,3.26.04.13.04.33-.03.41-.13.16-.06.31-.09.47-.05.29.08.55.12.82.1.76-.15,1.5-.12,2.25,0,.02,0,.05,0,.06-.23.27-.09.59-.11.88-.03.31-.09.66.02.92.14.35.17.71.07,1.01-.09.29-.07.55-.09.83-.02.27.01.54,0,.81-.03.37.12.66.35.88v.77c-.12.22-.42.16-.48.44.09.4.3.77.61,1.03v.52c-.07.06-.12.12-.14.13-.33-.03-.16-.3-.25-.43-.16-.15-.34-.22-.51-.29-.07.08-.13.14-.18.2-.02.22.03.47-.06.66-.21.43-.02.72.21,1.03h.24c.15-.15.29-.29.47-.47v-.51c.11.17.16.25.22.35v1.08c-.1.11-.19.23-.36.18,0-.09-.04-.13-.12-.12.01-.06-.02-.1-.07-.11,0,0-.04.03-.04.04.01.06.05.08.11.07Zm73.3-51.37c-.01.06.02.1.07.11,0,0,.04-.03.04-.04-.01-.06-.05-.08-.35-.15.02.03.06.07.06.07.05-.03.19.07.16-.05-.02-.1-.14-.1.01.06Zm-51.21,91.67c-.01.06.02.1.07.11,0,0,.04-.03.04-.04-.01-.06-.05-.08-.09-.02-.04-.13.04-.24-.12-.3-.01.09-.06.18.1.25Zm-24.06-37.81c-.01.06.02.1.07.11,0,0,.04-.03.04-.04-.01-.06-.05-.08-.09-.02-.04-.13.04-.24-.12-.3-.01.09-.06.18.1.25Zm67.13,30.1c.01-.06-.02-.1-.07-.11,0,0-.04.03-.04.04.01.06.05.08.09.01.1.36.19.48.71.93.02.02.08,0,.11,0,.07-.04.05-.1.05-.16-.34-.15-.53-.47-.86-.7Zm16.66-48.26c.01-.06-.02-.1-.07-.11,0,0-.04.03-.04.04.01.06.05.08.11.07.06.26.32.34.49.35.28.03.35.21.45.39.1-.02.21.05.31-.08-.07-.38-.57-.34-.66-.67-.21,0-.4,0-.58,0ZM40.23,28.48q-.27.07-.49.43c0,.53.12.96.36,1.18-.07-.4.36-.56.37-.96-.07-.19-.16-.42-.25-.65.06.01.1-.02.11-.07,0,0-.03-.04-.04-.04-.06.01-.08.05-.07.11Zm-2.57,54.25v.55c.17.23.37.18.55.15.2-.2.33-.4.27-.71-.28,0-.56,0-.88.06.13-.69-.07-1.25-.27-1.81-.17-.04-.32,0-.44.2-.05.62.31,1.08.76,1.56Zm1.58-7.48c.01-.06-.02-.1-.07-.11,0,0-.04.03-.04.04.01.06.05.08.12.05-.08.26.16.33.26.53v.88h.65c.2.13.18.39.44.51-.04-.47.11-.93-.27-1.35-.37-.11-.7-.39-1.09-.53Zm22.21,46.76c.09.05.17.1.26.13.11.03.24-.04.36.06.25.16.05.46.21.62.08.12.16.24.2.31h.39c.25-.42.18-.87.19-1.29.08-.08.16-.16.23-.24v-.91c-.1-.04-.12-.17-.3-.15,0,.18-.22.06-.31.18,0,.12-.04.25.08.34.22.16.19.37.13.59-.45.08-.71-.43-1.15-.36-.19.21-.33.44-.3.74-.27-.02-.39.17-.5.46-.07-.14-.12-.23-.16-.33-.03.02-.06.04-.08.07v-1.43c-.36-.02-.67-.12-.79-.51-.07.07-.11.11-.17.17v2.42c.44.34.99.35,1.51.68-.14-.45-.36-.77-.29-1.16.27.02.39-.17.49-.38Zm-20.99-11.26c.05.24,0,.44-.15.63.19.09.34.07.53.04-.02-.19.05-.39-.13-.56.37-.18.63-.45.86-.72v-.88c-.26-.3-.59-.32-.91-.3-.26-.26-.48-.53-.91-.49-.05.54-.72.55-.9,1,.1.18.23.22.41.24.59.08.65.14.77.61.13.13.26.26.42.43Zm53.82,8.84c-.07.71.21,1.4.12,2.12-.01.09-.04.2.04.3.05.05.11.1.16.14.52-.18,1.03-.36,1.48-.52.12-.23.03-.41-.12-.45-.28-.09-.38-.33-.58-.47.12-.35.3-.64.26-.96.07-.17.29-.21.25-.42-.01-.06,0-.12-.06-.17h-.24c-.08.08-.17.16-.26.25h-.86c-.06.06-.12.12-.18.18Zm-37.85-5.65c.13,0,.27.04.32,0,.3-.27.72-.27,1.04-.47.03-.02.05-.06.08-.08v-.37c-.06-.06-.12-.12-.18-.18h-.67c-.09.11-.2.25-.24.3-.34.16-.45-.04-.55-.17-.2-.28-.39-.58-.44-.93-.02-.15-.1-.21-.18-.31-.27.24-.61.03-.91.14.26.63-.02,1.21-.12,1.82.56.13.82-.31,1.14-.6q.37.07.71.87Zm2.69-.13c0-.48-.26-.9-.08-1.36.35.24.3.75.63.98.65-.46.54-1.28-.25-1.71-.63-.09-1.17-.02-1.54.57,0,.1-.04.24.03.39.19.12.29.38.53.41.13.25.24.49.36.71h.32Zm-19.71,3.74q-.36.06-.41.43c.23.24.52.45.49.85-.1.12-.21.23-.31.34h-.66c-.05.16.05.33-.05.47-.19.22-.51.22-.68.44v.51c.32-.05.51.25.84.33v-1.3c.12-.19.26-.24.44-.21.08.17.17.33.25.49.22,0,.43.05.54-.19-.03-.04-.09-.08-.11-.13-.02-.08,0-.16,0-.23.17-.17.33-.33.47-.48v-.54c-.15-.15-.27-.37-.41-.39-.26-.04-.17-.36-.39-.39Zm42.9,3.42c0-.08,0-.17,0-.25-.21-.21-.4-.44-.7-.55-.08.19-.34.02-.41.18-.14.32-.46.38-.7.54-.09.06-.26.11-.27.2-.08.4-.42.62-.63.88,0,.26-.05.5.31.56.31-.49.96-.6,1.31-1.08.02-.03.07-.04.1-.05.38-.03.67-.26.99-.44Zm.53,1.48c.23-.37.6-.52.88-.78.28-.26.43-.59.57-.94.13-.32.46-.55.47-.94-.09,0-.14-.02-.17,0-.25.18-.24.54-.5.75-.69-.07-1.3.1-1.65.81,0,.5.1.82.4,1.11Zm-16.2-8.05c.15-.27.57-.37.48-.78-.7-.36-1.33-.79-1.92-1.29-.04.09-.05.18-.1.23-.09.08-.11.22-.07.27.23.29.06.55,0,.83-.01.06,0,.12.03.14.23.12.34-.14.53-.1.32.34.72.63.85,1.12.16-.12.24-.24.2-.42Zm-22.71,3.96c.29.27.52.53.5.94,0,.13.13.25.3.23.06-.06.12-.12.19-.19-.04-.57.09-1.16-.14-1.7.11-.23.37-.21.49-.4v-.52s-.09-.09-.15-.15h-.62c-.08.53-.33.99-.57,1.44-.04.08,0,.2,0,.34Zm32.41-76.07c.18-.31.59-.38.77-.69.09-.21-.06-.31-.19-.43-.69.09-1.43-.13-2.13.16v.65c.07.09.12.15.19.22.47-.15.89.17,1.37.09Zm-39.09,58.17c.09.16.11.35.25.47.32.27.43.61.38,1,.23.23.45.45.67.68h.52c.08-.12.07-.26.04-.37-.15-.46-.27-.91-.12-1.4,0-.02-.04-.06-.06-.09-.2-.1-.32.15-.51.12-.17-.02-.3-.18-.57-.11-.1-.11-.22-.24-.34-.38-.06.01-.15-.04-.25.08Zm13.55,12.01c-.25-.35-.33-.83-.57-1.07-.33-.13-.44.07-.61.09v.38c.15.24.39.35.5.59-.05.07-.09.13-.13.18.15.62.32,1.23.68,1.78h.3c.16-.13.27-.22.37-.29-.02-.13.04-.24-.09-.34h-.54c.05-.44-.06-.86.1-1.33Zm-11.32,9.75c.35.32.7.63.64,1.09.21.23.38.41.54.58.13,0,.27.04.34-.1.13-.27.38-.5.33-.84-.27-.28-.58-.52-.63-.88-.23-.11-.42-.2-.65-.32-.11.21-.37.24-.57.46Zm8.27-5.58c.12-.11.29-.27.46-.43-.14-.1-.09-.4-.43-.4-.18.42-.57.71-.88,1.05-.06.54-.31.97-.65,1.32.16.27.38.27.58.22.35-.33.8-.54.92-1.04v-.72Zm-12.64-81.55q-.39.37-.45.7c.12.1.26.22.38.32-.02.54.06,1.05-.14,1.51.14.18.28.28.48.17.06-.34.29-.55.52-.77v-.63c-.38-.28-.4-.69-.37-1.12,0-.06.01-.12-.06-.17h-.36Zm36.35,88.28h.68l.15-.15v-.56h-.68c-.2.09-.15.3-.2.43-.34.24-.75.12-1.03.3-.22-.04-.34-.21-.53-.21v.67s.06-.05.09-.07c.07.13.14.25.19.34h1c.24-.18.31-.43.34-.76Zm-31.9-67.14c-.41.05-.77-.28-1.17-.09-.1.08-.16.18-.18.3-.22.16-.54.1-.71.35v.63c.14.07.19.26.37.29.25-.07.33-.31.35-.49.05-.43.36-.64.62-.93.53.17.42.63.55,1.01-.14.12-.28.23-.4.33.05.14.16.04.22.12.05.08.12.11.2.08.2-.1.19-.3.22-.46.11-.09.26.03.35-.1-.13-.33-.26-.67-.41-1.05Zm83.76,2.71h.48c.31-.4.58-.76.85-1.12-.13-.46-.55-.76-.58-1.3-.43.27-.3.69-.44.98-.16.31-.17.7-.49.89.01.2-.05.4.18.55Zm-45.84,62.58c-.03-.4.37-.77-.07-1.12-.66.02-1.35-.03-2.04.03.26.37.67.45.93.61.19.28.33.51.43.65.38.24.44-.23.75-.18ZM38.94,42.98c-.19.32-.35.57-.58.75v.49c-.09.15-.24.16-.34.23v.42c.5.16.94-.2,1.39-.09.31-.19.17-.46.2-.69-.31-.29-.46-.67-.67-1.11Zm-1.06,35.4c0,.43-.01.83,0,1.22.02.47-.05.91-.5,1.33.4,0,.5.28.71.42.14-.03.29.06.41-.06.05-.35-.3-.5-.36-.77v-1.24c.15-.14.27-.31.45-.35.07-.17.2-.31.16-.51-.04-.18.26-.34.05-.57-.33.1-.58.36-.91.53Zm11.11,43.08c-.33-.32-.57-.68-.87-.96-.26-.24-.54-.48-.8-.72-.25-.23-.47-.49-.43-.94-.2.23-.33.38-.47.53.19.24.2.65.61.76.07.02.07.16.11.19.2.2.29.46.42.71h.37c.28.32.64.53,1.04.75,0-.12.01-.2.02-.31Zm-11.57-3.02c-.18-.3-.39-.58-.26-.86.11-.23.04-.47.17-.68.1-.15.12-.35-.03-.5-.11-.11.04-.25-.19-.41-.33-.33-.75.2-1.14.06-.19.14-.23.31-.3.49h.91c.35.34.61.68.33,1.17.06.36-.21.68-.13,1.04.33.15.44-.13.64-.31Zm-6.94-3.86c.22.4.43.82.38,1.21.14.18.22.29.3.39h.75c.1.07.15.2.31.22,0-.53-.53-.6-.74-.92-.03-.27-.01-.52.14-.74-.3-.22-.58-.39-.96-.46-.04.07-.1.16-.18.29Zm17.48,7.13c-.19-.21-.34-.37-.5-.56-.32.23-.47.62-.68.95.25.28.23.81.66.8.26-.26.46-.46.69-.69.02-.18-.23-.37-.17-.5Zm-10.21-62.33c-.42-.28-.78-.39-1.09-.36v1.02c.26.27.45.45.65.65.51-.27.46-.79.44-1.31Zm-.34-12.76v.59c.11.17.24.2.41.18.22-.22.49-.43.55-.79-.16-.15-.42-.12-.54-.31-.12-.2-.25-.36-.47-.49-.15-.09-.21-.34-.3-.52-.31-.04-.42.19-.58.37q.53.34.92.97Zm85.05,9.6c-.77,0-.97.07-1.16.43.14.15.29.29.43.44h.49c.34.08.51.35.8.21-.02-.19.02-.35-.1-.53-.1-.15-.29-.4-.03-.64.06-.05.06-.27-.05-.42-.06.23-.22.37-.38.51Zm-58.89,55.12c.24-.26.55-.07.68-.12.22-.17.33-.25.43-.33-.01-.25-.02-.47-.03-.67h-1.3c-.06.07-.11.11-.15.15v.78c.12.06.22.11.37.19Zm-24.65-20.32c-.15.35-.4.58-.64.82-.29.28-.56.56-.52,1.02,0,.06-.13.1-.11.23.09.12.2.25.35.34.2-.05.19-.25.37-.34.24-.12.36-.46.38-.74.03-.41.16-.75.42-1.06-.08-.09-.13-.14-.24-.26Zm.82,2.23c-.28.03-.38.32-.62.34v.26c.06.06.12.12.18.18.24-.16.47-.35.73-.46.35-.14.45-.4.45-.74,0-.23,0-.45,0-.68,0-.03-.03-.07-.05-.1h-.42c-.2.14-.31.22-.44.31.24.27.16.56.17.88Zm41.46,29.57l-.23.24v.67c.34.09.59-.03.84-.27,0-.12.01-.26.03-.49.08-.07.22-.2.36-.33.04-.27-.19-.36-.33-.5-.24.03-.49-.09-.66.2v.48Zm-54.8-51.63c-.21-.21-.41-.41-.61-.61v-.37c.08-.12.24-.16.25-.38-.1-.08-.22-.18-.34-.27-.08.08-.19.18-.27.26v1.92c.41.12.66-.17.96-.28v-.26Zm89.84-35.8c.34.28.58.68,1,.88.05.02.06.05.1.01.08-.13.16-.27.24-.4v-.65c-.07-.07-.13-.12-.17-.15-.17-.05-.21.17-.35.11-.19-.18-.38-.35-.61-.56-.08.12-.14.2-.21.3v.46Zm-60.92,85.26c-.37.05-.4.07-.41.4,0,.22,0,.45,0,.65.1.1.19.19.27.28.09.11.17.22.23.3.21-.05.36.04.43-.03.24-.71-.16-1.14-.52-1.6Zm66.84-50.94c0,.85.06.97.62,1.07.15.17.34.39.55.63.16-.4,0-.73-.08-1.1-.22-.33-.65-.46-.9-.8-.07.07-.13.13-.19.19Zm-47.24,52.96c-.25-.36-.09-.74-.15-1.08.15-.17.38-.29.2-.57-.33.33-.73.5-1.18.53v.45c.17,0,.29.15.49.18v.5c.08.1.14.16.18.2.2.05.33-.03.46-.21Zm17.13-1.84c.02.06-.05.17.13.17-.09-.32.2-.59.14-.81-.25-.27-.42-.47-.59-.65-.14-.05-.17.11-.3.12-.16-.12-.36-.19-.59-.09-.03.15-.05.31.04.48h.32c.34.1.17.37.32.51.13.15.37.15.53.29Zm-27.91-.32c-.35.18-.35.53-.5.82.23.17.42.37.75.29.13-.17.27-.34.27-.58,0-.16.11-.25.26-.27.24-.03.44-.12.6-.32-.49-.21-.94.19-1.38.07Zm7.05.78c-.08-.3.09-.63.14-1h-.82c-.05.12-.21.07-.29.16-.07.46.08.81.45,1.07.2,0,.4.05.53-.22Zm-29.48-13.56c-.11-.09-.25-.2-.39-.32.22-.19.18-.48.34-.6-.1-.14-.19-.25-.25-.33h-.33c-.16.13-.27.22-.35.28-.08.37.03.67.17.94.12.22.35.35.61.4.06-.1.18-.13.2-.36Zm-3.64-3.62c.38-.06.32-.5.53-.68v-.45c-.19-.5-.83-.36-.9-.88-.07.07-.13.13-.18.18v.47c.14.32.46.33.6.55.06.28-.28.51-.05.81Zm85.32-28.43c.02-.34-.07-.69.15-1-.13-.06-.17-.22-.34-.18-.13.12.03.39-.28.48-.27.01-.58.07-.8.38.28.42.63.57,1.09.5.04-.04.09-.09.17-.17Zm-70.03,44.72c-.23.3-.18.64-.17,1.02.35.08.56.41.87.47.48-.25.03-.55.1-.81-.2-.22-.45-.39-.56-.67h-.25Zm-15.95-48.6c-.11.24.11.39.16.58.05-.04.09-.08.13-.11.08.08.15.15.22.23.39,0,.75.24,1.08.15.25.08.16.34.4.38.04-.07.09-.16.18-.34v-.5c-.06-.06-.1-.11-.15-.15-.12.13-.23.26-.25.29-.53.19-.77-.22-1.27-.19-.05-.08-.15-.24-.23-.37-.11,0-.17,0-.23,0-.02,0-.03.02-.05.04Zm20.82,45.17c.08.36-.26.68-.08,1.04.07.06.12.17.25.14.17-.15.12-.49.44-.53v-.52c-.13-.17-.26-.32-.43-.35-.15-.23-.15-.51-.46-.61-.11.12-.22.23-.31.32.12.25.39.29.59.5Zm-19.99-31.96c-.02-.14.04-.29-.04-.42h-.4c-.19.22-.48.36-.43.68-.34.13-.5.43-.73.61.02.19-.06.36.11.48.05.03.08.09.22.06.06-.08.16-.21.32-.41v-.44c.33-.2.65-.38.96-.57Zm24.85,28.79c-.18-.17-.21-.31-.14-.46.2-.22.46-.26.71-.33-.03-.16.05-.31-.06-.44-.45-.02-.89.03-1.28.26-.09.45.13.73.42.97h.35Zm-33.67-49.26c-.17.33-.43.58-.42.96.22.16.29.22.42.17.33-.12.72-.14.95-.47-.29-.35-.6-.57-.94-.66Zm3.75-25.4c.18.18.33.34.52.53q.38,0,.76-.27c-.19-.19-.34-.42-.56-.55-.28-.16-.12-.55-.44-.66-.26.29-.08.7-.27.95Zm60.26,3.54c-.26-.37-.35-.77-.46-1.19-.54.28-.61.73-.55,1.23.06.06.12.12.17.18.17.02.37-.07.5.11.1-.1.21-.2.35-.33Zm-53.78,21.11c.12-.23.3-.38.56-.36.19,0,.3-.08.39-.29-.3-.04-.04-.35-.23-.48-.12-.14-.3-.16-.44-.24-.12.07-.24.14-.23.13-.25.39-.27.72-.23,1.06.06.06.11.12.17.17Zm-.92-29.47c.11.36.32.56.66.62q.2-.22.2-.49c-.21-.24-.39-.44-.58-.65-.28.09-.56.16-.86.17-.07,0-.13.08-.19.12.1.11.16.17.22.22h.55Zm3.79,87.56c-.13.12-.23.22-.31.29v.66c.27-.21.54-.23.8-.18.08.08.15.15.22.22.1,0,.2.04.29-.03-.02-.61-.33-.91-1-.96Zm3.24-.12c-.16.13-.27.22-.36.29v.37c.31.28.69.34,1.05.44.06-.07.12-.12.15-.16-.13-.36-.2-.75-.56-.95h-.29Zm-4.88-83.83c.09-.09.21-.14.19-.36-.18-.33-.28-.76-.35-1.07-.15-.21-.25-.34-.31-.43-.34-.05-.43.18-.56.31-.05.23.13.35.15.53.28.15.66.15.83.48.02.18-.04.37.05.55Zm51.67-11.34h1.09v-.51c-.12-.13-.21-.24-.29-.33h-.63c-.06.06-.12.12-.17.17v.68Zm-46.77,86.97c.3,0,.46-.3.78-.25.08.07.18.16.21.18.28.13.37,0,.47-.14-.13-.13-.32.01-.41-.13-.12-.08-.24-.16-.33-.22.05-.3-.05-.51-.19-.69-.16-.03-.28.01-.37.15-.22.34-.17.72-.15,1.1Zm-8-36.33c.31-.18.73-.08.93-.42v-.61c-.12-.21-.3-.23-.43-.3-.22.37-.44.73-.66,1.09,0,.1.09.13.16.23Zm28.48,42.74c.12.28.49.09.59.38-.04.11-.22.15-.23.35.11.08.24.17.41.3.03-.01.18.07.28,0,.18-.13.22-.27.15-.45-.18-.18-.46-.22-.59-.5,0-.25-.13-.46-.3-.65-.1.02-.21-.04-.3.05v.51Zm-8.15-5.84c-.21.1-.4.2-.61.21,0,.21-.16.29-.27.42.05.12-.04.27.06.41h.69c.17-.13.28-.22.37-.28v-.52c-.06-.07-.12-.13-.23-.24Zm-19.19-27.18c-.19.22-.38.12-.53,0-.17.17-.32.32-.48.48.24.23.68.29.88.63.12,0,.2-.01.29-.02v-.81c-.12-.05-.07-.21-.16-.3Zm14.51,30.72c-.04.3.04.53.23.67.2.15.43.27.6.21.19-.15.3-.24.38-.31.07-.32-.17-.42-.31-.58h-.9Zm-23.34-4.44c-.03.58.56.45.74.76.01.02.05.03.08.05.05-.05.09-.09.14-.15v-1.12c-.24.12-.45.2-.56.18-.2.13-.32.21-.41.27Zm-3.27-74.17c.23-.33.27-.66,0-.98-.13.15-.44.12-.42.42-.21.08-.37.21-.49.4.03.13-.06.28.05.4.33.04.57-.2.87-.24Zm51.43,82.6c.53-.1.58-.2.58-1.19-.1-.1-.2-.19-.29-.28-.11.1-.23.2-.35.3.1.24-.05.4-.1.59-.06.22.13.36.16.59Zm-36.54-.93c.19.19.36.37.54.55.41-.06.49-.15.55-.54-.25-.4-.69-.42-1.08-.61v.6Zm61-5.8c-.28.32-.17.71-.2,1.07.3.13.51-.01.69-.11.16-.24.24-.46.13-.74-.19-.08-.36-.26-.62-.23Zm-65.46-26.3c.24.25.51.37.86.27-.03-.38.08-.77-.21-1.08h-.19c-.18.16-.34.3-.47.42v.39Zm2.72,16.47c-.14-.04-.35.03-.37.21-.01.21-.18.35-.15.57.03.23.12.41.32.59.08-.05.2.06.3-.06-.02-.43.36-.88-.1-1.32Zm-1.52-49.79v-.74c-.27.17-.54.19-.83.16v.57c.12.12.12.34.3.42h.23c.19-.09.17-.32.29-.42Zm.79,51.72c.17-.32,0-.6-.07-.91h-.35c-.28.29-.23.61-.21.93.13.09.19.26.32.29.12-.12.22-.22.32-.32Zm-7.42-48.98c.45-.52.7-1.06,1.15-1.47-.1-.11-.17-.17-.2-.21-.53.17-.73.6-.95,1.08v.59Zm51.95-15.8c.36.27.46.26.97-.13,0-.1.04-.2-.04-.3-.22-.21-.47-.33-.76-.25-.11.23-.24.43-.17.68Zm-16.11,70.28c.1-.08.21-.17.33-.28-.09-.16,0-.26.08-.37-.1-.11-.2-.21-.23-.25-.32-.15-.51.02-.73.11v.39c.16.18.31.33.55.38Zm.08,3.96v.55h.43c.18-.05.14-.24.21-.35.08-.13.26-.08.3-.17.06-.26-.02-.41-.23-.46-.25.14-.58.13-.72.43Zm-29.22-51.94c-.17.55-.41,1.05-.57,1.62h.36c.34-.41.48-.89.39-1.43-.05-.05-.11-.11-.19-.19Zm49.38-21.77c.14-.27-.01-.45-.13-.46-.27-.01-.5-.28-.79-.09-.04.45.3.67.52.91.17-.15.32-.29.41-.36Zm3.28-.47c-.29.09-.27.26-.26.43.24.23.44.51.8.56q.26-.34-.1-.85c-.17.01-.32-.08-.44-.13Zm-62.94,17.52c-.04.37.08.75-.15,1.05.08.08.14.14.19.19.22.08.36-.11.55-.16v-.57c-.3-.03-.17-.49-.6-.51Zm11.76,10.35c-.19.13-.32.22-.4.28-.09.56.39.39.59.56.06.05.27.08.38-.05v-.36c-.16-.22-.38-.35-.57-.43Zm64.36,45.9c.11.41-.17.79-.12,1.15.23.28.42.24.59.03.15-.37-.17-.69-.11-1.04-.07-.06-.13-.12-.2-.17-.03-.02-.08,0-.17.02Zm-66.89-40.6c-.06-.38-.07-.41-.6-.8-.02.32.06.65-.16.91.12.15.1.35.23.42.18-.18.33-.34.53-.53Zm2.87-21.57c.17-.13.27-.31.33-.52-.37-.08-.53.24-.78.36-.15.08-.24.22-.17.46.19.08.25.37.56.42.1-.22.02-.45.06-.72Zm19.1-23.88c-.17-.04-.3-.21-.56-.16-.06.08-.15.22-.27.4.01.03-.08.18.01.31.15.2.35.15.48.06.12-.08.24-.15.33-.21v-.41Zm-19.14,67.24v-.94c-.22-.26-.4-.21-.58,0v.57c.13.16.21.28.28.36h.31Zm16.55,19.22c-.16-.17-.29-.3-.42-.43-.1.01-.2-.04-.3.04v.58c.12.16.21.28.31.4.14-.09.3.04.42-.09v-.5Zm-13.42,7.39c-.04-.39-.28-.61-.43-.84h-.43c-.06.08-.12.13-.14.21-.02.07,0,.16,0,.21.18.21.45.23.54.43h.47Zm-1.07-10.06c.1-.14.27-.2.3-.38.05-.18-.08-.26-.18-.36-.29-.02-.59-.05-.81.21-.05.28.18.38.32.53h.36Zm18.86,3.66c.07-.1.13-.18.18-.26v-.64c-.35-.04-.68-.06-.93.15.23.23.45.46.75.75Zm35.02-76.62c-.14-.3-.25-.58-.39-.85-.06-.11-.14-.26-.32-.18-.1.11,0,.27-.12.39-.07.07.12.21.08.35-.05.17.08.25.18.36.16,0,.32,0,.49,0,.02,0,.03-.02.09-.07Zm-23.16,79.81q-.21.49,0,.98c.13-.19.44-.03.55-.3v-.46c-.14-.32-.36-.21-.55-.22Zm-35.48-24.87c.36-.18.39-.55.62-.7v-.41c-.16-.05-.18-.28-.43-.27-.3.41-.14.89-.19,1.39Zm.52-37.67c.02.13-.11.4.17.57.13-.23.41-.01.6-.22-.2-.18-.22-.39-.08-.58-.06-.18-.2-.2-.4-.18-.07.09-.16.23-.29.41Zm71.06,56.12c-.17-.16-.13-.45-.46-.44-.15.07-.38.1-.53.35.2,0,.07.21.27.31.09.13.37.02.57.23.06-.15-.02-.35.16-.45Zm-71.06,7.8c.17.46.49.65.94.57.11-.27-.11-.41-.15-.6q-.45-.17-.79.03Zm2.45-62.31c-.27-.1-.52-.24-.71-.44-.16.15-.28.27-.4.38.02.1-.03.19.06.26.28.05.59-.08.87.19.03-.16.2-.17.18-.39Zm10.49-31.71c-.11-.09-.15-.2-.35-.16-.04.28-.45.42-.37.86.25-.05.53.1.72-.19v-.51Zm-2.7,85.14c0-.49-.46-.62-.59-.99.08.35-.3.62-.12.99h.71Zm27.99,9.05c.06-.24-.04-.35-.15-.43h-.57v.4c.12.11.2.29.42.33.11-.11.22-.22.3-.31Zm-8.51-.32c-.23-.02-.36-.15-.51-.23-.13-.06-.25-.09-.36.06.23.2.46.39.73.62,0,0,.16.1.27-.05.02-.15-.18-.21-.14-.4Zm48.71-14.8h-.82v.31c.32.18.64.24,1,.12-.07-.16-.12-.28-.18-.43ZM39.61,46.96c-.56-.09-.81.04-.97.54h.44c.2-.2.35-.35.54-.54Zm2.65,68.14c-.36-.28-.34-.74-.6-1.04-.16.02-.3-.04-.43.05v.29c.21.08.4.16.56.3.11.46.12.47.48.41Zm66.07-58.22c-.23-.06-.44-.1-.59.14v.54s.04-.03.05-.04c.03.07.07.14.1.21.25-.26.51-.47.43-.85Zm-18.79-14.98q.21-.32-.03-.61c-.14.03-.28-.05-.46.09-.14.04-.08.2-.08.35.06.05.12.11.18.17h.39Zm16.71,68.87c.1.12.21.23.41.18.11-.11.23-.21.32-.3.02-.24-.03-.4-.25-.44-.12.06-.24.12-.36.18.07.15-.14.19-.12.39ZM38,50.21q.39.03.59-.12v-.69h-.36c.1.33-.22.52-.23.81Zm33.44,72.3v-.3s-.06.06-.08.08c-.08-.15-.16-.3-.22-.41-.51.14-.54.23-.27.63h.57Zm39.61-10.43c.12,0,.15-.12.24-.17v-.52c-.13-.17-.27-.25-.47-.13v.65c.09.06.12.18.24.18Zm-61.47,8.17v-.53c-.15-.2-.29-.26-.46-.13v.67c.1.06.13.18.29.15.04-.03.1-.09.17-.15Zm31.99-3.87c.15.23.36.2.58.14,0-.18.22-.3.13-.54-.08-.02-.1-.19-.25-.17-.25.11-.33.37-.46.57ZM27.36,37.41c-.1-.13-.19-.24-.27-.35q-.38.07-.44.43c.13.11.21.29.38.32.22-.07.2-.31.33-.41Zm22.07,81c.15-.2.32-.4.3-.68-.11-.13-.22-.25-.47-.17-.03.03-.1.1-.2.2.22.18.09.51.37.65ZM87.47,26h-.33c-.05.23-.24.43-.14.72.08.02.1.17.24.16.11,0,.14-.12.22-.18v-.7Zm-30.33,96.1c.09.05.12.18.31.17.13-.2.35-.39.28-.72-.23-.03-.44-.07-.59.16v.39Zm25.78-4.46c.14-.27.24-.47.35-.68-.16-.05-.19-.31-.42-.28-.01.01-.03.03-.04.04-.04.04-.09.09-.13.13q0,.33.24.79Zm-43.3-58.65c.29-.34.29-.44.03-.65h-.38c-.05.1-.2.14-.17.3.11.19.32.22.52.35Zm19.81-30.28c-.05-.27.18-.33.15-.56-.21-.08-.27-.39-.58-.42-.09.39.01.68.43.98Zm28.21,11.73c-.17.21-.34.42-.29.66.23.2.26-.13.43-.06.02.01.11-.11.17-.18v-.39c-.11-.07-.21-.04-.31-.03Zm8.42,70.94c.29-.16.34-.4.45-.59-.36-.3-.37-.3-.64.05-.02.19.15.31.19.53ZM59.51,38.81c-.1.31-.03.59.14.84.11-.1.22-.19.31-.27v-.4c-.17,0-.25-.2-.45-.17Zm12.24,73.26c-.14.02-.28-.04-.44.06.06.14-.07.3.08.45.22-.03.46.04.69-.05-.03-.24-.22-.31-.32-.45Zm-13.25-80.09c-.08.27.1.41.15.59.22.05.38,0,.46-.25-.03-.04-.07-.08-.1-.13-.03-.07-.05-.14-.07-.21h-.44Zm-19.27,63.11c.02-.25-.08-.43-.27-.6-.36.69-.25.75-.03.9.1-.1.2-.2.3-.31Zm46.58-51.68c.14-.02.28.04.39-.02.24-.18.19-.38.12-.62-.21.23-.48.22-.69.32-.04.18.11.23.18.32Zm-48.22,56.7h.49c.07-.08.17-.18.28-.29-.12-.11-.2-.29-.39-.32-.23.14-.27.37-.38.61Zm2.39,3.25c-.28.05-.22.33-.38.45.06.06.12.12.18.18.19-.02.43.08.53-.21-.14-.11-.11-.34-.34-.42Zm24.06-75.18c-.27-.2-.51-.24-.62-.13,0,.14-.04.28.02.42.08.05.12.17.29.14.04-.16.14-.31.3-.43Zm53.96,83.38c.22.03.4-.01.58-.1.13-.06.12-.12.09-.27-.27.06-.56-.05-.82.05-.04.17.07.22.16.32Zm-77.44-12.45c.04-.15.05-.3,0-.42-.13-.18-.27-.22-.45-.15-.04.15-.05.3,0,.42.13.18.27.22.45.15Zm3.92,22.81c-.11.1-.22.2-.31.29-.03.22.03.37.24.45.12.01.15-.12.26-.18-.02-.18.07-.4-.18-.55Zm16.67,1.8c.1.24.03.39-.05.48.16.3.38.15.57.2,0-.13.01-.21.01-.3-.12-.13-.21-.29-.54-.38Zm-8.71-95.46c-.03.23.13.32.17.47.02.09.13.21.29.11v-.58h-.46Zm20.69,93.66c-.21.11-.41.2-.6.32-.11.07-.18.17-.04.29.17.03.26-.14.44-.15.23-.01.28-.24.2-.47Zm38.49-9.67c-.29.21-.5.37-.59.66.48.03.61-.11.59-.66Zm-55.92,1.81c-.19.04-.4-.07-.57.08.03.16.13.22.19.28h.54c.09-.17-.05-.23-.16-.36Zm-18.99-.86c-.15.02-.29-.04-.41.04-.08.09-.21.15-.12.3q.67.05.72-.05c.03-.13-.09-.17-.18-.28Zm3.99-64.35c-.18.14-.46-.14-.48.21-.01.27.09.32.48.29v-.5Zm-3.45,21.95c.02.17-.02.28.08.39.12.13.24.11.39.07.04-.15.05-.3,0-.46h-.47Zm4.14-35.34c.06-.06.08-.13.03-.22h-.81c-.04.11-.02.18.05.24.06.05.1.13.16.12l.27-.27c.12.07.17.19.3.14Zm74.76,1.35c-.21-.32-.21-.32-.54-.48-.02-.01-.07.02-.1.04-.1.21.02.34.14.44h.49Zm-78.52,17.37c.13.18.27.24.47.14v-.4c-.09-.07-.14-.2-.3-.17-.15.11.04.36-.18.44Zm59.69,55.79c-.25-.07-.4.1-.59.17.13.12.21.3.4.33.19-.11.27-.25.19-.5Zm4.48-68.03c.07-.39,0-.5-.34-.61-.15.35.16.44.34.61Zm-61.41-3.87c-.11-.32-.34-.44-.49-.63-.09.05-.2-.04-.3.07.2.23.4.45.78.56Zm80.89,55.8c.2.02.36.31.68.06-.17-.12-.3-.24-.37-.4-.19.05-.29.13-.31.34Zm1.32-27.2c-.28.02-.22.29-.34.39.07.14.13.25.2.36l.19-.19c-.03-.17.04-.37-.05-.57Zm-85.81,47.75c.25.09.39-.01.5-.29-.13-.03-.14-.19-.3-.18-.21.08-.28.24-.2.47Zm86.36-6.9c-.07-.21-.22-.34-.43-.44-.07.08-.12.14-.18.21.1.1.2.21.31.32.11-.03.22.03.31-.1Zm-16.43,7.91c.02-.22-.1-.3-.23-.37-.13.06-.26.13-.38.19v.16c.19.06.38.03.61.02ZM25.42,47.82c.07.1.21.1.27.06.11-.09.31-.05.35-.24,0-.03-.02-.07-.04-.11h-.4c-.08.09-.2.15-.17.3Zm32.36-6.93c-.07.37-.03.64.16.89l.17-.18c-.11-.08-.15-.19-.12-.32.04-.17-.08-.26-.22-.4Zm-21.37,6.28c-.03.22,0,.38.2.45.08-.15.31-.19.27-.45h-.48Zm1.84,64.69c.27.16-.04.56.35.69v-.57c-.1-.07-.15-.22-.35-.12Zm.63-66.45c0,.17-.06.34.05.5.29-.08.35-.25.28-.5h-.33Zm-9.43,6.57c-.12.09-.1.2-.07.26.07.16.12.33.25.46.04.04.06.06.1-.01v-.4s-.05.04-.07.06c-.07-.12-.14-.24-.21-.36Zm75.3,62.76c-.05-.3.24-.1.26-.29-.02-.09.04-.2-.07-.28-.17,0-.28.15-.42.19-.03.15.08.2.22.38Zm-35.75,2.04c-.01.19-.07.35.03.5.2,0,.26-.11.32-.24-.04-.15-.12-.25-.35-.26ZM47.79,29.89q.34-.24.23-.53-.25.18-.23.53Zm-13.21,85.3c.21-.12.28-.29.2-.44-.07-.13-.23-.1-.36-.01-.03.18.16.26.16.45Zm5.88-50.03c-.13-.32-.37-.21-.6-.22v.22h.6Zm-12.6-18.96c.14.11.27.11.39.01-.04-.1.09-.25-.09-.31-.16,0-.24.11-.3.3Zm10.82,58.07c.13.12.22.19.3.27.09.09.16.09.26,0-.04-.27-.21-.34-.56-.27Zm34.29,19.49c-.18.26.1.41.16.62,0-.21.09-.41-.01-.62h-.15Zm-35.22-57.03c-.13-.18-.28-.26-.48-.15.11.1.21.2.32.3.04-.04.08-.08.15-.15Zm43.65-23.96c-.18.02-.27.09-.32.22.09.08.15.21.3.16.09-.1.05-.21.02-.38Zm.39.79c.02.18.09.27.22.32.08-.09.21-.15.16-.3-.1-.1-.21-.05-.37-.02ZM28.9,115.23c.27.1.42.09.56.05.05-.09.04-.16-.03-.23-.17-.01-.26.16-.53.18Zm79.64.44c.08-.11.25-.16.13-.34-.18-.09-.23.09-.34.17.06.05.12.1.21.17Zm-28.97-87.94c.03-.13.03-.21-.1-.24-.12.06-.25.12-.39.19.15.1.31.05.48.04Zm-9.8,94.92c-.17.19.05.26.1.32.07-.04.15-.08.24-.12-.13-.11-.19-.24-.34-.2Zm-13.88-12.12c.19.17.26-.05.29-.07-.03-.07-.06-.16-.09-.26-.11.13-.23.18-.2.33Zm9.42-82.32c-.17-.13-.29-.13-.41-.03,0,.06-.03.13.05.17.12.01.26.08.37-.14Zm57.62,50.95c.12-.17.13-.29.03-.42-.06,0-.13-.03-.17.05-.01.12-.08.27.14.37Zm-82.88,32.78c.06-.13.07-.24,0-.35-.08-.04-.15-.03-.2.04-.02.16.09.23.2.3Zm55.65,3.98c.06-.13.07-.24,0-.35-.08-.04-.15-.03-.2.04-.02.16.09.23.2.3Zm-55.23-24.98c-.03.18,0,.25.18.23,0-.08.16-.08.15-.23h-.33Zm-2.37,21.8c-.12-.06-.23-.07-.34,0-.04.08-.03.15.05.21.14,0,.23-.09.29-.21Zm9.31,2.09c-.06.11-.06.22,0,.34.11-.07.22-.14.2-.3-.06-.07-.13-.08-.21-.04Zm60.5-10.35c.05-.08.16-.11.13-.27-.11.07-.23-.04-.33.09.06.05.12.1.2.18ZM29.67,50.75c-.09.08-.09.17,0,.25.06,0,.12.03.17-.05.05-.15-.01-.22-.17-.2Zm-3.92-1.26c-.08.02-.14.03-.18.03-.05.1-.04.17.03.23.16.02.22-.05.15-.26Zm13.92-16.65c.09-.08.09-.17,0-.25-.06,0-.12-.03-.17.05-.05.15.01.22.17.2Zm-2.22,41.05c-.09.08-.09.17,0,.25.05-.02.12.03.16-.05.05-.15-.01-.21-.17-.2Zm2.9,4.54c.08.09.17.09.25,0,0-.06.03-.12-.05-.17-.15-.05-.21.01-.2.17Zm83.11-9c.09-.16.08-.27,0-.41-.08.15-.08.26,0,.41Zm-21.33,38.03c-.04-.09-.08-.17-.12-.27-.09.12-.1.19-.03.27h.15Zm-33.4,12.73c-.09.05-.17.09-.3.16.16.06.22.09.3,0v-.17Zm-28.31-45.17c.08-.11.12-.19-.02-.24-.07.07-.06.14.02.24Zm1.06-39.01c-.11-.08-.19-.11-.24.02.08.06.15.07.24-.02Zm35.84,74.83c.08-.11.11-.19-.02-.24-.06.08-.07.15.02.24Zm-25.92,9.81c-.08.11-.12.19.02.24.07-.07.06-.14-.02-.24Zm5,2.19c-.08-.09-.17-.09-.25,0,.08.09.17.09.25,0Zm48.98-6.96c.11.08.19.11.24-.02-.08-.06-.15-.07-.24.02Zm-67.48-48.51c-.11-.08-.19-.12-.24.02.07.07.14.06.24-.02Zm14.74-27.67c-.06.04-.06.08,0,.12.06-.04.06-.08,0-.12Zm12.09-11.07c.06-.04.06-.08,0-.12-.06.04-.06.08,0,.12Zm-35.29,22.02c-.06.04-.06.08,0,.12.06-.04.06-.08,0-.12Zm.19,18.97c.04.06.08.06.12,0-.04-.06-.08-.06-.12,0Zm68.67-27.92c.06-.04.06-.08,0-.12-.06.04-.06.08,0,.12Zm3.27,72.95c.04.06.08.06.12,0-.04-.06-.08-.06-.12,0ZM58.67,40.8c.06-.04.06-.08,0-.12-.06.04-.06.08,0,.12Zm47.01-.5c-.06.04-.06.08,0,.12.06-.04.06-.08,0-.12Zm-3.95,74.5c-.06.04-.06.08,0,.12.06-.04.06-.08,0-.12Zm-62.07-52.99c-.06.04-.06.08,0,.12.06-.04.06-.08,0-.12Zm49.11,49.25c.06-.04.06-.08,0-.12-.06.04-.06.08,0,.12Z"/>
  <path class="cls-1" d="m34.93,120.4c-.17-.02-.21-.2-.34-.25-.09.02-.21-.04-.28.06-.05.16.11.2.16.31h.36c.32.21.4.62.67.78.13.32-.1.53-.11.79,0,.06-.1.12-.16.18-.36-.41-.29-1.04-.75-1.38h-.48c-.18-.2-.49-.17-.62-.37-.12-.14.02-.33-.17-.42.07-.19.3-.25.36-.45-.3-.47-.48-.77-.22-1.22.36-.16.72-.27,1.16-.3.07.1.16.22.24.33.18.28-.15.53-.05.84.17.24.33.47.48.68.04.24-.07.35-.23.41Z"/>
  <path class="cls-1" d="m90.62,124.01c.2.16.25.29.15.5-.72,0-1.45,0-2.18,0-.25,0-.47-.14-.67-.22-.12-.16-.05-.31-.06-.4.12-.14.22-.27.32-.39.17.09.3.16.43.23.21.1.41.22.66.17.46-.09.9.16,1.34.13Z"/>
  <path class="cls-1" d="m28.5,30.85c.06.19-.18.31-.1.58.2.19.4.49.79.55.19.28-.12.52-.07.79-.27.15.05.56-.37.68-.25,0-.25,0-.48-.16v-.74c.08-.15.16-.32.25-.49-.18-.16-.34-.31-.5-.46v-.46c.13-.08.19-.35.48-.3Z"/>
  <path class="cls-1" d="m27.38,35.77c-.05.05-.11.11-.16.17-.33.09-.61-.1-.93-.15v-.77c.11-.1.19-.31.43-.32.14-.21.15-.53.42-.63.18.06.14.18.12.26-.09.49.18.94.12,1.43Z"/>
  <path class="cls-1" d="m122.85,62.59c.31-.11.27-.42.48-.52.1.1.2.21.3.32v.4c-.13.17-.23.3-.3.4-.21-.01-.26-.18-.39-.26-.3.05-.63-.09-.91.13-.13-.02-.16-.13-.25-.19v-.66c.09-.14.15-.22.22-.32.29.25.62.39.84.69Z"/>
  <path class="cls-1" d="m25.78,34.23c.02-.36.04-.63.1-.91.07-.29.09-.62-.08-.95-.1-.2-.08-.52.3-.79.21-.01.62.07.94-.16.11.11.16.17.23.23-.06.05-.12.11-.22.19h-.64v1.04c-.09.09-.17.17-.25.25v.72c-.1.14-.21.26-.39.37Z"/>
  <path class="cls-1" d="m123.13,42.13c.2-.26.49-.27.75-.33.11-.03.13,0,.36.17q.04,1.14-.14,1.43c-.55-.22-.86-.63-.97-1.26Z"/>
  <path class="cls-1" d="m113.87,118.33c-.25-.12-.46-.22-.66-.32-.38-.59-.3-1.25-.3-1.91.34.21.47.34.69.97.13.39.31.78.27,1.26Z"/>
  <path class="cls-1" d="m33.13,31.46c-.12-.13-.25-.29-.44-.5-.08-.27.08-.61.15-.95.13-.07.27-.02.4-.03.19.09.16.32.31.43v.86c-.1.14-.22.24-.43.19Z"/>
  <path class="cls-1" d="m65.39,123.32c0-.12.01-.2.02-.29h1.09c.03.24-.23.44-.11.67.11.2.25.39.41.61-.18.09-.31.12-.44-.02-.15-.17-.36-.26-.48-.47-.11-.19-.31-.33-.48-.5Z"/>
  <path class="cls-1" d="m35.26,123.69c-.33-.43-.74-.68-1.08-.96v-.32h.7c.1.06.17.2.22.35.07-.07.15-.15.24-.24.1.08.2.14.2.3,0,.31-.16.55-.28.86Z"/>
  <path class="cls-1" d="m31.71,118.68c-.18-.1-.3-.22-.24-.4.06-.15-.21-.24-.04-.41.15-.15-.2-.25-.06-.44h.78c.14.12.26.25.11.48-.17.25-.23.58-.56.76Z"/>
  <path class="cls-1" d="m123.26,43.6c-.21.23-.43.47-.83.42v-.57c.08-.08.18-.18.29-.29h.37c.13.1.24.22.18.44Z"/>
  <path class="cls-1" d="m30.8,28.97c.12.25-.05.38-.08.55-.03.19.22.3.12.5.11.19.35.27.39.53-.48,0-.61-.53-1.03-.64.07-.39.31-.67.6-.94Z"/>
  <path class="cls-1" d="m33.21,123.03c-.32-.02-.39-.24-.53-.34.06-.26.22-.31.44-.29.08-.2.2-.37.41-.5h.23c.08.15.06.31.03.46-.18.09-.43-.07-.57.23v.44Z"/>
  <path class="cls-1" d="m116.01,113.72c.08-.08.18-.19.28-.29.12,0,.24,0,.3,0,.12.09.19.15.26.19-.06.31-.25.51-.49.71-.19-.15-.23-.38-.36-.62Z"/>
  <path class="cls-1" d="m35.79,33.09c-.13,0-.16-.12-.24-.17-.04-.3-.04-.59.2-.83.31.03.26.35.42.51-.14.17-.13.43-.38.5Z"/>
  <path class="cls-1" d="m115.92,112.45c.25.19.2.39.17.6-.37.07-.65-.05-.88-.35.23-.2.45-.29.71-.24Z"/>
  <path class="cls-1" d="m27.62,115.01c-.16.03-.04.29-.28.31-.1-.19-.2-.38-.31-.59v-.64c.27.02.24.28.34.42.09.13.14.31.25.5Z"/>
  <path class="cls-1" d="m124.52,46.65c.35-.03.3.3.45.42v.89c-.33-.44-.51-.83-.45-1.31Z"/>
  <path class="cls-1" d="m120.15,113.09c.07.08.12.14.16.18,0,.2-.15.27-.63.3-.01-.02-.06-.12-.12-.2-.05-.05-.14-.06-.21-.09-.03-.1.09-.11.12-.19h.68Z"/>
  <path class="cls-1" d="m115.48,115.98c.19-.1.38-.03.55-.06.17.11.26.25.18.46-.12.11-.34-.07-.4.18-.2-.17-.28-.36-.34-.58Z"/>
  <path class="cls-1" d="m77.82,26.46c-.3-.02-.39.2-.57.3-.22-.07-.29-.46-.61-.22v-.3c.38.02.75-.06,1.18.22Z"/>
  <path class="cls-1" d="m122.27,64.3h-.44s.04-.04.06-.07c-.09-.05-.18-.09-.25-.13.07-.25.22-.34.41-.29.2.05.25.23.21.48Z"/>
  <path class="cls-1" d="m28.5,30.85c-.05-.27.13-.48.16-.73.22.1.22.34.34.5q-.21.21-.5.23Z"/>
  <path class="cls-1" d="m122.9,61.26c-.1.1-.2.2-.3.3-.1,0-.2.04-.29-.03q0-.3.29-.58c.1.1.2.2.3.3Z"/>
  <path class="cls-1" d="m124.13,61.34c.22-.04.26.07.35.13-.08.32-.27.61-.26.96-.11-.37-.06-.73-.08-1.09Z"/>
  <path class="cls-1" d="m115.4,34.63c-.07.24-.23.34-.35.45-.16.01-.21-.12-.3-.21.1-.35.34-.32.65-.24Z"/>
  <path class="cls-1" d="m124.74,52.79v.69c-.26-.08-.22-.35-.36-.49.06-.12.12-.24.19-.37.06.06.12.11.18.17Z"/>
  <path class="cls-1" d="m124.99,48.8c.03.19-.17.28-.17.44-.18.04-.32,0-.42-.16.01-.03.04-.08.05-.08.23.07.28-.4.55-.21Z"/>
  <path class="cls-1" d="m70.08,27.47c.34-.12.18-.35.31-.48.29.03.34.21.29.48h-.6Z"/>
  <path class="cls-1" d="m29.86,117.47c.14-.1.28-.03.43-.05.1.1.19.21.3.31-.02.05-.08.07-.14.06-.23-.04-.44-.11-.58-.32Z"/>
  <path class="cls-1" d="m113.12,29.51c.32-.07.49,0,.54.28-.16.1-.31.06-.46.05-.1-.09,0-.2-.08-.32Z"/>
  <path class="cls-1" d="m87.08,123.91c.03.08.04.13-.01.21h-.55c-.03-.08-.04-.13.01-.21h.55Z"/>
  <path class="cls-1" d="m98.03,119.28h.25c.12.09.05.22.05.33-.08.09-.2,0-.28.05-.11-.14-.11-.26-.01-.39Z"/>
  <path class="cls-1" d="m32.1,119.23c-.07.18-.14.31-.33.31-.1-.15-.05-.3-.04-.49.13.06.25.12.38.18Z"/>
  <path class="cls-1" d="m29.43,33.46c.06.1.18.13.18.25,0,.12-.07.12-.15.13-.05,0-.09.06-.14.09-.21-.19-.05-.31.11-.47Z"/>
  <path class="cls-1" d="m115.22,111.9c.07-.21.14-.33.33-.33q.07.37-.33.33Z"/>
  <path class="cls-1" d="m67.99,123.79c0,.27-.22.36-.33.48-.12-.01-.17-.04-.16-.11-.03-.22.19-.1.25-.2.04-.07.09-.17.24-.17Z"/>
  <path class="cls-1" d="m123.08,81.1h.14c.08.16.07.33,0,.5-.18-.14-.29-.29-.15-.5Z"/>
  <path class="cls-1" d="m36.47,31.35h-.14c-.08-.16-.07-.33,0-.5.18.14.29.29.15.5Z"/>
  <path class="cls-1" d="m98.6,121.49c.1-.23.26-.27.48-.18,0,.07,0,.12,0,.18-.16.04-.31.05-.47,0Z"/>
  <path class="cls-1" d="m116.99,113.16v-.19c.21-.08.37-.04.47.18-.16.05-.31.05-.47,0Z"/>
  <path class="cls-1" d="m95.64,25.49h-.32c-.08-.05-.05-.12-.06-.18.1-.11.22-.06.33-.04.07.04.04.11.05.22Z"/>
  <path class="cls-1" d="m26.29,110.16v-.28c.12-.07.23-.07.38.01-.17.06-.32.13-.38.27Z"/>
  <path class="cls-1" d="m30.86,122.47c.07-.11.14-.22.3-.2.07.06.08.13.04.21-.11.06-.22.06-.34,0Z"/>
  <path class="cls-1" d="m31.91,32.37c-.09-.18-.16-.32-.24-.48q.26.12.24.48Z"/>
  <path class="cls-1" d="m75.92,123.87h-.47c-.06-.04-.05-.1,0-.09.15.01.34-.1.47.09Z"/>
  <path class="cls-1" d="m124.68,55.96c.08.08.14.14.2.2-.06.05-.12.1-.2.18-.07-.11-.07-.22,0-.38Z"/>
  <path class="cls-1" d="m32.58,33.27c-.09.09-.16.08-.24.02.05-.14.13-.1.24-.02Z"/>
  <path class="cls-1" d="m97.91,121.77c-.06-.04-.06-.08,0-.12.06.04.06.08,0,.12Z"/>
  <path class="cls-1" d="m29.73,116.05c.06-.01.1.02.11.07,0,0-.03.04-.04.04-.06-.01-.08-.05-.07-.11Z"/>
  <path class="cls-1" d="m71.07,27.8c.04-.06.08-.06.12,0-.04.06-.08.06-.12,0Z"/>
  <path class="cls-1" d="m33.19,123.01c.06-.01.1.02.11.07,0,0-.03.04-.04.04-.06-.01-.08-.05-.07-.11Z"/>
  <path class="cls-1" d="m77.74,26.37c-.01-.06.02-.1.07-.11,0,0,.04.03.04.04-.01.06-.05.08-.11.07Z"/>
  <path class="cls-1" d="m87.24,74.45l.17.17c.27-.1.11-.46.36-.59.16.18.31.35.42.47h.35c.15-.34.4-.65.28-1.07-.11-.08-.23-.08-.36.03-.16.14-.36-.01-.48.05-.15-.12-.28-.22-.42-.34.39-.44.94-.47,1.41-.71v-.74c.17-.3.43-.16.67-.22.18.29.54.34.82.55-.05.51.08.91.57,1.13.27.57.13,1.18.17,1.74-.07.11-.14.06-.19.09-.07.04-.12.11-.18.17.23.33.55.57.79.9.22.31.21.53.06.81-.04.07-.09.13-.14.19-.5-.25-.91.24-1.37.15-.15.05-.18.24-.34.25-.23.01-.39-.15-.61-.27-.24.19-.62.14-.85.43-.14.31.14.56.11.87-.04.29-.06.61.12.87-.08.08-.14.15-.2.22-.19,0-.24-.17-.36-.24-.19,0-.41-.07-.54.18-.03.19-.06.39.17.55h.48c.73.53,1.47.97,2.28,1.24v1.61h-.4c-.57-.31-.44-.9-.45-1.4-.07-.08-.13-.14-.18-.2-.18-.04-.32.02-.41.14-.34-.12-.37-.46-.58-.64h-.37c-.06.04-.07.09-.07.16,0,.17.02.33-.15.44-.17.09-.42-.07-.57.23v.6c-.25.13-.46.28-.75.15,0-.13-.01-.27-.02-.41-.09-.05-.12-.18-.24-.18-.13.04-.21.12-.24.24.51.77.67,1.63.61,2.57.25.04.48.13.61.39-.45.28-.85.63-1.09,1.1-.12.09-.22.05-.32.05-.29-.25-.33-.58-.3-.93l.2-.2h.63c.01-.06.02-.1.04-.19-.38-.04-.69-.22-.96-.59-.05.08-.14.15-.14.21.02.45-.13.87-.16,1.31-.02.22.22.35.12.6-.32.1-.72.07-.97.36-.02.34.34.26.44.44.12.16.02.32.07.49h-.78c.07.22.08.41.31.51.09.04.14.18.23.2.42.11.63.4.77.78.02.05.08.09.16.17.05-.59-.07-1.19.38-1.67.19.08.29.27.45.39.21.09.35-.19.63-.1.15.14.32.37.72.47h.37c.03-.2.2-.32.37-.5-.26-.16-.29-.44-.57-.58-.29-.15-.33-.52-.5-.78.11-.3.41-.37.6-.51.1-.31-.14-.46-.2-.7.1-.33.56,0,.7-.36,0-.14.08-.33-.12-.49.11-.09.22-.18.35-.28.08.11,0,.27.04.41.24.21.33.55.61.72v.39c-.17.09-.33.17-.54.27.22.33.51.56.88.84-.31.06-.51.21-.81.2-.02.25-.08.5.1.73-.15.47-.56.72-.87,1.07,0,.08,0,.16,0,.24-.12.06-.24.12-.39.2-.28-.16-.42-.53-.77-.63h-.54q0,.31.71,1.07c-.09.43-.51.53-.73.8-.11-.03-.15-.07-.14-.14.01-.1-.04-.22.11-.27-.09-.16-.1-.34-.32-.46-.14.03-.29-.11-.45-.15-.11.09-.06.18-.08.25-.02.08.05.1.08.15.06.1.17.09.27.13v.67c-.24.27-.24.7-.55.92-.26-.03-.32-.32-.57-.39-.22.24-.54.34-.83.52-.21-.06-.29-.27-.46-.38-.04,0-.1,0-.12.01-.06.07-.18.11-.18.22.04.31.42.23.51.52-.24.38-.5.79-.63,1.24h-.42c-.09-.04-.05-.15-.09-.21-.26-.37-.34-.78-.36-1.22-.01-.32-.05-.67-.3-.96-.16.54-.56.85-.92,1.19-.18.17-.43.27-.71.18-.05-.36-.49-.46-.56-.83h-.34c-.16.16-.31.31-.49.49,0,.04,0,.12,0,.2.14.09.29.03.4.04.32.2.44.64.9.64.35.29.59.66.7,1.18-.09.06-.19.12-.24.15-.08.39.07.73-.17,1.04.19.11.09.36.24.53-.11.39-.47.6-.71.89v.35c-.08.14-.31.22-.28.43-.23.06-.35-.03-.46-.17.08-.09.16-.17.24-.27-.26-.05-.5-.27-.74-.16-.24.11-.46.09-.69.11-.25.33-.25.4,0,.75h.52c.05.12.06.18-.08.25-.5.24-.49.24-1.08.23-.09-.14,0-.38-.22-.47-.02.01-.05.03-.08.05-.19.13-.26.34-.36.53-.13.26-.33.44-.58.58-.13.26-.27.53-.44.85-.13-.24-.23-.43-.34-.64-.36.09-.68.31-1.09.19-.12-.27-.42-.47-.41-.86,0-.16-.16-.34-.24-.48.03-.39.3-.59.49-.79v-.27s-.08-.05-.11-.05c-.37,0-.76.07-1.1-.02-.28-.08-.54-.09-.81-.1-.43.39-1.05.36-1.53.62-.07.71.54,1.05.73,1.61-.09.23-.18.48-.28.74h-.77c-.1-.17-.31-.24-.52-.36h-1.3c-.22-.16-.35-.25-.5-.36.2-.3.48-.37.8-.43-.09-.27-.31-.56.05-.83h.47c.24-.21.54-.23.72-.46.15-.19.43-.26.48-.52.23-.04.43-.05.59.11.16-.11.37-.13.49-.3.08-.27-.15-.43-.2-.61-.3-.24-.52.05-.79.04-.15-.03-.25-.19-.34-.31-.07-.1.02-.3-.14-.37-.21-.09-.06-.31-.19-.45-.1.15-.05.31-.06.46-.01.14,0,.29,0,.45-.25.35-.39.74-.12,1.21-.33-.34-.53-.78-1.12-.74,0,.22-.04.45,0,.66.05.25-.22.4-.13.65-.25.1-.43.04-.65-.14-.23-.19-.52-.31-.74-.51.06-.23.31-.16.37-.37v-.46s-.02-.04-.04-.07c-.24-.38-.68-.32-1.02-.47-.03-.01-.07.1-.14.09-.27-.05-.43-.32-.7-.39,0,.33.08.41.64.76.13-.15.32-.19.57-.29-.08.42.11.79-.14,1.12.06.41-.09.79-.12,1.19.23.25.07.54.14.8-.25.1-.37-.04-.38-.2,0-.17-.07-.27-.18-.36-.18,0-.36,0-.51,0-.22.13-.18.53-.6.45.24-.39.47-.73.42-1.16.13-.07.28-.09.38-.27-.13-.2-.16-.45-.12-.72-.15-.14-.3-.28-.46-.43-.11,0-.25-.04-.41.04-.01.31.14.59.28.87-.1.22-.2.43-.33.69-.04.04-.2,0-.26.13-.42,0-.84.05-1.25-.17-.12-.12-.27-.26-.42-.39q.18-.97.7-1.33c.08-.11.02-.24.04-.35.02-.12-.17-.13-.07-.4,0,.01.1-.09.06-.29-.36-.28-.4-.79-.63-1.19h-1.06c-.04-.12-.06-.2.09-.24.23-.06.31-.31.49-.41v-.27c-.12-.06-.24-.12-.36-.18-.12.06-.24.11-.37.18.07.32-.21.59-.13.87-.14.22-.41.2-.49.42-.04.15.28.23.11.41.17.16.32.3.52.48.46.02.83.15,1.22.44-.36.32-.39.33-.94.3-.24-.12-.08-.49-.35-.58-.18.28.07.62-.16.92-.24.31-.42.66-.7.93-.13,0-.25.02-.35-.1-.1-.11-.19-.24-.37-.29-.35-.1-.58-.38-.7-.76.21-.22.34-.5.48-.78.1-.13.24-.03.39-.1.24-.42.45-.89.76-1.31-.13-.17-.13-.41-.33-.51-.12.09-.22.21-.17.42-.47.33-.54.92-.88,1.4-.29,0-.53.15-.73.45-.2-.2-.2-.49-.43-.66h-.58c-.43-.31-.62-.78-1.07-1.02.29-.48.33-1.05.63-1.51-.25-.26-.42.08-.62.03-.2,0-.23-.22-.4-.28,0-.11.03-.23,0-.31-.18-.39-.25-.81-.36-1.22-.07-.26-.21-.32-.43-.3-.28.28-.6.53-.7.95-.13.09-.27.02-.42.05-.14-.15-.28-.29-.43-.45,0-.13.02-.28-.14-.38.2-.29.12-.62.14-.97.12-.1.26-.21.37-.3v-.35c-.3-.11-.63,0-.96-.07v-1.21c.18.07.29.35.54.23.11-.06.04-.17.07-.29-.13-.11-.27-.23-.37-.32v-.48c.14-.41.38-.62.78-.64.33.22.28.65.47.95.24.36.01.76.14,1.15.3.31.62.63.95.96v.5c.15.14.3.28.45.42h.54v-.8c.22-.09.42-.17.6-.33v-.99c-.65.2-.52.83-.76,1.25h-.38c-.27-.12-.3-.48-.56-.66v-.77c.19-.1.18-.37.3-.52.2-.26-.07-.4-.07-.6-.14-.07-.31-.09-.37-.29h-.53c-.16-.17-.36-.19-.54-.29-.16-.27.11-.48.09-.74-.35-.38-.46-.44-.89-.47-.26-.11-.3-.41-.51-.61h-1.22c-.16-.11-.3-.19-.42-.29-.07-.06-.18-.11-.17-.24.04-.22.22-.02.25-.08.24-.14.27-.35.38-.52-.06-.22-.31-.3-.39-.5.23-.29.53-.26.82-.25.29-.23.38-.62.68-.8.05-.37-.22-.57-.42-.65-.35-.15-.59-.39-.85-.63-.03-.03-.11-.02-.21-.03.02.32.21.51.38.72-.02.19-.2.25-.29.38-.14.03-.31.07-.41,0-.11-.09-.21-.1-.36-.09-.08-.1-.17-.21-.3-.37,0-.2.02-.48-.13-.69.06-.37.32-.31.53-.31.14-.15.28-.3.46-.5v-.3c-.09-.1-.2-.22-.26-.28-.35-.15-.42.23-.63.23-.14-.08-.08-.2-.1-.32.21-.21.45-.42.51-.76.18-.1.37-.2.6-.19v-.43c-.21-.29-.63-.16-.83-.5v-.51s.04-.03.08,0c.24.16.49.31.73.47.27-.11.54-.22.85-.26.19-.2.4-.43.66-.7.09-.18-.05-.39-.15-.62-.54-.1-1.04-.29-1.39-.81-.2.11-.41.16-.56.34v.38c.11.11.23.22.36.35v.4c-.1.18-.26.21-.45.17-.29-.87-.09-1.77-.17-2.65.07-.07.13-.12.2-.19h.96c.25-.17.27-.38.15-.63-.14-.28-.28-.56-.43-.87.29,0,.44.25.68.25.16-.28-.02-.59.12-.89.12-.24.3-.45.32-.74,0-.14.12-.29.22-.4.26-.27.32-.63.37-.96.03-.2.23-.35.14-.56.25-.25.5-.5.74-.75.08-.11.2-.03.39-.12.04-.03.11-.17.16-.32.17-.47.55-.75.92-1.03.14-.11.3-.18.42-.31.12-.14.25-.27.37-.4.26.05.51-.06.77.13.12-.15.25-.26.31-.5.12-.42.34-.84.83-.98.21-.06.29-.27.46-.37.29-.06.4.12.46.36.27.05.48-.05.64-.23.29-.34.64-.61,1.06-.73.18-.05.04-.31.25-.26.14.03.23-.04.32-.13.16,0,.25.19.44.14.15-.04.33-.03.44.17.02.1-.14.1-.14.19h-.39c-.06.06-.11.12-.18.18v.31c.19.17.35.32.55.5.17-.07-.04-.41.21-.5.16,0,.36-.06.47.01.26.19.47.06.7-.04.03-.17.23-.29.1-.6-.2-.21-.56-.32-.93-.42v-.27c.2-.1.41-.21.62-.32.3.15.41.45.54.75.34.06.53-.22.75-.38.24-.18.48-.26.76-.23.18.25.48.39.57.71.08.28.14.57.23.84.1.3.1.59.11.87.09.11.2.04.3.07.33-.48.13-1.02.2-1.52-.17-.28-.44-.4-.72-.51-.06-.09-.03-.19-.02-.29.14-.14.21,0,.25.03.09-.05.19-.1.23-.12.02-.2-.1-.23-.17-.33h-.78c-.01-.14.1-.17.15-.26.3.06.64-.12.89.14.48-.16.83-.57,1.36-.5-.07.41-.45.65-.48,1.02.09.14.2.07.3.09.42-.25.43-.78.77-1.13.3.08.61-.06.89-.17.19-.08.34-.08.51-.03.23.07.75.11.97.09.16-.01.33,0,.49,0,.46,0,.92.06,1.4-.2v-.56c.26.18.34.35.12.58.76.21,1.51.41,2.32.28.23-.28.33-.68.76-.83.29.57.59,1.15,1.06,1.6.03.03.12,0,.21,0,.14-.05.2-.23.34-.3.23-.13.46-.31.76-.12.15.09.34.12.5-.03.09-.08.2-.02.31-.05.3.48.82.64,1.31.89.25-.04.46-.17.64-.38.26,0,.52.01.79,0,.3-.02.54.09.74.3.51.54,1.15.85,1.84,1.07.25.08.44.24.59.39.23-.02.27-.33.5-.24q-.03.3-.39.36c-.11.22-.22.44-.33.65.16.22.25.01.36-.03.3.05.48.33.76.42,0,.06.03.14,0,.18-.22.32-.36.68-.49,1.04-.1.27-.39.32-.6.52-.09.47.34.52.58.71.45-.09.12-.6.46-.74.16,0,.34-.08.48.1.08-.08.21-.12.19-.27-.01-.15-.31-.03-.24-.27.08-.15.21-.05.33-.07.02.07.05.14.08.23h.51c.12-.05,0-.18.16-.23h.45c.2.21.58.29.57.73-.34.05-.37-.4-.67-.36-.04.04-.09.08-.16.15.11.17.05.42.29.59h.36c.19.24.18.5.19.76.01.34.09.67.37.92-.03.36.08.75-.13,1.11-.07.13-.32,0-.33.25-.14.39.22.71.21,1.11-.17.08-.3.21-.52.21-.47.02-.89.15-1.08.77,0,.15-.08.42.17.64-.39.47-.3,1-.3,1.52Zm-2.59,2.56c.35-.43.72-.84.95-1.32-.16-.29-.36-.54-.45-.82-.1-.32-.3-.48-.57-.64-.09.36-.27.65-.08,1.04.12.23.05.57.01.85-.04.31.26.56.12.9q-.11.14,0,.35c0-.14,0-.25.02-.35Zm-20.98,7.35c.23.42.39.86.77,1,.28.44.21.87.22,1.29,0,.06,0,.13,0,.19,0,.04.03.07.05.11.1-.14.24-.13.26-.13.2-.14.33-.23.43-.3.03-.44-.27-.79-.06-1.2.26.11.47-.14.72-.11.32.2.4.53.44.87.03.25.11.54.31.59.2.05.38.24.62.16,0,0,.04.06.06.09.02.13-.1.17-.16.25-.18.09-.4-.04-.58.08,0,.37-.07.74.17,1.06.15,0,.31.06.46-.06.12-.1.24-.04.38.01.18.07.28.22.44.31h.59c.12.12.24.24.36.36.22-.17.47-.26.76-.25.49.02.99.04,1.48,0,.31-.03.56.24.87.12.07-.32.34-.38.59-.49.49-.21,1.02-.33,1.45-.68.23-.19.53-.3.81-.34.15-.34.39-.54.66-.71.47-.3.74-.81,1.18-1.15.12-.09.26-.19.3-.37.03-.14.18-.18.3-.25.28-.16.58-.22.87-.25.42-.33.59-.77.68-1.28.04-.23.14-.47.27-.7.16-.27.44-.45.55-.76.05-.13-.03-.27.12-.39.25-.2.34-.52.43-.81.1-.3.3-.53.38-.84.06-.22.14-.48.36-.66.14-.11.25-.3.22-.55-.14-.32-.6-.35-.76-.73.14-.23.4-.29.62-.4.02-.07,0-.15.08-.21.22-.19.32-.48.29-.74-.03-.22-.2-.41-.44-.56-.34-.22-.66-.53-.76-.88.06-.31.31-.48.2-.78h-.62c-.35.17-.16.46-.22.66-.11.12-.21.23-.3.33-.29.15-.69,0-.92.31.06.06.12.12.2.2h.78v.32c-.2.03-.36.16-.42.31-.1.25-.25.5-.18.78-.11.11-.21.22-.31.32-.24-.11-.42.28-.69.05.12-.31.37-.61.24-1-.09-.09-.19-.19-.28-.29-.1-.02-.21.04-.3-.05v-.4c.15-.11.34.03.47-.09.09-.36-.26-.69-.07-1.05.16-.2.42-.19.63-.25.25-.07.33-.19.31-.48.12-.09.26-.2.35-.28-.05-.29-.22-.41-.43-.49-.13.06-.14.25-.24.36-.14-.03-.29.06-.43-.08v-.8c-.18.2-.35.37-.43.47-.31.09-.43-.02-.53-.15-.24-.3-.59-.43-.92-.57-.07.11-.19.14-.19.28.15.39.62.38.86.66v.63c.14.13.26.29.47.36.09.03.22.13.12.3-.22.09-.43.03-.6-.1-.19-.14-.39-.25-.61-.32-.04-.01-.06-.05-.09,0-.06.08-.17.12-.15.25.06.17.24.19.37.27,0,.23-.08.5.02.67.24.45.24.97.46,1.43.04.08.03.15-.09.22-.36-.23-.63-.63-1.07-.77-.28-.41-.74-.58-1.16-.74v-.44c-.27-.15-.33-.48-.56-.67h-.49c-.11.15-.34.13-.43.31.01.06.16.07.05.2-.29-.01-.61.02-.89-.06-.27-.08-.49-.3-.82-.34-.13.13-.27.27-.38.39-.38,0-.71-.02-1.03,0-.15.01-.32.08-.43.14-.16.08-.3.1-.45.1-.39,0-.72-.2-1.08-.36-.03.55-.34.95-.64,1.35-.31.41-.52.93-1.15,1.12.15-.31.27-.57.4-.84v-.69c-.27-.23-.53-.24-.86-.18.06.21.03.41.08.64.06.29.36.61.06.94-.05.05.04.19.06.27.08.37.11.74-.02,1.13-.18.54-.33,1.09-.3,1.68.04.65-.24,1.21-.62,1.73-.08.11-.17.24-.25.32-.22.21-.17.54-.41.71-.26.18-.24.54-.48.73-.1.08-.25-.04-.33.09v.58Zm23.82-8.17c.14.14.25.26.35.38,0,0-.03.03-.04.04-.23.08-.26-.24-.5-.24-.24.29-.59.49-.95.72.14.26.07.63.41.8.37-.21.16-.66.44-.9.3-.09.49.3.86.24.12-.15.3-.29.51-.26.15-.46.48-.76.68-1.14-.08-.28-.43-.44-.27-.74-.12-.13-.21-.24-.31-.34-.2.2-.37.42-.58.57-.16.12-.39.14-.59.21v.65Zm-33.43,1.76c-.14.27-.18.46-.04.75.13.27.32.43.54.49.31.09.53.23.64.53,0,.02.1,0,.16,0,.07-.14.03-.29.03-.43-.23-.2-.36-.46-.39-.76-.32-.32-.64-.64-.89-.9-.17-.47-.41-.79-.59-1.11h-.56c-.14.36-.27.7-.41,1.04.24.14.52-.03.74.11,0,.33-.29.48-.39.71.11.18.23.27.47.22.08-.08.18-.2.29-.32.04-.16-.19-.22-.13-.39.02-.05.01-.12.07-.15h.24c.06.06.12.12.2.2Zm5.72,12.36q-.43.57-1.21.87c-.3-.18-.69-.18-.87-.48-.25-.04-.47.05-.64-.11-.06.03-.1.08-.16.09-.06,0-.11.02-.14.07v.35c.11.12.21.22.3.32.24,0,.5.08.68-.02.3-.17.51-.06.74.07.02.2.02.4-.11.57-.01.01.03.07.04.11h.31c.23-.49.83-.51,1.14-.95-.13-.25.18-.46.1-.73-.06-.06-.12-.12-.17-.17Zm22.75-18.23c.48.35.85.92,1.59.82.29.37.19.88.49,1.28.16-.23.5-.08.64-.36-.02-.48-.12-.72-.46-1.07h-.51c-.18-.29-.31-.64-.72-.63-.04,0-.12-.08-.12-.13,0-.25-.26-.19-.35-.33-.07.13-.2.1-.32.12-.12.02-.2.11-.24.3Zm-13.62-6.15c.1,0,.16.02.18,0,.29-.27.58-.55.87-.83,0-.39.04-.79,0-1.17-.05-.41.22-.77.12-1.18-.16,0-.24-.2-.42-.17-.05.06-.11.12-.08.08-.23.37.07.58.02.83-.14.25-.43.25-.62.41.06.23.17.44.36.6.04.24-.07.52.17.72-.08.09-.14.15-.2.21-.27.07-.56-.05-.84.07.16.16.3.31.44.45Zm-5.72,11.54c-.34.15-.35.48-.37.71-.05.63-.02,1.27-.02,1.87.11.09.16.21.3.18.1-.1.22-.21.35-.35-.16-.39.13-.73.11-1.12.12-.11.24-.23.35-.34v-.36c-.19-.29-.52-.37-.72-.6Zm27.76-3.79c-.16-.37-.38-.28-.59-.29-.12.18-.3.31-.43.5-.17.24-.04.52-.16.77-.24-.08-.49-.33-.67.05.13.19.43.19.53.43.14,0,.26.01.38,0,.2-.02.42-.1.5-.27.18-.42.56-.78.45-1.18Zm-17.29-11.04c.23-.25.44-.47.64-.67-.15-.31-.42-.4-.67-.52-.44.33-.66.81-.92,1.27-.08.15-.04.31-.02.43.27.17.54.22.81.15q.15-.25.16-.65Zm-3.71,11.87c.56-.24.51-.8.74-1.19.05-.09,0-.24,0-.36,0-.02-.03-.03-.05-.05h-.24c-.29.23-.54.51-.72.85h-.33c-.05-.16.04-.33-.05-.47-.3-.1-.41.14-.56.28.16.48.68.56.89.94h.32Zm13.3,9.82c-.34-.45-.19-.99-.48-1.33h-.59v.27c-.19.23-.44.4-.57.69-.11.24-.05.37.14.44.45-.08.92-.04,1.5-.07Zm.36-2.85h-.26s.05.05.07.07c-.14.08-.28.16-.36.21v.41c.13.17.26.22.4.14.27-.18.18-.47.2-.6.14-.26.29-.25.35-.25.17-.13.3-.23.43-.32-.1-.19-.18-.34-.3-.55v-.57c-.21-.26-.39-.22-.6.02-.06.45.25.9.08,1.43Zm-25.66-14.33c-.05-.34-.42-.47-.34-.82-.21,0-.32-.22-.57-.13-.2.05-.13.31-.2.47-.23-.02-.42.03-.46.31.1.1.21.22.31.31q.97.06,1.27-.15Zm-3,5.75c-.12,0-.24-.03-.33.1-.18.26-.2.58-.36.85.08.15.14.29.21.42.19,0,.31.22.4.18.24-.21.39-.35.53-.47v-.53c-.22-.1-.21-.38-.44-.54Zm9.7,2.15c-.22-.09-.38-.03-.49.16v.61c.1.13.22.2.25.4.1.6.43,1.06,1.05,1.29.08-.1.06-.22.04-.34-.46-.12-.52-.52-.6-.9-.03-.13.04-.27-.07-.4-.2-.22-.19-.51-.17-.81Zm-8,7.29c.21.14.29.37.52.4.05-.07.11-.13.16-.2-.28-.51-.52-1.08-1.17-1.34-.07.29-.12.57-.33.76-.13.12-.11.24-.04.39h.85Zm22.66,11.09c-.32-.16-.61-.3-.94-.25-.1-.32,0-.58.12-.86h-.33c-.22.21-.38.36-.55.51.05.09.11.21.17.33.18,0,.3.22.49.13.32.27.55.68,1.04.76v-.63Zm6.76-22.29c.21.17.09.5.36.63.16-.16.31-.34.48-.47.11-.09.27-.12.42-.18v-.34c-.17-.19-.3-.35-.44-.52-.45.1-.62.44-.82.88Zm-25.95,14.31c-.28.39-.18.77-.05,1.18.09.29.23.45.57.46.09-.1.2-.22.3-.32v-.5c-.27-.27-.53-.53-.81-.82Zm17.85,9.7c.33.19.62.36.95.56.09-.47-.15-.8-.26-1.15-.51-.08-.42-.6-.65-.87-.26.15-.24.43-.16.6.13.28.08.55.11.86Zm-13.52-8.19c-.81.41-.83.46-.76,1.25.4-.08.83.15,1.19-.18-.24-.33-.29-.72-.43-1.08Zm12.78,3.4c.32.05.33-.23.53-.32.18-.08.44-.26.29-.57-.27-.15-.38.12-.54.23-.45-.19-.88-.16-1,.03v.58c.15,0,.27,0,.39,0,.14,0,.29-.04.34.05Zm-12.03-10.15c-.53.35-1.15,1-1.29,1.34.08.09.25.08.28.04.23-.31.61-.23.9-.35.12-.05.2-.12.29-.2,0-.1.03-.22,0-.3-.09-.17-.11-.35-.17-.54Zm18.85-14.07c-.38-.3-.6-.78-1.1-.69-.19.34.16.41.2.62.02.2-.23.35-.1.58h.66c.19-.13.18-.34.34-.51Zm-23.56,7.66c-.21.31-.15.65-.32.95h.43c.21-.13.33-.29.37-.44.24-.15.52-.16.6-.45-.35-.37-.72-.16-1.08-.07Zm19.94,9.82c0-.22-.09-.51.02-.7.2-.36.03-.7.12-1.04-.09-.02-.13-.02-.17-.03-.31.31-.19.7-.24,1.05-.1.29-.58.34-.45.78.23.05.45.35.72-.06Zm-.91-18.42c.33-.11.61.07.9.23.39.21.78.42,1.24.45.04-.31-.27-.38-.41-.41-.52-.12-.92-.41-1.22-.75h-.71c0,.11-.02.2,0,.27.03.07.1.12.19.21Zm6.59,13.85c-.22-.24-.45-.45-.81-.44-.05.05-.1.12-.17.19v.64c.24-.01.3.25.54.3.09-.18.35-.13.44-.34v-.36Zm-12.59,13.01c0,.21,0,.38,0,.54.22.18.29.56.67.56.07-.13.26-.07.34-.26-.17-.14-.15-.36-.14-.49-.18-.2-.31-.36-.45-.51-.14.02-.22.18-.41.16Zm12.77-24.76c-.16.11-.22.25-.19.39.19.35.55.39.72.52.18-.16.35-.3.49-.42-.14-.15-.3-.3-.48-.49h-.53Zm-21.15,5.54c-.02.44.05.81-.13,1.14-.15.28-.14.57-.11.87.21.19.42.34.65.28.18-.31,0-.51-.1-.72-.19-.44-.33-.87-.07-1.32-.07-.07-.13-.13-.25-.25Zm17.4,16.91c.22.27.54.27.83.35.42.12.48.07.48-.41-.26-.06-.49-.19-.64-.37h-.5c-.18.11-.21.26-.17.43Zm-13.93-25.45c-.09-.64-.42-1.08-.81-1.53-.22.47.08.85.07,1.18.12.16.21.27.27.35h.47Zm10.11,25.75c.17,0,.3,0,.42,0,.24-.22.44-.45.44-.8-.14-.18-.34-.25-.53-.32-.12.11-.24.22-.33.29v.82Zm-21.38-20.65v-1.62c-.3.03-.57-.03-.84.04v.28c.2.21.41.41.62.63-.04.24.02.47.22.67Zm-3.53,3.64c.59-.19.44-.77.7-1.11.03-.04.1-.25-.16-.31-.14.28-.54.28-.65.53-.11.38.14.59.11.89Zm28.55,16.89c-.19-.04-.33.01-.43.16-.1.3.12.53.14.85.25-.13.44.25.72.05-.1-.36-.14-.73-.43-1.06Zm4.96-21.21c-.21.3,0,.41.09.58.11.17.2.37.19.57.29.1.55.19.92.32-.35-.63-.73-1.06-1.21-1.48Zm-33.12,14.98c.38.32.75.51,1.22.62-.14-.44-.42-.73-.45-1.11h-.22c-.19.16-.34.3-.56.49Zm31.51-6.34c-.22,0-.54-.05-.79.15l.57.58h.45c.14-.1.21-.22.16-.44-.08-.06-.21-.16-.39-.29Zm-10.68-4.05c.28-.32.37-.65.35-1.04h-.69c-.11.13.05.35-.14.42.08.24.22.42.48.62Zm.93,15.36c.11-.27.2-.53.39-.66v-.42c-.17-.03-.32-.05-.45,0-.28.26-.25.62-.42.88.13.16.25.26.47.2Zm-8.41-22.38c-.22,0-.42,0-.63,0-.14.18-.43.29-.26.61h.77c.09-.14.27-.2.3-.4-.05-.05-.1-.11-.18-.21Zm-.2,8.2v-.3c-.06-.06-.12-.11-.18-.17h-.39c-.19.18-.31.38-.3.64.06.1.12.21.3.22.06-.27.41,0,.56-.39Zm-7.16-8.82c.4-.01.78-.05,1.05.24.19-.15.22-.35.31-.52-.13-.09-.07-.31-.3-.37-.11.17-.3.27-.48.36-.18.1-.47-.08-.58.28Zm22.17,1.6c.09-.14.27-.2.3-.41-.1-.26-.16-.56-.32-.83-.14.14,0,.32-.09.46-.12.12-.23.23-.35.35.01.14-.04.28.04.43h.41Zm-2.12,24.51c.44-.05.81-.3.81-.56-.05-.06-.12-.13-.16-.17h-.53c-.09.14-.26.2-.3.36.06.13.12.25.18.37Zm.44-28.11c-.16-.59-.3-.72-.72-.7-.09.4.12.68.39.93.02.02.07.02.16.04.04-.06.09-.15.17-.27Zm1.37-.48c.29-.03.58.04.9-.06-.13-.27-.34-.4-.48-.57-.15.03-.3-.05-.42.05v.58Zm.59,12.48c-.26-.11-.46-.26-.7-.13-.05.22-.05.43.17.58.2,0,.4,0,.6,0,.03,0,.05-.05.08-.09,0-.14-.18-.21-.15-.36Zm-6.22-13.24c.16.03.18-.08.25-.1.2.22.44.08.66.11,0-.09,0-.13.01-.19-.39-.16-.77-.41-1.25-.25.04.25.24.33.32.44Zm3.22,2c.07-.13.13-.27.16-.33-.12-.18-.2-.32-.23-.35-.31-.15-.39,0-.49.13v.37c.19.06.33.23.55.17Zm2.11,20.39c-.28.11-.16.48-.36.64.35.3.44.3.65.04v-.49c-.08-.06-.12-.17-.29-.19Zm-26.25-12.13c.24.24.45.46.67.67.03.03.11,0,.21,0-.05-.16.05-.32-.07-.48-.07-.2-.28-.08-.41-.15-.06-.17-.11-.35-.33-.35-.12.08-.06.19-.08.31Zm.75-2.4c-.02.34.12.56.37.77.23-.16.29-.39.39-.58-.08-.08-.14-.14-.19-.19h-.57Zm27.99,18.25c-.14.13-.25.23-.34.31v.42c.24.05.45.07.6-.15,0-.22.06-.46-.26-.58Zm-31.65-14.93c.12.13.18.22.27.26.06.03.16,0,.25,0,.13-.19.37-.3.45-.58-.38-.1-.64.08-.97.32Zm10.47,7.41c-.06-.29-.21-.46-.18-.66-.2-.03-.25.1-.33.16v.54c.09.08.14.19.3.15.05-.05.12-.11.2-.19Zm17.49,3.72c-.32-.16-.66-.19-.87-.45-.06.06-.1.08-.11.11-.01.03,0,.08,0,.12.31.08.45.38.7.56.08-.03.19.04.28-.07v-.27Zm-13.18-15.26c.42-.26.51-.56.44-1.1-.1.38-.35.18-.44.31v.79Zm11.94,18.65c.27-.27.44-.49.35-.85-.14.06-.26-.02-.36.1-.12.14-.16.31-.24.46.07.08.14.15.25.28Zm-19.5,4.94c-.33,0-.43.26-.61.39,0,.12.01.2.02.28.62.14.39-.46.59-.68Zm12.11,1.16c0-.26-.22-.33-.33-.47-.16.04-.31-.06-.42.07,0,.09,0,.17,0,.25.22.11.43.27.75.15Zm9.64-14.26c.19-.23.32-.46.15-.77-.15.16-.27.29-.43.47-.01.12.05.27.28.31Zm-6.91,16.08v.55c.15.04.17.3.47.28.03-.33-.08-.58-.47-.83Zm-15.71-13.32c-.15-.01-.31-.06-.48.03v.26c.14.1.22.33.48.31v-.6Zm4.1-16.01c.21-.11.35-.18.53-.27-.11-.18-.21-.33-.3-.48-.03-.05-.06-.06-.09-.03-.04.04-.09.09-.14.14v.63Zm-.14-2.14c.16.17.3.32.43.47.06-.06.12-.12.18-.18q-.23-.38-.53-.57c-.13.05-.06.17-.09.28Zm23.01,3.68c-.33.13-.39.46-.52.74.18-.15.43-.15.6-.3-.03-.14.06-.29-.07-.44Zm-3.65,1.22v-.66c-.07-.06-.13-.05-.19-.03-.08.11-.03.23-.04.35-.01.14-.18.21-.13.38.02.06.03.11.09.13.13.03.17-.09.26-.16Zm-19.56,5.98c-.17.09-.3.16-.45.24.05.14.14.22.24.29.2.02.36-.03.41-.25,0-.12-.12-.16-.2-.28Zm-8.57,6.01c.03.25-.04.49.06.74.2-.17.27-.36.34-.56-.11-.08-.15-.22-.4-.18Zm9.77-16.07c-.06-.17-.26-.09-.32-.23-.16.14-.28.28-.13.48.26.07.38-.05.45-.24Zm2.33.75c.03-.27-.02-.45-.27-.49-.07-.01-.16-.02-.22.06.22.07.06.3.17.42h.32Zm18.9,5.11c-.09-.18-.2-.28-.39-.26-.07,0-.1.03-.13.12.07.12.14.26.21.38.18-.02.23-.13.31-.25Zm.5-1.98v.55c.1-.09.21-.19.34-.3-.03-.05.06-.16-.04-.25h-.3Zm-1.63,15.95c-.1-.05-.15-.21-.3-.16-.1.07-.05.18-.06.28.09.13.2.24.36.38v-.5Zm-8.81-10.62c-.25.03-.33.18-.31.41,0,.03.04.06.06.09.09-.02.2.04.29-.05.01-.15.06-.3-.04-.46Zm-22.84,4c-.11.1-.21.19-.18.36.01.07.04.11.15.14.1-.09.22-.21.35-.32-.18.03-.22-.14-.32-.18Zm5.66,5.48c0,.11-.24.11-.09.24.1.09.16.25.32.25.04-.02.07-.04.1-.07,0-.22-.21-.28-.34-.42Zm29.97-16.22c-.05-.13.08-.28-.11-.34-.15.05-.27.12-.27.34.11.05.22.05.39,0Zm-25.72,18.21c-.18-.08-.23.09-.33.17.11.07.15.26.33.16.05-.11.06-.22,0-.33Zm11.58,8.44c.07-.06.08-.13.03-.22-.14-.05-.29-.04-.47,0,.1.19.25.24.44.21Zm.84,1.06c-.26-.13-.33.04-.4.19-.01.02.02.07.04.12.19.03.27-.09.36-.31Zm3.69-8.38c.01.15-.14.37.17.36.07-.13.07-.24,0-.36h-.18Zm-1.81,6.95c.09-.13.09-.25,0-.37-.06,0-.13-.03-.17.05,0,.11-.07.23.05.33h.13Zm-16.96-28.28c.12.06.23.07.33,0,.04-.08.03-.15-.05-.21-.14,0-.23.08-.28.21Zm3.68,18.85c-.18-.05-.24,0-.23.17.05.05.12.12.23.22v-.39Zm17-15.08c-.17-.12-.21-.26-.4-.23-.05.06-.09.13,0,.23h.4Zm-21.54,12.78c.12-.17.26-.21.23-.4-.06-.05-.13-.09-.23,0v.41Zm2.04-18.13c.07-.12.07-.23,0-.34-.08-.04-.15-.03-.2.04-.02.16.09.23.2.3Zm23.25,13.78c-.01-.08.02-.15-.06-.2-.07-.03-.14-.03-.2.05-.01.16.05.22.25.15Zm-30.38-2.17c-.09.05-.17.09-.23.13.08.1.13.16.19.22.11-.1.06-.22.05-.34Zm19.7,20.36c-.09.08-.09.17,0,.25.05-.02.12.03.16-.06.03-.07.02-.14-.05-.2h-.12Zm9.94-21.75c.11-.02.16-.03.22-.04-.03-.12-.1-.17-.22-.24v.28Zm-17.59,4.22c.08-.11.11-.19-.02-.24-.06.08-.07.15.02.24Zm17.77,5.95c-.08.11-.12.19.02.24.07-.07.06-.14-.02-.24Zm5.68-11.94c-.08.11-.12.19.02.24.07-.07.06-.14-.02-.24Zm-4.69,6.1c-.09.08-.09.17,0,.25.09-.08.09-.17,0-.25Zm-19.25.75c.06-.04.06-.08,0-.12-.06.04-.06.08,0,.12Zm21.04-10.63c.04.06.08.06.12,0-.04-.06-.08-.06-.12,0Z"/>
  <path class="cls-1" d="m96.55,48.01c.17-.18.35-.35.54-.55,0-.12.01-.26.02-.4.08-.1.19-.03.31-.06.19.39-.27.53-.28.86.19.1.39-.08.54-.15.59-.3,1.23-.41,1.9-.62-.14-.14-.27-.27-.37-.38-.04-.24.06-.35.19-.45.34.03.66.18.91.36.19.13.44.07.57.27.3-.04.42.18.54.35,0,.06,0,.08-.01.1-.08.11-.19.02-.34.09-.05.06-.15.17-.27.31,0,.07.01.2,0,.32-.02.21.02.42-.09.65-.14.28.04.58.28.8h.23c.26.2.45.47.61.74.15,0,.29.01.42.02.07.11.04.21.03.32-.5.13-.62.62-.85.99-.07.12,0,.28.17.39h.48c.38-.11.51-.46.7-.74.21-.3.18-.66.1-.94-.12-.41-.08-.8-.1-1.2,0-.29-.13-.52-.23-.79.12-.09.28-.04.43-.03.06.11.11.22.17.34-.23.33-.13.64.14.98-.06.76-.39,1.53-.23,2.37.03.03.09.09.16.16.29-.03.57-.07.68-.43.04-.13.11-.15.45-.21,0,.27.41.37.26.74h-.63c-.08.08-.14.14-.19.19-.11.38.08.72.13,1.07.05.34.17.64-.03.99.16.36.27.75.25,1.18-.02.43-.1.82-.42,1.07.08.3.33.41.35.63.02.24.31.31.31.56-.17.14-.37,0-.53.08-.14-.15-.13-.42-.43-.39-.14.86-.19,1.75-.45,2.66-.52-.35-1.03-.64-1.67-.53-.04.21-.09.43.14.59.15.1.05.27.08.43-.14.1-.2.33-.5.33.08-.62-.28-1.05-.66-1.61-.09.45-.25.78-.21,1.15.09.21.35.19.49.41.02.37-.06.8.17,1.22-.14.09-.26.16-.38.24.02.02.03.04.05.07h-.88c-.52.62-1.25.81-2.02.89-.28.03-.55.08-.64.4-.39.2-.37.69-.67.96-.07-.06-.15-.13-.23-.2.16-.34.12-.69.2-1.01.09-.32.26-.62.19-.98-.09-.09-.19-.2-.33-.33-.13.13-.25.26-.4.42-.23-.11-.36-.36-.57-.52h-.28c-.02-.34-.01-.7-.25-1.05-.22.21-.42.4-.62.6.04.41.14.51.57.61.03.53-.02.64-.41.85-.12.2-.15.45-.38.62-.07-.17-.06-.33,0-.5.07-.17-.12-.3-.07-.48-.42-.19-.69-.56-1.01-.86-.36-.03-.63-.27-.94-.4-.22.03-.22.24-.34.39-.39-.07-.68-.45-1.09-.39-.34-.5-.41-.55-.9-.65v-.71c.74-.42,1.2-1.22,2.08-1.76-.37,0-.57.18-.82.14-.2-.03-.42-.04-.63.1-.19.12-.41-.06-.61-.14-.08-.08,0-.2-.04-.29-.06-.06-.11-.12-.19-.19-.1.18-.03.36-.06.58.08.05.18.12.27.19-.12.36.23.64.07.99-.08,0-.2.03-.24,0-.26-.27-.69-.14-.99-.44.22-.07.47-.03.53-.33-.32-.35-.47-.84-.87-1.15q.15-.33.02-.65c.08-.13.23-.14.34-.22v-.47c-.17-.15-.4-.36-.61-.56-.02-.14.11-.18.16-.26.26.11.52.21.86.25-.12-.34-.21-.6-.31-.89h-.52c-.12-.11-.05-.22-.08-.35.4-.1.85.08,1.23-.26v-.34c-.11-.08-.26-.18-.35-.24v-.36c.2-.28.61-.09.83-.34-.04-.23-.17-.39-.32-.53-.06-.42.07-.86-.09-1.28.07-.04.19-.1.31-.17.12-.04.14.14.32.11.08-.11.3-.17.31-.41.01-.21.13-.36.25-.53.17-.11.47.08.58-.21.07-.25.03-.5-.1-.7.1-.43.68-.06.74-.47,0-.11-.04-.15-.1-.15-.07,0-.11-.02-.15-.1.03-.19.21-.27.33-.4.24,0,.49-.05.67.15.34-.26.65-.49,1.04-.53.23.19.26.53.55.63.29.02.41-.13.39-.38-.22-.22-.42-.42-.54-.55-.1-.2-.08-.3-.06-.4.04-.02.07-.04.11-.04.23-.04.42.07.61.18.29.16.59.3.92.31.22.01.33.2.51.25.25,0,.49,0,.74,0Zm.19,12.72c.15.27.13.47.02.74-.09.2-.3.46-.09.71.2.1.32-.14.5-.12.25.03.45-.11.63-.26.03-.02.03-.07.05-.1-.06-.12-.11-.24-.17-.36-.39-.07-.61-.39-.94-.61Zm-2.99,1.03v-1.05h-.41c-.19.16-.33.32-.42.65v.49c.28-.16.54.35.83-.09Zm5.57-13.74c-.28,0-.57-.05-.84.02-.21.05-.52.09-.52.46h1.07c.08-.14.31-.19.29-.48Zm-5.91,1.99c.19-.17.34-.3.49-.43-.14-.14-.28-.25-.3-.44h-.25c-.11.22-.22.44-.32.64.1.17.22.26.39.23Zm-3.18,7.57c-.29-.31-.06-.67-.19-.96-.07-.03-.08-.14-.17-.12-.17.13-.21.33-.3.52.02.19.19.34.13.56h.52Zm1.6,1.91c.1.12.19.25.27.35.41-.03.56-.1.56-.25-.13-.14-.24-.27-.34-.37h-.22c-.1.1-.2.2-.28.28Zm7.48-9.55c.02-.16.09-.39-.18-.54-.05.08-.18.11-.17.28.1.07.23.17.35.26Z"/>
  <path class="cls-1" d="m82.2,95.59c-.34.17-.55-.11-.82-.06-.2-.18-.36-.42-.63-.49-.19-.4.21-.49.33-.74v-.26c.5.08.37-.71.92-.62.18.2.44.36.52.68.17.56-.14,1.02-.32,1.5Z"/>
  <path class="cls-1" d="m90.49,78.61c-.18-.32.12-.53.07-.81.14-.13.29-.26.5-.45.09-.03.3.1.42-.11.08.08.2.13.19.28,0,.47,0,.94,0,1.36-.14.29-.37.2-.56.23-.32.45-.12.98-.19,1.47h-.44c-.05-.09-.14-.23-.28-.45,0-.16-.24-.42-.08-.8.43-.2.91-.43,1.41-.67,0-.08-.11-.11-.14-.17-.32-.13-.58.13-.89.1Z"/>
  <path class="cls-1" d="m53.08,85.74c-.08.24.03.43.11.6-.14.29-.37.23-.59.22-.14-.29.21-.53.03-.87-.1-.13-.35-.17-.54-.29-.18-.12-.22-.36-.31-.55-.09-.01-.19-.02-.28-.03-.09-.09-.03-.2-.05-.3.04-.06.1-.08.16-.06.18.05.38.08.55.16.09.05.17.08.27.08.2,0,.41.02.61,0,.21-.03.35.23.57.13.1.1.2.21.3.31-.18.33-.59.35-.83.6Z"/>
  <path class="cls-1" d="m89.83,45.47c-.09.09-.2.18-.33.3-.3.08-.83-.12-1.39-.55v-.35c.11-.12.21-.24.3-.34.16,0,.27,0,.37.11.2.21.48.32.76.38.25.06.31.21.3.45Z"/>
  <path class="cls-1" d="m72.21,99.23c-.1-.4,0-.78.12-1.19h.78q.16.19.18.52c-.27.35-.66.54-1.08.67Z"/>
  <path class="cls-1" d="m87.31,82.37h.63c.12.12.26.27.41.42v.36c-.3.22-.37.66-.74.99,0-.64.06-1.22-.3-1.77Z"/>
  <path class="cls-1" d="m40.55,102.38c.19-.19.16-.51.51-.52.09.2-.08.52.25.62.21-.07.42-.17.57-.36q.07.32-.21.97h-.53c-.26-.16-.32-.49-.6-.71Z"/>
  <path class="cls-1" d="m99.27,45.88c-.23.01-.37.02-.49.03-.21.08-.15.34-.42.48-.12,0-.35.04-.57.12-.2.07-.44.01-.74.01.22-.2.34-.32.57-.4.33-.11.65-.31.99-.43.26-.09.32-.07.66.19Z"/>
  <path class="cls-1" d="m103.62,60.44c.02.09.02.13.03.16-.02.06-.06.08-.13.1-.26.05-.5.1-.63.41-.07.18-.23.4-.53.31-.08-.15-.24-.28-.19-.57.41-.29.93-.34,1.44-.42Z"/>
  <path class="cls-1" d="m101.18,48.3c.33-.13.62-.34.87.05-.08.18-.12.38-.3.52h-.39c-.22-.12-.17-.34-.17-.57Z"/>
  <path class="cls-1" d="m95.44,46.4c.31-.03.45.1.43.42-.12.18-.37.31-.43.57-.17.04-.21-.12-.3-.16-.05-.33.05-.59.3-.83Z"/>
  <path class="cls-1" d="m98.33,44.69v.42c-.15.07-.29.03-.43.03-.06-.06-.12-.12-.16-.16v-.71c.31.02.39.3.58.41Z"/>
  <path class="cls-1" d="m55.91,92.17c.12.12.24.24.36.36-.12.45-.2.48-.6.22v-.41c.08-.05.11-.17.24-.17Z"/>
  <path class="cls-1" d="m40.78,47.15c-.09-.11-.04-.25-.19-.3.16-.11.1-.27.14-.42.13-.08.28-.03.41-.03.06.04.05.1.06.16.02.17-.14.27-.16.43-.09.03-.2.02-.27.16Z"/>
  <path class="cls-1" d="m71.84,99.93c-.08.27-.28.32-.33.44-.25.04-.37-.05-.44-.22-.02-.13.11-.16.17-.26.18,0,.38-.04.6.04Z"/>
  <path class="cls-1" d="m62.53,97.18c-.29-.1-.33-.32-.53-.28-.04-.21-.31-.37-.12-.63.46.1.39.54.65.91Z"/>
  <path class="cls-1" d="m98.68,43.89q.34-.29.65-.03c-.24.4-.3.4-.65.03Z"/>
  <path class="cls-1" d="m37.02,38.38c-.04-.17.12-.21.16-.31h.31c.13.15.23.26.32.37-.08.06-.15-.02-.22-.1-.18.12-.38.16-.57.05Z"/>
  <path class="cls-1" d="m95.32,63.06c.03.21.31.37.13.63-.42,0-.23-.43-.43-.58.09-.09.2-.03.3-.05Z"/>
  <path class="cls-1" d="m89.15,79.27c.12-.16.19-.23.22-.28.2-.01.25.12.33.2.03.16-.13.2-.17.3-.2.03-.23-.14-.38-.21Z"/>
  <path class="cls-1" d="m50.19,77.9c.08-.18.14-.3.35-.29.09.19.02.4.04.55-.13-.09-.27-.18-.39-.27Z"/>
  <path class="cls-1" d="m89.91,69.52c.06.19.06.34,0,.5h-.17c-.12-.22-.02-.36.16-.5Z"/>
  <path class="cls-1" d="m52.16,87.18c-.22-.1-.26-.26-.18-.48h.18c.05.16.05.31,0,.48Z"/>
  <path class="cls-1" d="m72.13,42.29h-.14c-.08-.16-.07-.33,0-.5.18.14.29.29.15.5Z"/>
  <path class="cls-1" d="m106.79,102.28c-.06-.1-.11-.17-.16-.25.16-.06.29-.07.16.25Z"/>
  <path class="cls-1" d="m90.68,48.82c.14-.09.25-.08.4,0-.13.09-.24.09-.4,0Z"/>
  <path class="cls-1" d="m81.56,92.98c.04-.06.08-.06.12,0-.04.06-.08.06-.12,0Z"/>
  <path class="cls-1" d="m65.41,84.54v-.35c-.15-.16-.23-.39-.5-.37v-.79c.12-.28.48-.31.66-.56h.43v1.8c-.15.13-.26.41-.58.26Z"/>
  <path class="cls-1" d="m69.04,87.95c-.41-.18-.95-.18-1.05-.8.11-.13.26-.13.35-.03.17.2.36.24.59.18.05.23.28.38.11.65Z"/>
  <path class="cls-1" d="m67.99,85.77c0,.11-.01.19-.01.24-.05.07-.07.06-.1.01-.15-.22-.27-.46-.55-.56-.08-.03-.1-.12-.07-.21.08-.08.16-.07.25.02.15.16.31.32.49.5Z"/>
  <path class="cls-1" d="m64.85,84.49c-.18-.09-.31-.16-.46-.23.06-.27.22-.35.48-.28.04.15.05.3-.02.51Z"/>
  <path class="cls-1" d="m77.67,77.74c.06.04.06.08,0,.12-.06-.04-.06-.08,0-.12Z"/>
</svg>