<?xml version="1.0" encoding="UTF-8"?>
<svg id="Layer_1" data-name="Layer 1" xmlns="http://www.w3.org/2000/svg" viewBox="0 0 150 150">
  <defs>
    <style>
      .cls-1 {
        fill: #bc0056;
      }
    </style>
  </defs>
  <path class="cls-1" d="m122.9,87.66c.01.28-.14.36-.39.34-.13-.03-.03-.18-.13-.23h-.11s-.06.06-.06.09c0,.1,0,.19,0,.29.04.57-.24,1.02-.6,1.42-.23.25-.44.47-.46.85-.01.25-.23.45-.43.61-.05.53-.23.99-.58,1.38-.13.14-.22.26-.27.47-.05.23-.35.39-.42.62-.07.24-.14.45-.35.62v.4c-.69,1.32-1.18,2.68-2.46,3.54,0-.02,0,0,0,.01,0,.21,0,.42,0,.65-.2.25-.48.44-.6.77-.08.21-.28.37-.53.47-.27.11-.54.26-.53.63-.28.31-.24.81-.63,1.07-.21-.01-.45.06-.62-.13-.38.35-.56.83-1.06,1.15v.82c-.32.05-.61.14-.82.42.18.29.1.66.25.94-.07.25-.33.2-.43.37-.07.22-.13.44-.2.67-.2.17-.43.28-.71.23-.21.21-.42.41-.63.62-.01.12-.02.25-.04.38-.03.23-.3.32-.33.55-.03.23-.19.32-.39.42-.1.05-.15.24-.18.37-.11.43-.37.67-.81.77-.35.08-.69.21-1.02.55-.01-.34.05-.58.15-.79.11-.2.04-.32-.1-.44-.22.05-.36.23-.55.31-.2.09-.3.28-.47.39-.04.2.02.38.21.4.18.02.3.13.46.16q-.02.37-.85.88c-.18.31-.07.79-.61.89-.04-.17-.19-.3-.33-.43-.09.02-.19-.04-.3.07.12.24.24.49.37.74-.42.25-.57.67-.69,1.09-.08.3-.21.57-.29.87-.28-.24-.6-.37-.93-.47-.06.04-.12.08-.18.13-.38-.18-.69-.47-1.11-.59-.2.24.03.41.12.57.09.16.26.27.4.41-.15.09-.24.22-.41.3-.59.27-.82.79-.89,1.41-.09.09-.19.2-.29.31-.36-.08-.68-.21-.98-.36-.24.03-.2.3-.35.4.08.34-.2.53-.34.85-.08.41.14.94-.21,1.42-.31-.25-.59-.52-.93-.7-.03.02-.07.05-.14.11-.05-.33.21-.6.09-.89-.48-.04-1.14.36-1.48.91.07.16.19.19.36.19.28,0,.57-.05.8.19-.01.18-.18.34-.31.36-.43.09-.72.42-1.09.59-.46-.21-.59-.17-1.06.29.03.24-.11.42-.28.63h-.98c-.09.22.2.32.07.54-.15.15-.34.28-.61.26-.11,0-.18.04-.24.12-.14.16-.35.18-.52.28-.2.12-.39.12-.55-.08.03-.23.28-.37.19-.62.24-.15.45-.29.7-.45.04-.09.01-.22,0-.4-.33.08-.57-.15-.9-.26-.06.55.08,1.08-.18,1.57-.29.33-.58.74-1.15.63-.15.14-.35.23-.33.54-.26-.22-.5-.19-.75-.19-.13.18-.15.41-.35.57-.52-.1-.98.4-1.57.18.06-.47.64-.33.78-.68-.08-.07-.18-.14-.38-.31-.23,0-.58.08-.86.4v.45c-.11.13-.21.22-.43.16-.09-.08-.22-.21-.34-.34-.14.06-.25.11-.37.16-.14.24.22.39.1.58.13.2.38.17.45.37-.09.12-.24.24-.38.15-.22-.15-.4-.16-.61,0-.05.04-.19.05-.26-.04.08-.19.33-.17.44-.35v-.36c-.14-.16-.32-.24-.54-.29v-.52c.13-.21.48-.19.66-.42v-.37c-.07-.05-.18-.13-.36-.27h-.34c.04-.28-.04-.51-.17-.78-.24-.05-.53-.24-.85-.12-.08.26.06.43.23.64-.08.8-.43,1.49-1.19,1.89.09.42.15.48.6.56-.07.25.11.47.14.78-.41-.07-.75.12-1.14.12-.29-.35-.42-.78-.65-1.17.11-.37.3-.71.26-1.11,0-.11.08-.24.14-.34.22-.33.27-.73.43-1.09.03-.06,0-.15,0-.26-.33-.13-.14-.7-.57-.7-.53-.17-.82.18-1.18.35-.03.3-.01.59.26.84h.52c.07-.04.11-.19.28-.21.14-.04.22.08.32.17.04.17-.16.24-.15.44-.43-.11-.86-.18-1.29-.14-.26-.2-.59-.31-.82-.57-.16.16-.32.32-.49.49-.19-.11-.38-.21-.62-.11.06.14.19.25.26.38.08.15.12.33.07.42-.1.16-.1.31-.1.48.1.15.24.24.45.16.06-.17-.08-.43.25-.55-.04,0-.03,0,0,0,.29,0,.58,0,.89,0,.09.09.18.19.28.3v.89c.08.14.22.2.39.27-.23.23-.11.53-.16.78-.1.24-.39.11-.53.28-.17-.2-.39-.06-.57-.11-.14.2,0,.33.06.47.01.22-.32-.01-.25.23-.19,0-.35,0-.5,0-.4-.03-.77.08-1.14.2-.28.09-.6.1-.85,0-.19-.07-.37-.05-.56-.09-.02-.01-.05-.04-.08-.05-.66-.33-.72-.36-1.34-.03-.21.11-.47-.02-.62.2-.22-.05-.44.06-.67-.09-.13-.09-.38-.04-.57-.02-.24.03-.46-.03-.63-.17-.23-.18-.48-.2-.74-.18-.39.02-.79-.05-1.18.1-.24.09-.52,0-.73-.22-.19.04-.38-.04-.59.1-.19.12-.47,0-.61-.16-.22-.23-.5-.29-.77-.41-.26-.12-.48-.31-.79-.34-.06,0-.12-.07-.19-.11-.82.23-1.2.52-2.07-.46-.66.08-1.2-.23-1.73-.57-.23-.15-.44-.24-.72-.24-.33,0-.68.08-1-.1-.12-.07-.88-.45-.9-.55-.03-.13-.09-.12-.19-.14-.34-.07-.64-.24-1.01-.24-.32,0-.79-.38-1.24-.85.09-.19.29-.14.46-.21-.09-.42-.2-.8-.66-.98-.19.14-.24.38-.34.58-.17.09-.32.2-.49.21-.16-.18-.31-.35-.45-.52-.03.03-.06.06-.08.09-.51-.18-1.08-.18-1.54-.6h-.8c-.24-.19.12-.25.05-.42-.05-.13-.01-.3-.01-.46-.17-.11-.35-.18-.57-.2,0-.05,0-.1-.01-.18.27-.03.52-.06.76.15.17-.63-.3-.87-.59-1.2h-.24c-.09.08-.04.23-.17.28v.69c-.1.09-.19.18-.3.28-.4.07-.72-.09-1-.42v-.93c-.17.06-.25.17-.22.39-.33-.19-.58-.43-.86-.47-.32-.05-.53-.21-.78-.36.11-.35.43-.54.64-.82.2-.27.64-.28.81-.7-.46,0-.88,0-1.3,0-.31.4-.37.87-.54,1.36-.17.19-.39.41-.72.49-.05.28-.4.38-.45.66h-.51c.14-.53.66-.65,1.02-1.01-.16-.47-.53-.78-1.04-.97v-.24c.07-.07.15-.16.23-.23,0-.35.02-.7-.14-1.04.3-.14.52.19.76.06.15.08.18.29.45.2-.14-.14-.26-.26-.38-.38.1-.36.43-.63.35-1.03-.18-.2-.42-.27-.7-.32-.14-.39-.42-.57-.85-.53-.19-.14-.31-.38-.63-.41-.03.06-.08.18-.13.3-.04-.03-.07-.06-.11-.09-.12.41.21.79.09,1.18.08.07.13.14.19.17.05.02.11,0,.22,0,.22-.3.61-.34.98-.44-.39.33-.33.83-.48,1.21-.31.29-.65.36-.96.12-.15-.11-.31-.08-.46-.17-.14-.09-.38-.09-.59.05-.11.08-.27.21-.48.13-.04-.04-.09-.1-.15-.17v-.65c-.3-.26-.52-.27-.83-.02-.16.13-.3.29-.46.45,0,.25-.03.5.1.76.1.19-.07.38-.15.56-.15.06-.2-.08-.3-.16v-.41c-.5-.16-.88-.44-.94-.98-.1-.09-.2-.02-.29-.06-.05-.05-.11-.11-.17-.17.06-.05.12-.1.21-.17.14-.02.28.11.38.2.18.16.37.21.56.09.15-.1.3-.01.44-.08.08-.12.02-.25.04-.38-.24-.23-.47-.48-.77-.65-.14-.09-.28-.16-.44-.21-.34-.1-.65-.24-.89-.52-.19-.21-.41-.37-.72-.43-.09.13-.18.25-.27.37-.15.31.07.63.08.98-.17.08-.32.14-.47.21v.37c.24.14.27.46.45.69-.05.05-.11.11-.16.16-.43-.36-.57-.97-1.08-1.35.03-.11-.14-.24-.14-.43,0-.18.2-.32.1-.52.12-.18.26-.32.47-.38v-.81c-.16-.21-.36-.35-.64-.41-.1-.2-.21-.4-.31-.61-.03-.15-.29,0-.31-.22v-.59c.1-.29.45-.27.59-.54-.2-.22-.3-.51-.55-.69-.05.05-.11.11-.16.16-.05.16.17.25.09.46-.19.16-.25.48-.54.65-.18-.03-.25-.2-.38-.31v-.68c-.14-.05-.07-.21-.17-.28-.4,0-.74.37-1.19.19-.13-.39-.41-.75-.54-1.19-.06-.21-.04-.4-.07-.6-.02-.14,0-.27-.23-.34-.29.16-.67-.38-1.04.02v.52c-.36.35-.68.67-1.02,1.01-.05-.02-.14-.06-.23-.1,0-.68.44-1.33,1.11-1.62.16-.5-.35-1.01.05-1.49-.17-.14-.3-.11-.42.01-.53-.28-.62-.88-1.01-1.33v-.65c-.15-.23-.34-.19-.54-.17-.36.31-.07.58.07.89-.5.06-.56-.32-.65-.62.15-.4.01-.82.09-1.27.17-.2.21-.5.34-.81-.21-.1-.42-.02-.61-.05-.53.39-.96.3-1.35-.35-.41-.69-.79-1.4-1.43-1.99v-.52c.38-.03.48-.09.47-.32-.01-.15-.1-.23-.28-.26-.04.06-.1.14-.18.26v.32c-.17-.1-.18-.28-.24-.44-.15-.4-.29-.84-.87-.82-.11.15-.01.33-.09.55-.05.04-.16.12-.3.24h-.21c-.04-.59.02-.67.66-.96,0-.38,0-.76,0-1.14-.01-.31-.19-.61-.1-.92-.13-.12-.37,0-.43-.16,0-.55.52-.85.55-1.33-.1-.11-.2-.06-.29-.07-.66-.11-1.17-.75-1.12-1.4,0-.06,0-.12.02-.16.28-.42.2-.89.21-1.35.17-.19.36-.37.35-.66-.09-.27-.32-.21-.49-.21-.37-.26-.76-.47-.92-.92.38-.49-.23-.71-.32-1.07,0-.28-.1-.62.02-.83.15-.27-.09-.58.18-.79-.04-.38.12-.78-.1-1.16-.05-.09,0-.23,0-.34-.09-.06-.13-.2-.28-.17-.13-.2-.25-.4-.16-.67h.63c.18.28.09.66.26.97-.2.24-.05.53-.11.81.16.07.3.06.49.02-.05-.25.1-.52-.13-.74.11-.34.23-.66.24-1-.19-.19-.41-.35-.47-.62-.02-.08-.06-.13-.11-.18-.37-.34-.45-.78-.5-1.28.1-.07.21-.15.39-.27.14.02.36-.06.56-.19v-.24c-.57-.44-.9-1.04-1.15-1.8v-.85c.34.72.7,1.29,1.47,1.51.06-.44-.16-.76-.32-1.08-.19-.37-.56-.5-.92-.63.01-.01.02-.04.03-.04.11-.01.23-.02.37-.03.19-.08.24-.32.41-.45.18-.13.37-.24.57-.37-.16-.19-.07-.42-.11-.59-.11-.11-.21-.21-.31-.3h-.25v.6q-.3.24-.61.04c0-.26,0-.55,0-.83,0-.14.05-.29-.08-.43-.08-.09-.06-.26,0-.38.19-.43.24-.89.2-1.35-.02-.21.02-.43.13-.58.18-.22,0-.53.25-.71.1-.1.25,0,.36-.06.09.09.17.16.26.24.05-.09.17-.12.17-.23-.38-.27-.61-.34-1.11-.34-.06-.21-.26-.31-.36-.48-.09-.16-.27-.32-.1-.57.24.11.47.23.75.36.18-.33.12-.81.58-1.03.16-.03.31.11.48.18,0,.25-.27.3-.36.5.02.31.25.54.35.82.12,0,.2.02.26,0,.08-.04.14-.11.21-.17-.06-.28-.33-.48-.2-.86.07-.06.21-.17.33-.27-.06-.29.07-.56-.11-.84.16-.18.2-.45.39-.65.12-.14.09-.37.15-.56.05-.16.14-.26.24-.38v-.48c-.14-.11-.3-.25-.4-.32-.12-.39-.21-.69-.18-1.01.03-.31-.2-.6-.08-.99.2-.35.79-.32,1.01-.87,0,.04-.03-.07,0-.11.12-.1.09-.29.23-.37q.34-.05.58.11v.35c.2.25.49.19.71.32.37-.25.21-.7.51-.97-.14-.1-.25-.18-.47-.34-.27-.11-.66.24-1.05.12-.34-.26-.28-.64-.28-.96-.06-.06-.1-.1-.16-.16h-.82c-.11.06-.25.13-.4.21-.1-.3.3-.59-.09-.94.38.07.66-.02.97.12.24.11.57.02.89.02.09-.12.2-.25.29-.35.27.06.41-.1.59-.15.07-.46-.48-.54-.59-.89.12-.19.34-.02.46-.14.07-.15-.07-.19-.14-.29-.14.07-.27.14-.4.21-.4-.04-.48-.42-.73-.62.07-.07.15-.12.12-.25.41-.02.67-.34,1.02-.5.14,0,.24.2.42.11.1-.07.22-.14.21-.3.16-.05.27-.19.46-.16.12.11.23.22.38.36-.2.22-.43.35-.74.33.02.3.28.38.4.57h.26c.15-.16.32-.35.5-.54-.07-.17.15-.29.14-.49-.01-.18.32-.24.21-.51-.16-.28-.48-.37-.85-.45.3-.43.45-.9.84-1.24.09-.14-.01-.31.11-.47.24-.31.21-.64-.09-.93-.2-.2-.27-.43-.22-.7.3-.23.65-.14.99-.16.35-.33.5-.79.77-1.17-.19-.21-.39-.32-.67-.32-.13-.14-.26-.3-.38-.44-.15.01-.19.11-.25.16-.07.18.1.31.14.5-.24.2-.16.56-.44.82-.3-.06-.62.05-.97-.1-.22-.1-.53-.02-.78-.02-.16-.19.14-.26.07-.42.12-.09.26-.02.39-.04.08.08.16.15.24.22.06-.06.11-.11.18-.17,0-.16-.2-.28-.13-.45-.21-.25-.6-.07-.8-.34-.02-.19-.06-.38.16-.52h.54c.33.12.16.39.27.6.33-.22.7-.36.88-.74.02-.03.03-.07.05-.09.16-.13.25-.34.49-.37,0-.24.32-.31.33-.55.25-.01.32-.25.49-.37.05-.03.09-.1.13-.1.39.01.45-.3.61-.56h-.43c-.14.05-.12.24-.22.32-.14.02-.17-.09-.26-.14v-.59c.35-.61.3-.87-.24-1.17v-.25c.42-.26.6-.75.99-1.06l.15.15c.11.34-.15.62-.09.96.43.11.9-.08,1.32.15.09-.19.27-.36.17-.6.15-.2.39-.32.43-.69-.02-.09-.14-.24-.3-.38.34-.33.78-.53,1.05-.97v-.65c-.16-.12-.26-.29-.34-.53.8.12,1.06.72,1.34,1.32-.11.14,0,.38-.25.52h-.44c-.43.35-.29.81-.32,1.23-.4.24-.17.84-.69,1.07h-.24c-.2.2-.37.37-.55.55.11.15.17.4.46.5.21-.12.47-.15.74-.12.12.07.16.27.35.21.08-.04.07-.14.05-.16-.19-.14-.23-.38-.41-.53-.11-.09-.06-.2-.03-.33h.83c.18-.16.25-.28.12-.5-.09-.14-.24-.3-.14-.51.12-.06.23-.07.35.04.26.24.64.3.86.61.03.04.15,0,.26,0,.1-.31-.06-.54-.29-.7-.22-.15-.42-.31-.61-.5.26-.47.71-.79.95-1.19.42-.07.71.4,1.11.1.13-.48-.35-.86-.2-1.31-.11-.12-.21-.21-.3-.3-.17-.02-.37.08-.51-.22.02-.13-.13-.38.17-.59.29.15.65.21.94.07.2-.1.55.09.62-.29-.15-.44-.75-.38-.93-.79.04-.23.22-.34.4-.45.28.05.57.18.74.38.18.21.33.47.49.71-.12.36-.26.72-.23,1.1-.29.34-.34.45-.34.83.08.05.11.16.22.16.27-.08.32-.34.47-.52.17-.21.45-.14.68-.38.14-.31.18-.38,0-.76-.08-.17-.08-.31-.09-.49.3-.1.53.02.76.19.05-.08.16-.11.17-.17-.22-.21-.43-.41-.56-.54v-.65h.62c.15-.19,0-.33-.08-.53.09-.03.2-.07.31-.1.12-.03.17.1.21.27.27-.02.44.14.56.34-.11.32-.41.36-.7.43.02.32-.04.58-.23.8.32.22-.01.43-.02.65,0,.22-.16.43-.23.61.04.21.21.26.31.4.25-.1.44.15.73.1.08-.26-.05-.58.15-.84-.11-.26-.14-.53-.11-.82.13-.18.35-.23.55-.32.15-.4-.15-.76-.09-1.15-.06-.15-.3-.2-.24-.4.02-.17.18-.22.23-.32v-.29c-.09-.31-.41-.15-.53-.34-.47,0-.95-.04-1.4.13-.32.12-.56.36-.62.71-.03.19-.11.34-.24.49-.03.2.09.46-.19.63-.08-.1-.16-.2-.29-.36-.04-.17.02-.42.17-.69-.33-.2-.25-.63-.53-.87-.13-.1-.3.02-.46-.1.13-.26.26-.53.39-.8.29-.26.63-.18.93-.01.25-.25.37-.48.33-.78.26-.19.45.04.67.08.14.23.12.58.56.56.08-.09.17-.21.28-.35v-.31c-.25-.05-.51-.1-.69-.32v-.58c.37-.41.91-.56,1.42-.73.23-.08.46.1.68.18.1.03.18.03.28.05.27.23.26.24.29.41.22.53.75.53,1.12.83-.24.28-.46.53-.77.67-.21.09-.37.2-.46.44-.05.14-.25.22-.34.3,0,.15.01.23.02.29.36.18.65-.25.96-.04.19-.31.33-.59.57-.8.15-.13.24-.28.2-.5h.93c0-.4.42-.55.5-.94-.3-.23-.41-.68-.85-.78-.11.06-.22.11-.34.17v.23c.15.15.3.29.45.44-.06.09-.11.19-.25.19-.27,0-.44-.17-.62-.34h-.35c-.24-.28-.58-.49-.75-.9.13-.29-.22-.57-.1-.9.18-.19.4-.27.67-.3.23-.53.82-.67,1.23-1,.16.12.21.3.3.46-.16.2-.21.39.07.57h.58s.09-.1.16-.18c.06-.26-.05-.56.11-.85.08-.15.06-.4-.1-.57.19-.18.02-.68.55-.56.05.43.28.76.72.9.2.06.27.26.44.35.28.02.51-.06.71-.26.06-.12.03-.25.02-.4-.34-.2-.66-.42-.56-.91.27-.34.66-.4,1.13-.38-.07-.23.17-.38.13-.62.13-.19.32-.3.52-.39.08.04.18.09.28.14v.34c-.17.34-.68.38-.78.83.08.25.34.12.51.17.19.14.21.38.35.58.48-.17.46-.65.67-1.01.21.03.26-.29.49-.27.16-.21.13-.61.57-.57.25.19.33.46.3.72-.11.21-.27.2-.43.21-.18.37.21.71.06,1.08-.06.12-.21,0-.33.11.19.14.16.41.36.58v.51c.21,0,.44-.07.58.02.22.12.36-.07.56-.02.18.04.38,0,.57,0,.07.66.18.78.75.92.18-.18.25-.39.2-.64-.18-.12-.41-.14-.57-.33-.09-.37.45-.54.33-.94-.06-.06-.13-.13-.23-.22.05-.52.21-1.07.12-1.54.13-.33.46-.14.58-.44-.08-.28.25-.55.14-.8.09-.29.21-.45.4-.59h.6c.12.17-.03.38.09.56.1-.13.12-.36.38-.34.1.25.04.49-.1.73.41.36.71.89,1.43.75-.06.22.1.36.13.58.31-.06.56.15.87.27.05.21.21.34.45.41.3.02.62,0,.91.16.07-.07.13-.12.2-.19v-.74c.41-.08.49-.52.84-.76.09.22.16.41.24.62h.62s.08-.08.13-.13c.07-.11.01-.25.03-.38.09-.06.14-.15.27-.18.68-.16.69-.18,1.06-.68.08,0,.18,0,.27,0,.04,0,.07.02.16.04-.12.5-.08,1.03-.44,1.47-.07.08-.09.19-.15.29-.05.08-.01.22-.01.33.23.28.63.18.9.42.34-.18.75-.22,1.08-.42.2-.17.18-.43.28-.63.04,0,.06,0,.08,0,.18.05.24.24.43.34h.31c.17-.16.35-.32.52-.47.26.11.03.3.13.42.1.09.19.19.3.29.43-.05.91.13,1.31-.27.13-.35-.27-.68-.05-1.01.04-.09.09-.17.11-.21.38.37.73.72,1.03,1.01h1.22c.06-.08.16-.19.28-.34.04-.21-.12-.32-.35-.37v-.26c.14-.01.23-.2.41-.16.09.16.06.29-.05.38.07.27.29.44.5.65.38-.02.78,0,1.16.21.12.07.3.01.44.01.11-.1.23-.19.34-.29-.11-.16-.12-.33-.26-.44,0-.11,0-.23,0-.35.11-.11.22-.21.34-.33.05-.18-.08-.43.23-.53.24.05.44.32.82.19.06-.08.17-.21.24-.31h.65c.51.18.95.5,1.39.71.18-.18.31-.31.52-.51v-.49c.1-.05.13-.18.24-.17.11.02.13-.16.33-.08.02.02.14.08.17.18.15.5.64.69.95,1.03.17.18.32.36.42.58.01.11-.11.14-.17.24h-.59c-.28.26-.33.55-.27.9h.48c.72.45.78.47,1.26.44-.02-.5-.34-.89-.52-1.37.31-.18.39-.51.64-.72v-.34c-.13-.13-.24-.29-.48-.33.16-.32-.35-.65.07-.98h.49c.14.16.37.15.55.31.08.12.18.27.21.51-.11.11-.24.25-.35.37-.11.39.3.37.43.54.13.41-.21.65-.35.95.41.22.78-.2,1.2,0-.3.28-.86.34-.82.9.27.37.64.57,1.08.67.23-.25.21-.58.3-.86.08-.26-.11-.51-.46-.69.09-.36-.2-.68-.12-1.01-.19-.33-.29-.65-.58-.84.2-.23.47-.28.72-.28.52-.01,1.05-.09,1.55.19.12.07.3.02.45.03.29,0,.58,0,.86,0,.15.23.29.44.45.68.2-.2.41-.44.74-.45.26,0,.45.15.65.34h.81c.06.06.1.1.17.17.02.25-.06.56.14.8-.09.17-.11.34-.24.45v.52h.54c.04-.06.12-.17.25-.37,0,.02,0-.09,0-.27-.05-.02-.17-.06-.28-.11.02-.23.15-.43-.04-.55.04-.1.2-.13.08-.29h.56c.16.13.3.34.54.42.22.41.61.56,1.02.74.3.12.54.38.85.6.09-.27.31-.42.48-.6.19.04.33-.13.55-.14.34.18.41.61.77.81.44,0,.81.31,1.27.39.44.07.83.37,1.27.31.07.07.12.11.18.17v1.34c.3-.1.57-.16.81-.3,0-.06-.02-.13.06-.17h.25c.06.08.14.19.28.38v.62c.17-.24.35-.31.55-.42h.55c.2.1.19.39.44.51-.2.14-.52-.07-.61.31.02.26.15.52.53.63.1-.17.38.04.46-.18.17-.06.23.21.39.07-.07-.25-.24-.44-.43-.62.45.07.86.26,1.18.53.25.21.72.26.67.78.08.07.17.16.28.24.12.08,0,.29.15.29.21.13.45-.03.57.18.07-.07.14-.14.22-.21h.37c.27.23.21.63.57.82.29.16.5.47.74.7.06.37,0,.73-.16,1.17.24-.23.38-.38.49-.49.65-.13.89.34,1.26.64h.35c.09.1.18.22.31.37.05.16-.1.36-.04.6.05.2-.16.44-.03.77.33.26.74.58,1.17.9h.57c.07-.11.1-.26.21-.32.23.05.36.19.43.46-.01.19.07.48-.22.81.25-.09.37-.19.53-.13.37.37.74.76,1.14,1.12.34.3.46.69.55,1.13.24.28.65.41.92.84.05.46-.23.95-.35,1.48.28.05.31-.15.39-.32h.36c.11.12.24.26.44.49.05.12-.13.23-.26.36-.1.5.5.83.34,1.34.22.25.34.55.59.72,0,.27.2.47.09.77.3-.06.52.02.73.15-.06.07-.14.13-.11.24.03.11-.06.16-.11.23.09.06.12.14.13.28.26-.03.5.04.81.21.06.05.2.18.34.31-.02.1.04.21-.06.28-.18.05-.28-.21-.48-.1-.04.04-.1.1-.16.16.02.14-.04.28.06.43.23.36.39.75.27,1.17.15.15.28.27.4.39.08-.09.16-.19.31-.37v-.73c.16-.01.19.12.27.18.08.06.14.13.21.2-.05.16.05.28.12.41-.08.23-.43.29-.33.68.14.12.31.3.5.46.15.12.26.29.28.46.03.27.14.36.4.36.06,0,.12.09.16.12.08.51.13,1,.24,1.48.03.14-.08.38.19.46h.5c.15.3-.05.55-.08.81.07.13.14.24.3.23.06.11.12.22.18.33,0,.13-.16.2-.12.35.04.13-.02.25-.16.33.39.53.64,1.08.91,1.62.16.32.32.65.3,1.03-.02.31.24.51.29.8.07.42.19.84.29,1.26.01.05-.02.13,0,.17.15.22.19.45.25.7.06.23.15.47.23.7.12.31.11.64.25.94.03,0,.09.02.18.04-.02.39.1.8-.17,1.13.19.19.39.38.55.54-.07.36.06.65-.11.88.08.33.23.6.42.87.1.14.16.27.05.5-.14.28-.11.65-.01.94.06.19.05.36.08.53-.16.22-.32.45-.46.63-.04.22.08.41.17.47.26.17.36.42.52.68-.14.29-.12.68-.38.95.08.21.15.4.21.58.21.57.16.56.07,1.32-.05.43-.13.9.07,1.34.04.08.04.18.03.27-.05.39-.1.79-.26,1.16-.14.32-.28.65-.41.98-.04.1-.04.22-.03.33.07.53-.1,1.02-.24,1.51,0,.02-.02.03-.03.04-.21.17-.02.42-.15.63-.12.2-.33.31-.4.52-.13.38-.22.78,0,1.12-.03.16-.12.23-.22.27-.09.02-.13-.06-.2-.12-.05.06-.09.12-.16.2v.43c-.23.11-.23.41-.46.55v.5c.14.08.3.01.45.04ZM51,52.77c.23-.08.42-.22.58-.41.02-.3-.06-.56-.32-.76-.17.11-.37.14-.46.27.06.32.21.59.2.9-.06,0-.09.02-.1.07,0,0,.03.04.03.03.05-.01.08-.05.07-.1Zm-8.39-7.34c.11-.01.23.03.34-.04v-.3c-.16-.18-.28-.32-.42-.48-.03.11-.16.12-.15.29.18.07.11.25.12.41-.35.07-.67-.24-1.03-.08-.05.06-.1.11-.14.16.09.38.4.58.63.83h.66v-.79Zm41.72,7c-.19-.28-.06-.72-.44-.92-.25,0-.43.11-.6.28v.48c.34.14.68.19,1.04.16v.86c-.08.08-.12.12-.17.17-.35.03-.71-.06-1.05.12-.19.1-.33-.18-.54-.09.03.27.24.46.41.52.4.14.64.45.94.72.3-.02.63.07.92-.13.14.42.47.48.71.48.37.12.39.37.53.55-.05.33.09.69-.08,1,.07.14.1.3.27.4h.58c.07.11.04.2.04.29-.08.05-.11.16-.22.16-.16-.13-.34-.13-.47-.12-.4.28-.78.49-1.2.6-.08-.08-.13-.13-.2-.19,0-.45.03-.91,0-1.36-.03-.46.23-.87.24-1.43-.29.42-.69.56-.94.86v.46c-.13.09-.19.25-.39.29-.22-.22-.45-.45-.68-.67-.03-.03-.1-.02-.14-.03-.1.09-.04.19-.06.29.39.27.55.75.93,1.02v.59c-.16.15-.31.3-.44.44v.5c.24.13.39-.15.6-.08.63-.31,1.37-.06,1.74.46.2.28.45.5.66.76-.1.09-.24.09-.31.02-.29-.31-.65-.34-1.03-.3-.27.2-.17.58-.45.8.16.16.29.29.41.41-.02.11.02.19-.04.25-.01.01-.03.02-.08.04-.36-.15-.32-.57-.54-.82-.35-.07-.61-.36-.99-.49.02.52,0,.98-.42,1.29-.19,0-.36,0-.54,0-.19,0-.38.04-.55-.03-.01-.38-.03-.72-.1-1.07-.11-.56-.2-1.08-.83-1.32.03-.39-.12-.69-.43-.91-.13.02-.24-.03-.35-.1-.03.15-.23.04-.28.21.19.37.17.9.69,1.09v.76h-.52c-.2.13-.31.21-.39.26v.36c.12.12.25.26.32.33.07.25-.05.32-.14.41-.43.08-.69-.19-.97-.48-.22.21-.41.4-.61.6-.14.02-.32-.05-.52.08.15.12.28.23.4.33,0,.1,0,.17-.01.26-.36.08-.61-.06-.8-.26-.02-.18.19-.22.1-.36-.11-.06-.22-.11-.37-.18-.24.22-.53.3-.86.24-.07-.07-.13-.16-.21-.2-.13-.05,0-.26-.19-.25-.06-.02-.09.03-.11.08-.04.13.2.19.09.34-.32.17-.65.24-.99.05-.19.15-.35.36-.57.42-.26.07-.57.02-.87.02.51,1.08.45,1.05,0,2.1.17.48.2.96-.05,1.46h-.48c-.06.09-.18.13-.16.29.21.12.24.41.46.57v.27c-.1.25-.2.42-.36.54,0,.35.19.66.13,1-.06.32.12.68-.13.97-.58.03-.98.16-1.05.4.21-.18.21.11.36.08.22-.16.45-.12.7-.1-.07.89.19,1.7.31,2.59-.12.2-.38.3-.63.4-.02,0-.03.06-.04.1,0,.11.12.14.18.24h2.11c.09.11-.02.25.1.33h.35c.07-.07.14-.14.21-.2,0,0,.03,0,.04-.01.34.28.52.39.73.32.49-.16.98-.34,1.29-.8.28-.04.44.28.77.22.27-.36.74-.47,1.15-.42.41.05.82.07,1.24.08.11,0,.13.15.25.12.15-.17.51-.03.56-.35,0-.11-.24-.18-.07-.32.17.12.31.26.35.45.39.02.75-.06,1.02.1.25-.09.2-.32.36-.41.03-.02.07-.02.1-.04.11,0,.14.12.24.18v.37c.08.05.13.13.2.13.09.01.13.07.2.13.57-.12.88.28,1.23.65-.08.23.07.41.16.61.1-.19.07-.38-.01-.52.12-.36.31-.65.62-.87.53.04,1.11-.12,1.62.36-.36.32-.04.76-.29,1.09.06.05.11.1.16.15.31-.12.54-.12.78,0,.17.08.28.27.25.5-.23-.21-.48-.17-.75-.15.04.26-.22.47-.11.67.12.22.09.43.1.58.21.21.39.38.57.57.18-.03.31.13.48.18-.38.32-.85.41-1.3.56.43.39.54.97.93,1.29.03.24-.14.35-.17.51-.36-.08-.43.27-.62.37-.09.32.18.55.1.83.16.13.26.3.47.33-.08.16.21.19.09.39-.19-.02-.41.11-.61-.1-.4.4-.83.76-1.11,1.26,0,.17.22.19.24.36.02.15.18.22.31.34.06-.26.35-.21.48-.42,0-.1.01-.23.02-.35.25-.21.34-.55.69-.75h.48c-.05-.43.1-.87-.15-1.2-.21-.11-.37-.18-.55-.18-.04-.25.03-.4.27-.45.23.24.45.47.65.68h.54c.1-.14-.03-.32.09-.44.06,0,.12-.03.19.07-.17.24-.12.53-.12.82,0,.1.04.23,0,.28-.25.28-.05.51.05.75.1.25.11.24-.15.48-.38-.17-.41-.17-.7.05.02.14-.08.31.07.42.2.14.16.32.15.5-.24.31-.55.44-.94.41-.29-.02-.58,0-.86,0-.08-.08-.15-.15-.24-.24-.41.11-.76-.14-1.14-.25-.08.08-.13.14-.13.14-.17.29.03.46.09.69h.6c.07.07.12.12.17.18-.09.07-.15.2-.29.17-.17-.04-.29.05-.42.12-.39.23-.84.22-1.26.33-.16.04-.35.02-.54-.08-.19-.09-.51-.11-.67,0-.25.15-.49.04-.7.08-.37,0-.4-.38-.61-.56-.18.33-.29.72-.67.77-.33.05-.65.18-.99.15-.06,0-.11-.03-.14-.07-.03-.05-.06-.05-.1.02-.21-.03-.04.23-.2.26-.16.08-.32.17-.47.24h-1.52c-.07-.35-.36-.44-.59-.55-.12.11-.24.21-.37.32.02.08-.06.22.07.38h.85c-.17.12-.35.05-.53.18-.16.12-1.03.02-1.15-.12-.19-.21-.46-.21-.67-.34-.3.18-.19.57-.46.77-.18.09-.39.19-.55.28-.15-.12-.26-.21-.37-.29v-.36c-.31-.13-.41.12-.57.26v.87c.3.26-.07.51,0,.77.03.14.02.27.09.42.12.26.18.55.15.86-.03.36-.02.73,0,1.09.01.25-.06.46-.21.66-.02.03-.02.07-.03.1.08.14.16.28.23.42v3.21c0,.13-.02.27,0,.4.15.78.18,1.16-.02,1.68-.09.24-.11.45-.1.62.13.22.36.18.46.38v4.49c0,.13-.05.3,0,.4.21.34.06.7.11,1.05.02.16-.09.23-.2.3q-.33-.14-.6.04v.96c.15.14.31.29.45.43.02.71.94,1.28,1.52,1.3.84.02,1.67.23,2.49.13.08.07.17.12.18.18.08.46.17.92.12,1.38.3.2.39.21,1.16.1-.47-.44-.88-.86-.93-1.51.26-.02.48-.2.75-.15.3-.27.5-.02.72.13.24.16.29.47.52.63v.69q.29.2.57-.02c-.04-.37.15-.63.36-.81.38-.16.74-.14.98-.29.13-.26.24-.47.34-.67.21-.03.43.07.61-.11.04-.04.17-.03.22,0,.18.16.46.1.61.26-.05.23-.34.15-.43.35-.04.26-.03.51.14.73.09.04.19.08.21.08.14-.09.26-.16.35-.22v-.48c.17-.26.43-.14.65-.17.06,0,.12,0,.17-.09v-.36c.5-.08,1,.33,1.47-.05.04-.09.08-.18.12-.26-.09-.2-.35-.15-.46-.4.11-.26.21-.58.11-.9-.15-.04-.3.03-.42-.05.06-.08.11-.14.15-.19.06.05.1.08.16.14.34-.2.71-.29,1.11-.25.29.03.5-.12.68-.31.29-.31.69-.49,1.06-.67.28-.14.56-.24.81-.45.08-.07.23-.27.42-.14.07.18-.09.28-.14.4-.1.2-.37.19-.56.35.07.11-.05.26.05.35h.67c.05-.07.11-.14.16-.21.23.18.46.29.75.2.1-.19.35-.19.48-.36.06-.33-.03-.6-.25-.87-.12-.15-.3-.34-.17-.56h.91c.11.32.13.65.25.94.12.29.02.73.46.89.18-.17.47-.14.67-.3-.03-.14.07-.3-.08-.43-.24-.22-.3-.5-.27-.81,0-.03-.04-.06-.06-.09-.15-.08-.2.2-.36.11-.05-.08-.16-.11-.17-.27.02-.17.1-.37.21-.55.12-.19.35-.28.5-.47.11-.15.36-.2.53-.29.24.22.42.44.4.78,0,.12.09.18.18.22.3-.24.51-.57.87-.74.19-.09.27-.31.33-.49.05-.15.07-.31.11-.47.22-.85.56-1.33,1.3-1.73.06.17-.14.26-.12.42.02.15,0,.3,0,.35.09.29.25.28.39.27.15-.14.29-.27.41-.38v-.86c-.16-.07-.33.05-.44-.09.06-.37.36-.55.59-.8-.05-.17.04-.29.17-.39h.34c.38-.33.56-.76.55-1.21.17-.29.5-.08.68-.32.13-.18.44-.16.61-.41-.16-.41.15-.8.1-1.22.2-.28.36-.56.58-.82.22-.26.4-.56.35-.93.25-.06.38-.19.47-.39.17-.37.47-.65.7-1.01v-.89c.34-.28.79-.43,1.01-.77.13-.4-.21-.72-.02-1.17.02-.16.28.02.35-.13.24-.53.47-1.07.75-1.69,0-.17,0-.44,0-.71.22-.22.47-.42.47-.79,0-.11.1-.23.19-.32.23-.23.3-.5.27-.81-.01-.13,0-.26,0-.37.26-.25.48-.53.56-.83.07-.27.15-.58.13-.86-.05-.55.26-1.02.3-1.56,0-.11.05-.24.07-.37.04-.29.12-.56.35-.77,0-.45,0-.89,0-1.33,0-.18.04-.35.1-.53.12-.39.23-.8.28-1.22.03-.27,0-.59.12-.8.17-.3,0-.61.19-.9.17-.25-.24-.56-.02-.86-.23-.43.02-.8.15-1.19-.11-.17-.16-.37-.33-.48-.03-.71-.2-1.39-.13-2.09,0-.08-.06-.13-.08-.2-.18-.5-.35-1.01-.28-1.55.02-.15.04-.34-.03-.44-.14-.2-.04-.39-.07-.5.1-.28.43-.21.45-.47-.06-.2-.25-.31-.37-.48-.24-.36-.3-.76-.42-1.15-.05-.16-.03-.34-.03-.51,0-.34,0-.68,0-1.05-.2-.18-.39-.36-.59-.54v-.44c-.22-.35-.39-.69-.68-.92-.05-.31-.19-.56-.13-.83-.16-.08-.1-.25-.23-.33-.31-.2-.42-.55-.59-.85-.08-.14-.14-.29-.23-.43-.26-.41-.54-.81-.82-1.22-.41-.59-.71-1.25-1.16-1.82-.12-.15-.23-.33-.38-.4-.26-.12-.41-.33-.6-.5-.23-.21-.52-.4-.63-.66-.14-.34-.49-.38-.7-.62-.42-.48-.88-.94-1.42-1.32-.51-.35-1.03-.7-1.53-1.08-.59-.46-1.27-.81-1.84-1.3-.44-.38-.96-.68-1.5-.87-.66-.23-1.26-.52-1.72-1.04-.07-.08-.14-.17-.21-.25-.37.17-.68.05-1.22-.45h-.81c-.45-.44-1.09-.6-1.51-1.01-.49-.06-.91-.21-1.33-.41-.47-.22-.89-.6-1.46-.54-.01,0-.02-.03-.04-.04-.33-.1-.66-.19-.98-.31-.65-.26-1.35-.4-1.91-.89-.21-.18-.54-.28-.88-.26-.32.02-.63.08-.94.12-.59.08-1.16-.18-1.76-.12-.07,0-.12-.15-.25-.1-.16.2-.39.07-.49.09-.51-.17-.73-.61-1.15-.78-.1.2-.39.01-.48.24-.08.18-.3.06-.45.19-.11.1-.31.19-.47.15q-.53.53-.96.68c-.02-.15-.07-.3.1-.41-.21-.07-.05-.28-.13-.36-.22-.11-.45-.26-.61-.14-.15.12-.32.09-.46.16-.2.09-.43.21-.69.17-.38-.06-.77-.11-1.15-.18-.05,0-.1-.05-.13-.05-.32.13-.62.26-.9.38-.04.19-.19.33-.25.45-.09.08-.17.17-.27.26-.24-.1.07-.49-.25-.6-.3-.12-.55.18-.75.11-.18.18-.31.31-.45.44.05.09.21.08.35.22-.39-.04-.68.21-1.09.09-.07-.08-.18-.21-.28-.32-.71-.01-1.07.46-1.38.89-.42-.1-.71-.43-1.17-.21-.21.1-.5.07-.76.13-.42.11-.85.18-1.22.42-.18.12-.39.22-.61.15-.15.15-.29.28-.43.42-.19.2-.42.3-.7.28-.14-.01-.28-.02-.41,0-.14.03-.35.08-.38.17-.13.4-.51.37-.78.51-.27.14-.61.14-.87.41.07.16-.03.29-.18.4h-.48c-.19.3-.55.44-.81.69-.65.62-1.38,1.14-2.22,1.51-.36.16-.67.44-.86.78-.14.27-.32.49-.55.69h-.27c-.34.12-.36.43-.56.61-.27.23-.46.51-.65.82-.25.4-.49.83-.88,1.14-.11.09-.2.2-.27.34-.13.27-.51.35-.82.22-.06-.03-.11-.03-.16-.03-.05.05-.11.11-.19.18v1.27c-.17.08-.31.14-.35.16-.28.33-.46.61-.55.91-.07.22-.16.39-.29.57-.33.45-.6.93-.69,1.5-.16-.06-.2.12-.32.11-.23,0-.3.1-.36.33-.16.56-.4,1.1-.71,1.6-.2.33-.45.51-.85.48-.08-.07-.16-.15-.24-.22-.13.07-.16.2-.21.32-.02.04-.12.06-.02.13h.25c.19.19.34.33.51.5v.24c-.11.17-.28.28-.38.48-.18.35-.4.72-.88.78-.05,0-.1.09-.14.13.11.12.25,0,.37.14-.06.43-.18.88-.42,1.29-.09,0-.18.01-.29.02,0,.41-.04.79-.35,1.07-.04.32.06.65-.05.96-.12.35-.26.7-.38,1.05-.2.61-.4,1.23-.49,1.86-.09.56-.29,1.1-.27,1.68,0,.17-.08.41-.25.58-.24.24-.28.59-.17.88.07.17.05.32.08.48.08.4-.18.76-.12,1.16.04.25-.03.47-.23.65,0,.27,0,.54,0,.8.13.11.23.29.22.42-.03.45.1.89.13,1.33.04.84-.09,1.7.12,2.54,0,.03-.02.07-.03.11-.07.06-.14.13-.2.2.04.06.09.11.12.18.34.87.65,1.76.68,2.7,0,.18.15.3.13.47-.01.17-.05.36.01.51.06.14.05.31.13.4.28.31.37.69.49,1.07.11.35.3.68.44,1.02.18.44.4.87.56,1.32.16.48.35.97.73,1.21.28.72.83,1.17,1.13,1.76.3.6.69,1.17.84,1.87.12.11.23.26.48.3.26.03.5.25.53.54.02.17.13.3.17.46.46.06,1-.15,1.34.29-.09.49-.21.95-.22,1.42q.55.03.85-.09c.11.06.22.12.34.2-.1.18-.2.36-.09.63.44.07.7.55,1.17.68.1-.14.07-.24,0-.37-.1-.23-.3-.41-.29-.68,0-.26,0-.52,0-.79.15,0,.24.01.34,0,.19-.03.31.1.46.16.14.06.09.25.15.33.18.23.06.54.26.76.19.22.31.49.49.72.12.15.21.34.17.56,0,.03-.03.06-.05.1h-.24c-.14-.09-.23-.28-.4-.34-.13.05-.21.12-.24.23.11.12.1.31.29.45.14-.03.29.11.45.14.08-.06.11-.14.26-.12.06.08.15.2.3.39v.4c.28.13.47.37.81.38v.75c.32.17.67.2,1.01.27.05.26.18.51.17.75.26.23.5.32.79.22.03-.29,0-.54-.15-.75-.28-.05-.37-.3-.63-.48.38-.2.62-.45.86-.7.04-.04.08-.08.13-.1.19-.08.37-.19.59-.09.21.22.26.53.45.77.26.04.43-.19.55-.21.29-.04.4.19.47.15.18.09.32.16.38.2.11.45-.29.39-.42.6-.02.13-.04.27.04.43.21-.05.4-.23.63-.09.07.08.2.14.1.28-.39.19-.79-.34-1.13.02-.3-.08-.47-.29-.65-.46-.32.07-.44.17-.49.37.1.13.18.23.25.31.17.03.31-.05.43.06v.93c.13.18.22.3.29.4.16-.02.28.02.39-.04.28-.12-.02-.51.36-.65h.41c.09-.09.16-.16.23-.23.13-.01.26-.03.41.02v.71c.1.06.13.18.24.17.43-.17.84-.33,1.31-.38-.05-.51-.37-.77-.8-1.01h-.45c-.08-.14-.04-.28-.04-.46.06-.04.16-.11.19-.13.12-.6-.07-1.04-.43-1.42.05-.05.11-.11.15-.15.25.1.44.27.61.46.1-.02.18-.02.25-.04.07-.03.13-.08.15-.09,0-.47.01-.88,0-1.28,0-.25.1-.53-.11-.76.05-.35-.04-.69.1-1.05.12-.31.33-.62.25-.99-.18-.14-.3-.38-.6-.45.1-.12-.08-.29.12-.42.2.13.44.17.69.11.15-.37-.19-.71-.07-1.08.15-.15.3-.29.46-.45-.04-.39.1-.82-.06-1.04-.42-.43-.74-.2-1.05-.15-.06-.12-.12-.23-.18-.35.1-.31.38-.52.47-.84-.18-.23-.25-.52-.45-.74-.09-.09-.17-.27-.14-.46.05-.29-.07-.6.13-.85-.08-.14-.15-.26-.24-.42-.02-.6.09-1.26-.26-1.89-1.15.19-2.13-.22-3.03-.75-.56.12-.49.73-.84,1.01-.52.03-.98-.07-1.34-.4-.01-.16.15-.19.11-.3-.11-.2-.2-.43-.41-.54h-.4c-.21.08-.24.2-.23.35.09.27.42.31.6.53-.17.03-.26.05-.38-.02-.15-.09-.34-.17-.51-.17-.34,0-.67-.03-.98-.16-.08-.1-.21-.16-.25-.29.05-.55-.62-.78-.58-1.32.21-.31.56-.39.85-.55.12.12.21.21.31.3.05.33.1.4.28.4.08-.08.2-.11.19-.26.07-.15-.14-.21-.12-.35.02-.13,0-.26,0-.39.86-.09,1.04-.27,1.04-1.03-.48-.37-.66-.97-1.08-1.4-.14-.01-.29-.06-.45.05.31.56.48,1.18.74,1.82-.26.04-.06.28-.18.4-.38-.24-.81-.38-1.2-.57-.06-.15-.06-.29-.02-.41.12-.46.13-.46,0-.89-.05-.15.07-.35-.12-.47.11-.09.06-.26.12-.34.2-.27.15-.58.07-.81-.07-.21-.05-.39-.08-.58.15-.11.12-.33.42-.44.15-.08.21.26.42.28.17.03.24-.09.33-.2v-.44c.12-.11.23-.22.34-.33,0-.09.04-.19-.02-.26h-.67v.72c-.09.06-.13.2-.29.17-.13-.26-.27-.53-.41-.79.04-.19.23-.32.24-.52-.07-.07-.12-.12-.16-.15-.38.08-.52.4-.7.66-.14,0-.28.04-.43-.04,0-.08-.02-.19.02-.26.18-.3.38-.58.72-.74.18-.08.42-.15.48-.35.07-.25.28-.32.53-.46h.68v-.32c-.17-.19-.29-.34-.42-.48h-.69c-.06-.09-.18-.12-.16-.2.17-.17.31-.31.48-.48.49.11.99.38,1.56.35.29.24.63.11.94.1.33-.02.61.2.94.12.04-.2.2-.31.35-.46h1.18c.1-.16.1-.36.24-.47.27.08.25.29.29.46.38,0,.74,0,1.1,0,.01,0,.03-.03.06-.06v-.45c.17-.08.31-.15.49-.23-.31-.36-.67-.66-.7-1.17.08-.15.14-.38.35-.39.27-.35.27-.77.49-1.04.15-.5-.12-.82-.32-1.12-.01-.28.39-.35.2-.65-.24-.06-.39-.18-.29-.46.14-.08.32.04.42-.06v-.53c-.07-.24-.3-.07-.42-.16-.15-.12-.2-.3-.25-.44.09-.4.59-.03.69-.44v-.51c-.11-.11-.2-.21-.28-.3h-.59c-.05-.08-.16-.11-.17-.22.06-.41.55-.08.68-.39.08-.4,0-.79-.12-1.24.54-.07.58-.57.86-.87v-.78c.21-.19.27-.5.51-.61.24-.11.43-.27.64-.4v-.93c-.12-.05-.11-.19-.16-.28-.07-.13-.25-.07-.31-.21.02-.09-.04-.19.06-.26.84.35.85.35,1.45-.33-.1-.22-.15-.4-.02-.66.11-.22.21-.51.15-.8-.03-.15,0-.3,0-.45l.2-.2c.19-.51-.31-.84-.33-1.27.11-.21.41-.18.45-.36.05-.26.26-.3.42-.39.22-.13.44.02.62.13.15.09.26.09.41.02-.31-.61-1.04-.79-1.35-1.4.54-.09.98-.3,1.32-.68v-.38c.23-.1.32-.33.46-.57-.07-.26.1-.53.16-.83h.51c.22-.36.38-.74.73-.96-.04-.4.19-.67.37-.97h.5c.07.06.12.11.18.16v.52c.11.26.23.45.41.57h.35c.05-.08.17-.11.17-.29-.02-.35-.37-.55-.59-.81.04-.29.32-.27.45-.42.18-.21.37-.42.69-.44.37-.01.3-.5.62-.57.02,0,.05,0,.05,0,.09-.12.21-.2.3-.34.12-.2.2-.43.4-.57h.81c.13.09.28.14.36.25.09.12.03.34.23.43.12,0,.25.04.42-.05-.08-.32-.17-.64-.26-.97.1-.15.13-.34.28-.46h1.1c-.03.16.21.23.11.43-.3,0-.36.4-.68.4.07.41.15.48.53.53.25-.25.55-.47.54-.87,0-.01.06-.03.11-.05.14.05.21.2.33.29.04.21-.09.47.17.63h1.23c.06-.36-.33-.55-.3-.89.04,0,.1-.03.14-.01.2.07.4.21.61,0,.03-.03.18-.01.21.03.09.15.26.03.36.12.15.25-.13.45-.09.69.08.15.19.23.36.18.54-.18.77-.74,1.3-.96-.2-.09-.12-.25-.18-.41-.22.09-.24-.17-.42-.24h-.67c-.05-.09-.17-.11-.17-.17.02-.17.13-.2.15-.24.37.07.73.14,1.1.21.27.26.54.54.31.93.09.11.17.22.26.33.15-.07.28-.14.4-.2-.01-.39.29-.59.45-.88.27.14.29.4.41.59.28.05.47.22.65.42v.56c.35.39.59.87.99,1.21.21,0,.43.06.52-.2.08-.19-.12-.3-.14-.48-.17,0-.28-.14-.44-.19-.04-.01-.07-.07-.15-.16.45,0,.86-.03,1.26.01.21.02.45.08.55.37.04.13.08.34.27.4.57.18.89.74,1.5.87-.05.16-.14.23-.23.29-.13.02-.24-.03-.42-.14.11.24-.15.3-.14.48-.16-.02-.25.17-.42.12Zm-53.51,17.51c.05-.3,0-.57.14-.8.16-.25.12-.53.12-.81.35-.29.49-.65.2-1.05-.12-.17-.07-.31-.06-.46.14-.09.31.04.44-.08.32-.57.46-1.17.31-1.32-.13,0-.26-.04-.39.03-.05.06,0,.16-.09.2h-.26c-.06-.07-.13-.16-.18-.22h-.38c-.09.13-.25.18-.29.34.09.23.3.31.47.41-.01.12,0,.2-.06.29-.12.15-.3.24-.46.31-.25.1-.38.28-.48.49-.08.18-.1.34.05.51.05.05.01.18.01.28,0,.29.02.57,0,.86-.02.22.09.39.21.54.17.22.44.31.71.5Zm7.23,33.45c-.02-.45.24-.88.1-1.35-.2-.23-.58-.14-.77-.44v-.79c.14-.22.39-.22.57-.35v-.59c-.35-.22-.42-.73-.94-.88v1.48c-.42.17-.76-.15-1.18-.05.1.25-.1.47.02.71.22.47.34.99.89,1.24.22.1.33.34.39.58-.1.13-.22.27-.05.43.19.03.21-.19.36-.2.17.11.34.23.6.2Zm27.8-41.31c.07-.09.15-.15.19-.27.08-.27.22-.52.34-.78.07-.13.14-.25.12-.41-.05-.34.06-.65.17-.98.21-.08.39-.2.52-.38v-.46c-.06-.06-.11-.11-.17-.17-.09.01-.19-.04-.27.03-.16.14-.2.34-.29.51-.3.16-.69.13-.91.46.09.46.35.91.2,1.41-.43-.08-.46-.55-.75-.71q-.4.22-.59.55c.1.09.21.27.29.26.35-.04.36.26.51.42-.33.38-.9.47-1.16.96-.01.17.03.32.25.36.41-.21.75-.48.96-.89.04-.07.11-.16.23-.14.12.04.16.21.36.23Zm-31.25,35.9c-.21-.2-.3-.4-.26-.64.03-.2-.11-.34-.14-.52-.04-.22-.32-.28-.5-.41,0,0-.03.01-.04.02-.04.07-.11.1-.21.08-.25.44-.25.86.1,1.25.19.05.44-.07.53.2-.11.06-.25.08-.32.2v.59c.14.22.58.18.44.56.51.5.68.6,1.03.62,0-.26.21-.47.11-.82.08-.04.19-.08.25-.11v-.72c-.05-.05-.1-.09-.16-.16-.28.06-.55-.08-.84-.14Zm-4.02-10v-.61c-.31-.19-.38.21-.66.2-.24-.05-.48-.38-.83-.19v.37c-.12.09-.25.2-.36.29v.62c.15.15.19.34.25.53.04.17.24.29.29.44.18-.16.34-.3.53-.48v-.66h.25s.04-.02.05-.04c.15-.15.3-.3.47-.47Zm5.4-32.04c-.09-.27-.53-.83-.81-1.08h-.37v.41c.22.17.39.38.46.63-.18.31-.57.35-.7.63v.22c.1.44.62.28.72.67-.14.11-.27.21-.39.31.11.24-.15.37-.1.57.12.28.34.23.58.18.08-.12.18-.24.23-.37.07-.2-.08-.39-.1-.58-.02-.2.23-.39.05-.62-.19-.24-.01-.46.09-.66.06-.13.22-.21.34-.32Zm22.12-24.91c-.06.33.34.47.35.74-.06.32-.33.47-.5.7.12.18.24.28.45.22.1-.06.15-.22.31-.23.29.07.58.15.92.24-.1-.53.26-.8.57-1.09,0-.08,0-.16,0-.23-.05-.05-.11-.11-.16-.16-.29-.05-.58,0-.89-.1-.28-.1-.63,0-.87-.25-.06.06-.12.11-.17.17Zm-28.79,50.15c-.39-.31-.63-.84-1.26-.72-.11.38-.27.72-.25,1.13h.64c.19.18.35.34.51.51.02.3.14.65.29.86.3.06.55-.04.76-.26v-.42c-.27-.11-.51-.29-.69-.54v-.56Zm70.58-44.58h-.3c-.09.1-.2.23-.29.34h-.37c-.05-.09-.17-.11-.16-.28.1-.1.23-.23.35-.35-.03-.11.04-.21-.07-.27-.08.15-.23.1-.35.12-.25.24-.49.49-.74.73v.38c.49.39,1.08.64,1.66.86.14-.17.02-.34.15-.51.02-.22.3,0,.4-.17-.03-.3-.17-.57-.28-.84Zm-13.07-7.23c-.24.25-.55.46-.51.87.29.09.53.24.81.34.36.13.69.31.87.71.05.11.16.32.38.25.09-.22.03-.41-.09-.57.22-.24.09-.51.14-.77-.44-.26-.94-.4-1.22-.82h-.37Zm-24.37,33.87c.14.36.09.63-.08.89-.17.06-.35.1-.48.24-.1.2-.21.41-.34.66.35.03.62.15.8.38.36-.01.67.01,1.02-.02-.2-.23-.49-.26-.62-.56.02-.53.13-1.1.65-1.5.17-.13.22-.32.32-.53-.57-.14-.94.14-1.28.43Zm-11.55-29.51c-.25-.02-.43.21-.56.15-.18.12-.3.2-.52.35.34.08.32.36.54.53.21-.07.4.12.65.14.22.02.49.17.55.4.05.18.22.23.27.41.04.15.19.3.42.32.22.02.36.19.38.42.01.16.1.23.32.28.14-.16.44-.07.61-.31l-.29-.28h-.46c-.13-.13-.29-.24-.33-.44-.21,0-.38-.11-.55-.2-.08-.34-.29-.62-.48-.89-.2-.28-.14-.7-.55-.88Zm37.74,86.48v.55c.17.16.26.26.37.37.18-.22.11-.61.36-.84.29-.11.66.13.89-.18-.15-.32-.49-.38-.76-.52-.17-.1-.36-.19-.37-.36-.01-.24-.2-.31-.3-.45-.31,0-.31,0-.52.16v.94c.12.12.23.22.34.33Zm-41.33-8.57c.32-.18.41-.52.65-.73-.08-.12-.2-.19-.24-.36-.14-.5-.39-.94-1.01-.99-.04,0-.05-.11-.16-.03-.09.33-.4.64-.33,1.04.54.21.69.76,1.09,1.06Zm22.69-50.18c.28.11.54.27.87.05.16-.11.36.03.41.27-.32.21-.44.56-.6.88.11.13.12.31.28.42.07.04.17.02.31,0-.14-.24.12-.37.13-.61,0-.18.05-.42.22-.59.16-.16.13-.39.27-.61-.23.08-.3-.23-.51-.08-.13.09-.28-.11-.42-.07-.29-.21-.45-.49-.57-.78-.14-.03-.22.06-.25.13-.14.3-.21.62-.15.97Zm36.47-20.22c-.02.16.06.34-.11.47-.02.02-.1.23.13.28.29-.2.53-.48.71-.8h.64c.21.2.15.6.51.68.18.03.28-.07.35-.24-.15-.56-.57-.96-.99-1.35-.16-.05-.36.05-.49-.11-.27.16-.11.42-.14.52-.15.32-.41.35-.6.55Zm-38.07,16.2c-.47-.31-.88-.65-1.17-1.11-.11,0-.23-.03-.31.09-.22.34-.4.7-.29,1.12.22.29.56.38.89.54.28-.2.65-.25.88-.64Zm-41.14,16.19c.29.1.53,0,.78-.13v-.48c.16-.1.22-.26.43-.29.25-.04.42-.22.38-.51-.21-.21-.42-.41-.62-.61h-.64v.52c.2.19.37.39.32.72-.2.04-.39-.03-.58.06-.08.13-.16.27-.23.4.07.13.12.24.16.32Zm71.82,41.92c-.23.14-.41-.09-.65-.11-.27-.02-.49.22-.75.11-.28-.23-.61-.39-.8-.65h-.52q-.32.48-.08.78c.25-.03.5.02.76-.11.24-.12.48.19.74.09.21.2.4.39.59.58.13,0,.27-.02.36.11.12-.19.43-.04.52-.32,0-.23,0-.23-.16-.49ZM53.38,34.18c.42.18.78.57,1.38.41-.16-.18.17-.19.08-.35-.15-.13-.38-.13-.55-.33-.15-.35-.33-.75-.7-1.02-.22-.16-.45-.3-.73-.15,0,.28.32.15.35.4-.03.32,0,.68.17,1.05Zm67.89,35.05c.16.49.37.97.36,1.5,0,.05.1.11.16.16.11-.13.27-.08.41-.11.17-.04.26.15.42.12.15-.03.27.03.38.1.12-.25-.18-.39-.09-.61-.41-.4-.82-.8-1.24-1.21-.12.01-.25-.04-.39.05Zm-90.66,1.12h-.35c-.32-.17-.37-.49-.6-.66-.04-.03-.06-.05-.08-.02-.04.04-.08.08-.12.12-.15.31.16.58.08.86-.07.27-.21.52-.32.77.13.13.26.27.39.41.14-.02.28.04.4-.05-.02-.55.58-.85.59-1.42Zm58.26-33.26c.08-.54-.12-.95-.62-1.22-.22.27-.15.61-.33.85.15.17.28.31.51.37-.26.25-.49.47-.72.69v.35c.06.06.11.11.17.16.13,0,.26.04.39-.03.32-.33.34-.82.6-1.18Zm-22.23-3.29c-.71.42-1.37.9-1.95,1.55.11.08.19.13.28.2h.43c.23-.22.44-.45.75-.58.31-.12.46-.43.7-.62v-.36c-.06-.06-.11-.11-.2-.2Zm-37.08,41.3c.1.09.19.19.27.27h.55c-.04-.27.04-.52-.11-.77-.06-.11-.05-.32.05-.48.12-.19.1-.39-.11-.55h-.49c-.22.18-.29.44-.39.66-.14.32.28.55.22.88Zm4.15-16.49c.08.12.16.15.17.24.02.28-.09.49-.28.69-.12.12-.32.21-.3.45h.75c.11-.09.21-.18.31-.27-.02-.34-.03-.67.13-.96-.24-.32-.38-.72-.9-.7-.11.17-.38.25-.41.56h.54Zm45.16-28.67c.18.13.08.3.12.45.04.2-.21.32-.11.52.17.16.34.32.55.45.18.11.24.39.49.4.35-.16.35-.48.49-.82-.35.09-.48-.11-.62-.32-.21-.33-.48-.59-.92-.68Zm-42.44,18.7c0,.32.41.55.21.91-.1,0-.19.01-.29.02v.63c.05.05.11.11.16.16.17.03.3-.02.42-.19v-.44c.19-.25.51-.15.69-.36v-.28c-.23-.24-.44-.46-.64-.67-.21,0-.41-.04-.54.23Zm7.06,57.27c-.43.1-.62.42-.86.62v.54c.32.07.51.34.74.56.13,0,.26.04.4-.04.08-.52-.21-1.01-.1-1.51-.08-.08-.14-.13-.18-.17Zm32.69,2.13c.09-.52-.42-.34-.59-.55-.16.19-.42.09-.56.26-.28-.21-.6-.08-.87-.13-.17.11-.22.24-.19.4.08.17.3.15.41.29.35,0,.7-.01,1.04,0,.3.02.55-.07.75-.28Zm-41.47-53.79c.35.05.59-.07.81-.28.01-.52-.29-.88-.64-1.2h-.47c-.06.06-.11.11-.16.16-.09.52.27.88.47,1.32Zm68.98,57.79c-.16-.08-.32-.15-.48-.23,0-.43.64-.59.44-1.08-.16,0-.39-.06-.45.01-.13.17-.35.02-.47.19.2.35.12.75.14,1.12.31.31.2.8.59,1.14.1-.42.27-.76.22-1.15ZM29.31,79.39c-.27.29-.23.54-.21.77.08.07.14.12.2.17.55-.24.86-.74,1.3-1.09,0-.18.04-.36-.03-.53-.14,0-.26,0-.37,0-.1.14-.32.11-.4.28,0,.09-.01.18-.02.27-.21-.02-.36.09-.47.13Zm75.18-39.65q-.51-.57-1.07-.76c.19.24.14.46.12.68-.21.11-.23.33-.34.49.1.15.13.35.31.45.4.05.59-.41.98-.37v-.49Zm-73.66,25.3c.42.49.79.04,1.16.11v-.66c-.28.05-.27-.29-.41-.33-.22-.07-.28-.29-.52-.36-.13.26-.16.58-.38.8.19.15.14.33.15.44Zm16.88,28.76c-.19-.31-.49-.11-.61-.14-.25.22-.45.4-.68.6.27.15.27.55.66.66.18-.08.39-.17.63-.12v-.99Zm29.12-36.07c-.24-.43-.2-.8-.2-1.13-.11-.09-.15-.19-.31-.15-.04.04-.11.1-.13.13-.07.43.08.83-.11,1.21.21.34.33.43.94.72.06-.13.31-.04.32-.23,0-.04,0-.06-.01-.07-.18-.18-.35-.35-.49-.48Zm15.3,59.48c-.24-.16-.27-.16-.37-.17-.29,0-.46.21-.66.36-.49-.1-.85.1-1.14.46-.24-.06-.36.12-.52.16.18.18.34.33.52.5.2-.05.29-.08.29-.19-.01-.25.18-.35.33-.49h.46c.24-.39.73-.37,1.09-.63Zm14.3-78.19c-.15-.15-.24-.23-.32-.32-.13.13-.31.29-.46.46-.23.26-.36.55-.09.89-.13.13-.26.25-.39.38.31.19.49.21.59.1,0-.15,0-.3,0-.46.24-.23.45-.5.79-.53.12-.25-.18-.39-.12-.53Zm-2.4-2.2c-.06.38.09.73-.13,1.03.14.24.12.59.51.69.04-.04.09-.1.15-.14.06-.05.03-.1.04-.16.09-.4.15-.8.33-1.18-.25-.2-.54-.28-.9-.25Zm-49.03,8.73c-.31.32-.72.58-.72,1.13.38.06.61-.28.94-.34.08.03.12.16.24.11.18-.07.19-.26.28-.39.09-.14-.04-.35.16-.51h-.9Zm21.28-5.7c-.19.2-.32.34-.45.47v.38c.45.14.88.32,1.35.23,0-.18.21-.28.13-.51-.25-.29-.74-.21-1.03-.56Zm37.53,8.15c-.19.64-.23,1.21-.51,1.75.47.12.71-.32,1.07-.33.1-.57-.13-.99-.56-1.42Zm-81.12,47.3c.04-.3-.07-.54-.28-.74h-.72c-.17.13-.2.32-.28.46.06.3.37.37.54.56h.46c.09-.08.17-.16.28-.28Zm62.33-60.78c.1-.04.24.05.36-.04.07-.26.35-.42.37-.72-.31-.28-.74-.25-1.11-.38-.15-.05-.28.11-.44.18.12.31.51.3.61.59-.02.12,0,.24.21.37ZM27.9,79.14c-.04.28.1.61.46.84.5-.15.63-.4.55-1.03-.24-.02-.4-.27-.7-.23-.07.09-.16.21-.31.43Zm41.86-16.75c-.3.14-.31.36-.2.57.17.33.39.64.57.93.33.07.41-.18.6-.32-.24-.5-.5-.93-.97-1.17Zm-41.77,24.37c.33-.14.34-.37.22-.57-.09-.15-.03-.29-.08-.52.06-.03.17-.09.19-.1.14-.27-.02-.35-.13-.44h-.58c-.19.24-.19.5-.05.75.15.28.17.62.43.88Zm59.51,18.46c.38-.07.72.12,1.06.24.12-.11.27-.21.18-.34-.17-.25-.06-.54-.14-.85-.31.19-.69.09-.96.37-.03.18-.25.31-.14.58Zm-42.31,4.37c.32-.23.4-.54.44-.87-.06-.06-.12-.11-.19-.19-.27.08-.52-.1-.82-.11-.06.15-.27.19-.29.42.35.15.33.7.85.75Zm20.27-69.1c-.2.34-.42.69-.63,1.05.23.14.43.26.71.17.11-.23.3-.44.46-.59v-.63h-.55Zm-22.52,23.74c.11-.71.07-.86-.22-1.02-.24-.13-.48-.23-.69.05,0,.28.14.79.27.98h.65Zm64.63-21.66h-.85q-.28.64-.1.89c.3.09.55-.18.79-.12.14-.11.25-.2.33-.27-.01-.19.05-.37-.18-.51ZM41.55,108.15c-.01.33.23.5.27.74.18-.02.3.2.49.11.11-.2.25-.4.13-.66-.12-.26-.23-.53-.2-.86-.43.11-.42.55-.7.66Zm5.3-12.55h-1.11c.03.37.19.65.42.89.22.12.33-.08.47-.14.13-.05.25-.19.39-.25,0-.18.05-.36-.17-.49Zm4.01-52.48c-.46.1-.86.27-1.25.4-.08.24.06.42.14.63h.47c.44-.2.7-.49.64-1.03Zm-4.42,3.75c.02-.27-.03-.52.11-.77.07-.14.03-.34-.17-.44-.2.02-.45-.1-.61.15-.12.38.19.71.09,1.06q.28.21.59.01Zm18.59,16.8c.33-.34.84-.36,1.21-.58v-.65c-.3-.08-.56,0-.77.13-.07.19-.18.34-.14.6-.12.12-.26.26-.4.39,0,0,.05.05.11.11Zm33.03,51.54c.41-.13.65-.49.94-.75q-.04-.23-.27-.44c-.36.17-.73.36-1.01.67v.35c.11.06.23.11.34.17Zm-25.11-83.56c-.1.09-.19.19-.29.28v.49c.12.16.21.28.31.4.16-.13.33-.15.47-.17.16-.14.21-.31.28-.49-.18-.17-.36-.34-.56-.52-.05,0-.13,0-.21,0Zm4.14,89.58c.23-.16.5-.19.66-.18.2-.13.31-.21.39-.26,0-.22.05-.4-.18-.52h-.48c-.26.26-.26.74-.73.82,0,.15-.06.3.06.44.16-.04.28-.12.28-.3Zm26.43-77.22v-.64c-.28-.17-.56-.28-.85-.24-.24.15-.19.34-.17.52.59.58.63.59,1.02.36Zm5.16,43.24c-.15-.61-.17-.62-.64-.61-.39.23-.38.64-.57.99.35.07.61-.2.81-.11.17-.11.29-.2.4-.27Zm-4.1-45.57q-.4-.3-1.06-.24c.15.49.6.79.78,1.22.17,0,.22-.12.28-.19v-.79Zm-2.8,70.24c-.21-.16-.25-.47-.55-.48-.25.47-.12.97-.13,1.45.19.05.26-.06.32-.15.1-.13.27,0,.36-.12v-.7Zm-37.52-45.57c-.01-.33-.19-.56-.5-.78-.21.3-.53.43-.88.63.36.17.64.31.92.45.16-.1.36-.13.46-.31Zm-2.34,38.78c-.44-.31-.99-.32-1.34-.71-.11.16-.28.23-.42.32.09.16.16.27.32.25.24-.02.42.1.59.24.21.18.43.26.71.2.05-.09.09-.19.15-.3Zm8.32,16.96c-.17.41-.35.81-.51,1.2.07.08.13.13.19.2.11-.22.31-.08.45-.13.11-.1.21-.19.3-.28v-.4c-.1-.26-.22-.44-.43-.58Zm-34.52-30.56c.48.27.7.17,1.04-.42-.05-.11-.1-.22-.16-.33-.28-.07-.54,0-.67.09-.21.25-.25.44-.21.67Zm7.14-30.83c-.26.15-.13.4-.16.61l.28.27h.51c.18-.23.3-.48.4-.76q-.52.09-1.03-.12Zm33.72,13.31c.14.1.26.18.39.27-.02.02-.04.04-.06.06h.47c.09-.09.18-.19.29-.3-.07-.22.14-.53-.19-.72-.3.22-.67.35-.9.69Zm4.9-20.99c.16-.12.32-.18.49-.14.15.04.28.2.46.07.08-.25-.04-.45-.17-.62-.21-.2-.46-.14-.69-.13-.22.15-.13.44-.31.6.08.08.14.13.23.22Zm2.66,24.65c.29-.27.37-.56.12-.9-.24.02-.33-.41-.64-.2v.8c.11.12.19.22.27.3h.25Zm-30.58-37.94c.09.1.19.21.28.31.24-.01.44-.02.7-.03-.18-.38-.23-.75-.55-1.1-.05.21-.21.18-.3.24-.08.19-.21.36-.13.58Zm37.76-.81c-.24-.42-.36-.93-.88-1.23-.05.09-.1.17-.16.29v.41c.34.12.5.43.76.61.09-.02.19.04.29-.08Zm-47.77,26.13h.38c.06-.09.2-.13.17-.27-.26-.35-.63-.31-1.01-.29-.07.22-.26.41-.18.56.15.24.27.25.4.24.09-.09.17-.17.23-.23Zm.16-16.43c-.1.11-.2.22-.28.31v.71c.36.18.51-.18.78-.24v-.46c-.12-.2-.32-.21-.5-.32Zm19.73-15.87c.1.2-.11.32-.15.48-.25.1-.5.19-.64.43.06.06.1.1.16.16.09,0,.21.03.31,0,.13-.05.21.13.33.07v-.68c.18-.25.45-.39.68-.58.03-.02,0-.1,0-.15-.14-.07-.27-.03-.4-.03-.1.09-.19.19-.3.29Zm29.73,85.01v-.32c-.09-.09-.19-.19-.29-.28-.13,0-.26-.03-.38.02-.34.49-.35.57-.07.89.14.04.2-.17.36-.12.13.04.26,0,.39-.19Zm-54.52-57.9h.63c.18-.35.14-.67,0-1-.06,0-.14,0-.21-.01q-.45.4-.43,1.02Zm37.55,61.9c-.23.3-.23.48,0,.78h.5c.23-.33.23-.34.25-.64-.23-.17-.48-.17-.75-.14Zm-35.79-17.22c-.04.35-.45.42-.52.81.33-.03.44.43.87.29-.1-.2-.2-.38-.12-.62.05-.05.13-.13.22-.22-.04-.08.04-.19-.06-.27h-.38Zm49.55-72.44c-.36.41-.3.92-.51,1.33-.02.04-.05.15.1.15.12-.32.38-.49.7-.6.03-.01.06-.05.08-.08.02-.03.03-.06.05-.1-.12-.12-.11-.29-.15-.42-.1-.1-.18-.18-.28-.27Zm-6.64,42.97c-.14.1-.28.2-.4.28-.03.23.07.34.26.39.37-.24.52-.6.69-.96-.15-.12-.22-.29-.39-.31-.25.11-.23.3-.16.61Zm-52.05-13.95c.13-.08.16-.22.13-.38-.34-.38-.78-.43-1.27-.38v.28c.38.15.72.39,1.13.47Zm32.89-25.81c-.08-.19-.22-.25-.37-.18-.09.04-.17.09-.24.12.06.18.16.29.14.46-.03.38,0,.76,0,1.14,0,.03.05.05.07.08.04,0,.08,0,.11-.01.06-.05.11-.1.15-.14.12-.41-.18-.77-.08-1.18.06-.09.21-.13.22-.28Zm-20.98,24.4c.36.27.44.24.59-.15.09-.23.15-.45.09-.68-.27-.12-.47.04-.68.14v.69Zm-6.8-5.41c.17.11.23.27.37.31.25-.04.22-.29.32-.37-.08-.28-.12-.58-.35-.77-.21-.04-.37,0-.42.21-.02.23.22.38.08.62Zm71.99,49.66c.09.12.17.25.22.32.24.04.42.05.53-.15v-.59c-.09-.05-.12-.17-.24-.16-.1.16-.31.07-.44.16.03.16-.18.25-.06.41Zm-69.63-30.53c.28-.02.54,0,.8.12v-.78q-.22-.14-.54-.13c-.17.22-.27.46-.26.79Zm54.82-38.79c-.04.08-.13.49-.12.57.25.2.56.23.85.35.14-.28-.17-.44-.09-.6-.11-.14-.2-.24-.26-.32h-.38Zm23.27,54.88c.26-.03.33-.21.45-.31,0-.1-.02-.2,0-.29.02-.1-.17-.11-.05-.25.17-.13.46-.18.53-.55-.2.11-.25-.21-.44-.1-.24.47-.57.89-.5,1.49Zm-16.66,11.9h.65q.13-.22.12-.53c-.23-.13-.48-.19-.75-.12-.24.2-.2.41-.02.65Zm-4.03-63.89c.15-.4-.15-.64-.23-.92h-.51c-.07.3-.01.56.17.8.2-.08.38.05.58.12Zm-56.71,29.91c0,.27.13.69.24.78.1.09.21.06.31.03.2-.47.14-.8-.16-1.01-.14-.02-.27,0-.39.2Zm50.67-24.22v-.63c-.07-.06-.13-.11-.18-.16-.16.11-.36.13-.48.29v.48c.22.24.43.22.67.02Zm-7.22,13.95c-.08-.08-.17-.17-.26-.25h-.53v.39c.21.24.47.39.78.54v-.68Zm7.56,64.26c.32-.13.56-.32.73-.57.01-.14-.11-.17-.15-.24-.29-.06-.54,0-.78.16v.45c.06.05.11.11.2.19Zm-26.91-52.1c-.12-.1-.1-.31-.29-.38-.25-.06-.35.15-.49.27v.48c.1.14.21.19.36.16.21-.1.3-.3.41-.53Zm-24.66-12.7c.2.19.39.47.77.34.07-.03.14-.06.2-.09-.16-.22-.2-.38-.21-.53-.21-.07-.4-.22-.63-.13-.11.09-.2.18-.14.41Zm23.02,15.5c.2-.47.19-.48,0-.64h-.51c-.11.22-.23.42-.12.65.07.05.11.16.23.13.17.03.26-.14.41-.14Zm40.13-33.37c.44-.21.11-.47.1-.69,0-.2-.19-.25-.41-.23-.09.09-.19.19-.29.29-.01.43.34.48.6.63Zm-14.36,70.35c.06-.49-.02-.86-.53-1.01-.25.16-.13.4-.15.59.15.15.28.29.4.42h.28Zm14.12-72.48q.03.25.26.4c.28-.25.77-.38.64-.92-.44-.02-.65.28-.9.51Zm-32.88,5.22c-.13.11-.24.21-.33.29,0,.3-.05.58.27.79.2-.31.53-.52.41-.95-.15.03-.21-.1-.35-.13Zm-34.37,38.82h-.76c-.21.16-.17.34-.14.52.19.02.31.22.39.19.24-.21.38-.34.51-.46v-.25Zm53.56-35.95c.14.14.31.25.33.47.13-.03.23.03.3-.05.05-.12-.03-.22-.11-.24-.34-.09-.38-.4-.52-.64-.25.03-.52-.04-.79.05.06.21.22.29.33.41h.46Zm19.16-.79c.18.33.53.44.82.65-.23-.31-.07-.66-.14-.97-.08-.05-.12-.17-.2-.16-.17.16-.32.31-.49.48Zm-27.35,9.74c-.27-.26-.37-.68-.78-.82-.09.46-.05.79.11.94.13,0,.27-.03.39.17-.02-.25.18-.11.28-.28Zm28.86-5.07c.03-.13,0-.19-.07-.24-.31-.2-.7-.17-1.01-.33-.07.07-.13.12-.18.18,0,.13-.04.26.02.37.41.17.82-.16,1.24.02Zm-76.57,41.07v-.56c-.32.17-.68.15-.89.42.14.15.27.29.4.42.27.07.36-.16.49-.27Zm90.52-16.58c-.27.11-.28.4-.4.63.04.04.1.09.15.14h.48c.12-.21.23-.4.16-.63-.09-.1-.17-.21-.39-.14Zm-47.11-41.2c-.08.08-.17.17-.27.27.02.17-.05.36.06.54.4-.18.71-.39.9-.81h-.69Zm-30.34,3.82c-.18-.08-.36-.04-.55-.04-.04.09-.16.12-.15.24.09.15.13.34.26.43h.53c0-.12.03-.2.16-.27-.19-.05-.1-.27-.25-.35Zm-9.94,32.43c-.23.17-.43.34-.28.68.36.04.69,0,.93-.34-.17-.23-.37-.33-.64-.34Zm77.65,30.83c.25.15.51.23.8.13v-.3c-.12-.16-.2-.27-.26-.35-.24-.02-.44-.04-.54.18v.34ZM33.88,55.54c.31-.18.2-.44.21-.65-.16-.26-.4-.15-.59-.17-.03,0-.06.03-.08.04v.48c.12.17.3.19.46.29Zm47.1,19.72c-.05.16-.19.08-.24.14v.67c.15,0,.26,0,.38,0,.11-.15.37-.11.41-.35-.07-.25-.34-.3-.55-.46Zm-28.64-38.45c-.13.02-.27-.04-.39.04-.01.17-.21.28-.16.4.14.16.23.28.3.35h.41v-.63s-.1-.1-.16-.16Zm16.29,79.88c-.07.18-.03.36-.03.49.17.32.43.16.63.21.06-.06.12-.12.16-.16-.09-.28-.31-.45-.5-.64-.07.05-.12.15-.26.1Zm-30.12-63.01c-.27.09-.22.32-.22.53.16.11.27.25.25.46,0,.01.06.03.11.05.1,0,.14-.11.22-.16v-.72c-.13-.06-.24-.11-.35-.16Zm22.76,66.55v.67c.06.06.1.1.1.1.37.17.63-.08.94-.13-.37-.17-.72-.34-1.04-.64Zm-6.13-41.99c-.09-.12-.17-.25-.22-.32h-.37c-.16.12-.21.25-.18.31.14.17.23.28.29.36h.37c.11-.1.22-.18.12-.34Zm-23.42.13c-.3.06-.09-.23-.33-.24-.23-.06-.3.18-.43.29v.25c.13.17.2.28.33.46-.02-.27.19-.13.25-.25-.04-.16.05-.28.19-.51Zm5.41-18.13c-.03-.2.05-.46-.07-.78-.21.19-.37.34-.51.48.02.24-.08.49.2.63.05-.16.27-.09.39-.33Zm51.22-28.18c.18.44-.07.71-.19,1.01.09.12.2.06.25.07.16-.16.3-.3.46-.46v-.26c-.11-.11-.19-.26-.52-.35Zm-46.31,50.94c-.03-.27-.13-.45-.3-.61-.16-.03-.3,0-.41.16v.28c.12.16.2.26.26.34.23.07.33-.04.45-.17Zm65.03-2.57c.13,0,.2,0,.15,0,.21-.14.33-.22.42-.28.04-.29-.05-.48-.21-.65-.17.05-.26.2-.36.3v.62Zm-34.03-17.07c-.39-.07-.76-.25-1.18-.19.34.13.53.41.77.62.2,0,.4.04.51-.18-.04-.06-.15-.11-.1-.25Zm-23.21-24.4c-.14-.27-.35-.2-.56-.17v.62q.27.22.56,0v-.45Zm61.33,4.41v.65h.67c.04-.29-.11-.47-.26-.65h-.41Zm-73.36,7.57c.39.43-.05.76-.08,1.14.23-.09.4-.19.44-.27.09-.19.18-.38.28-.58-.11-.11-.21-.21-.3-.29h-.34Zm24.66,52.81c-.18.04-.35.28-.61.37v.28h.39c.21-.19.36-.33.53-.49-.06-.03-.14-.07-.32-.17Zm-9.43-61.53c-.13.29.03.47.12.69.16-.11.18.16.34.1.05-.02.11-.01.17-.02v-.31c-.16-.19-.29-.34-.39-.46h-.25Zm23.96,81.38v.39s.05-.05.08-.08c.07.14.15.27.19.34h.42v-.33c-.12-.15-.2-.25-.26-.33h-.43Zm-10.71-17.74c-.15-.1-.3-.06-.46-.04v.38c.09.1.18.19.27.29.14-.02.28.04.4-.05.05-.24-.1-.41-.21-.58Zm30.05-70.13c.14.09.29.05.42.03.17-.13.2-.31.28-.47-.07-.09-.12-.2-.26-.21-.17-.02-.28.14-.44.17v.47Zm-51.05,8.23c-.17-.07-.36-.03-.45-.03-.23.21-.41.38-.6.55.03.08-.07.23.15.25.12-.28.34-.46.68-.47.12,0,.23-.12.21-.3Zm28.32,76.91c.02-.19-.03-.34-.28-.39-.19.17-.38.35-.42.64,0,.05-.03.12.06.16h.22l.42-.41Zm-40.34-60.25c-.06-.05-.1-.18-.28-.16-.09.09-.2.19-.28.27v.36c.1.17.24.2.41.16.09-.07.01-.19.05-.26.05-.1.14-.17.09-.37Zm31.42,39.53c-.05.19-.21.31-.17.49.11.11.23.22.34.33.13,0,.16-.11.23-.16v-.49c-.13-.06-.24-.11-.4-.17Zm-34.54-23.78q.34.21.59-.11c-.09-.21-.11-.48-.42-.55-.12.21-.23.4-.17.66Zm79.02-33.92c-.05.2.11.27.12.41.02.23.17.31.34.26.2-.06.25-.2.17-.34-.08-.13-.16-.26-.21-.34h-.42Zm-70.4,32.45c-.36.17-.19.54-.35.77-.04.05-.02.15.14.18.13-.12.29-.27.41-.38.06-.25.04-.43-.2-.56Zm54.41-41.12c-.04-.1-.13-.04-.16-.07-.12-.12-.23-.25-.32-.35q-.4.08-.44.42c.05.05.11.11.16.16.26.03.52.03.76-.15Zm-34.23,84.33v.64c.21.06.29-.15.44-.15v-.56c-.07-.08-.12-.13-.16-.19-.1.1-.2.2-.27.27Zm52.79-15.01c-.14-.07-.2-.26-.43-.31,0,.21-.19.28-.27.44-.03.07-.05.19.03.26h.5c.06-.13.11-.24.17-.38ZM63.7,37.67c.1.11.2.21.29.31.23-.04.45.03.63-.04.06-.21-.03-.33-.16-.43-.26-.02-.52-.02-.75.16Zm-3.63-1.06h-.58c0,.31.21.47.39.65.02.02.07.01.14.03.05-.05.11-.12.17-.19-.04-.16-.17-.29-.13-.48Zm40.35,76.45c-.07.3.06.55.21.82.22-.26.23-.55.4-.82h-.61Zm-17.79-3.68c-.14.13-.28.26-.41.38.02.14-.04.27.05.4h.25c.09-.09.2-.19.29-.27,0-.2.05-.38-.18-.51Zm-6.7-55.02c0-.22.07-.44-.19-.53-.09.12-.28.1-.39.28.02.15-.07.37.17.48.12-.07.25-.14.41-.23Zm35.42,21.55c.04-.24-.05-.34-.2-.41-.25.04-.37.21-.49.44.19,0,.06.19.17.25h.23c.1-.09.19-.19.28-.27Zm-51.15-43.09c-.02.31.1.53.33.68.32-.13.26-.36.24-.5-.17-.29-.37-.19-.57-.19Zm-21.29,19.62c-.05.08-.17.11-.16.22.12.13.23.24.32.34h.21c.04-.18.26-.32.13-.56h-.5Zm81.43,7.1c0-.27-.21-.33-.31-.46-.19.03-.36-.04-.51.05-.04.18.02.31.17.41h.65Zm-70.78-16.87c.05-.14.29-.18.27-.39-.05-.05-.11-.11-.16-.16h-.53v.46c.19-.16.19.12.42.09Zm29.23,11.94c.1-.09.22-.18.28-.29.03-.06.05-.18-.03-.27h-.38c-.14.16-.37.26-.26.53.12.07.26.02.39.03Zm.75,68.68c0-.18,0-.37,0-.56,0-.02-.05-.04-.09-.07-.18.04-.25.2-.35.28v.51c.18.06.31.02.44-.16Zm-39.66-62.25c-.14,0-.25,0-.24,0-.2.14-.32.23-.42.3,0,.16.11.19.16.26h.41c0-.19.21-.32.09-.56Zm62.53-16.35c-.14-.29-.21-.58-.57-.64-.04.51.01.61.31.78.1-.05.18-.1.26-.14Zm-70.53,15.28c-.11-.17-.24-.24-.44-.17-.12.3.1.52.13.78.18.01.23-.11.31-.18v-.43Zm5.71,17.1c.01.12-.04.25.01.33.13.17.26.21.43.14v-.63c-.18-.07-.31-.03-.45.16Zm11.34-23.61c-.08-.18.01-.31-.08-.44h-.49c-.05.08-.17.11-.16.22,0,.11.11.14.16.22h.57Zm23.25,4.64c-.05-.07-.16-.02-.25-.04-.12.1-.25.2-.32.33,0,.14.12.17.17.24h.4v-.53Zm50.03,26.52v.71c.16-.29.24-.55.49-.72-.11-.12.05-.28-.11-.38-.28-.01-.25.29-.38.39Zm-53.71-28.05c-.17-.19-.21-.46-.47-.56-.06.07-.11.12-.19.2.2.15.07.46.34.57.05-.13.21-.06.32-.22Zm-25-6.14c.06.19.13.36.3.5h.27c.03-.21.09-.41-.14-.55-.13,0-.28-.05-.43.05Zm-6.51,5.16c.09.07.14.23.35.14-.06-.17.12-.3.12-.48,0-.05.02-.11-.04-.15-.19-.09-.31.02-.42.16v.34Zm15.52-20.09c.34-.15.43-.37.45-.63,0-.03-.02-.06-.04-.12-.07,0-.15-.02-.21,0-.08.03-.15.11-.19.15v.59Zm42.04,8.5c.1.33.43.36.67.54.13-.34-.12-.45-.26-.6-.13.02-.27-.05-.41.06Zm-43.69-1.24c.16.06.32-.01.42.14.15-.13.25-.26.11-.44-.08-.11-.18-.14-.3-.11-.2.05-.25.2-.22.42Zm5.18-6.18c.08.06.15.24.31.25.11-.12.2-.23.3-.33-.1-.07-.16-.23-.37-.27-.07.1-.16.23-.24.34Zm23.84,83.04c-.23-.1-.36,0-.48.15.05.11-.04.24.05.36.19.08.32-.02.43-.16v-.35Zm-36.35-11.27c0,.06-.04.19.04.34.13-.06.28.06.41-.06,0-.39-.08-.52-.28-.52-.04.06-.09.13-.17.24Zm-11.35-11.37c-.14.33-.35.36-.55.37-.02.25.04.4.28.44.19-.19.34-.39.27-.81Zm15.03-44.73c.11.29.3.5.3.77.08,0,.11,0,.18-.01v-.54c-.14-.07-.18-.31-.47-.22Zm-16.07,32.99c-.09-.23-.2-.41-.39-.53-.05.05-.11.11-.15.14v.26c.12.15.27.19.41.25.04-.04.08-.08.13-.13Zm16.1-31.89c-.19.09-.3.24-.22.41.08.17.25.28.45.13,0-.2.06-.42-.24-.54Zm48.01-17.24c.11-.13.16-.2.24-.3.02-.14-.04-.29-.24-.35-.21.05-.25.2-.23.41.05.05.11.12.22.24Zm-54.49,28.03c-.17.07-.37-.06-.51.07-.01.17.11.21.16.27h.51c.08-.16-.05-.21-.16-.34Zm13.45-18.9h-.52c-.17.14-.23.27-.11.44.31.05.41-.17.62-.44Zm24.28,77.59c-.11-.09.11-.27-.13-.38-.25.08-.26.34-.4.54.21.07.36.06.52-.17Zm-28.22-87.7c-.26-.04-.42,0-.46.25-.03.16.08.23.17.29.11-.09.21-.18.29-.25v-.29Zm37.18,47.34c.09.08.2.18.3.27.06-.06.12-.11.17-.15q-.06-.38-.46-.37c0,.07,0,.15-.01.26Zm-1.09-49.3c-.25.3-.25.38,0,.67.22-.14.18-.34.14-.53-.06-.06-.1-.1-.14-.14Zm4.95.68c-.24,0-.44,0-.65,0-.03,0-.05.09-.08.15.13.07.25.13.38.2.06-.16.34-.04.34-.36Zm-60.63,58.11c.35-.33.35-.38-.03-.61-.16.1.04.34-.19.4.08.08.14.13.22.21Zm39.86,11.54v-.41c-.23-.08-.37-.01-.46.2.07.21.22.27.46.21Zm-19.42-53.37c-.06-.24-.14-.41-.31-.54-.03-.03-.1,0-.15,0-.06.11-.04.2-.02.29.14.08.18.3.48.25Zm15.27-18.13c-.24.04-.43-.03-.61.06-.01.18.11.22.18.3.21.03.36-.04.43-.36Zm33.42,82.64c.47-.03.52-.09.37-.45-.13.06-.25.12-.37.18v.27Zm-57.34-4.74c.17-.02.23.24.46.14.04-.19,0-.35-.21-.42-.07-.03-.19-.04-.25.06v.23Zm25.2-55.52h.54c.01-.12.07-.23-.04-.32-.24-.03-.4.08-.5.32Zm-23.21,7.98c-.16-.07-.31-.07-.47,0q.16.29.47.24v-.24Zm-11.39,30.94c-.08.25-.02.4.25.48.06-.06.12-.12.21-.2-.18-.07-.21-.26-.46-.28Zm38.55-41.96c-.18-.06-.32-.06-.46-.01-.02.12-.07.22.03.32.21.03.37-.03.43-.3Zm35.09-11.75c-.06.27,0,.43.28.47.07-.17.07-.32,0-.47h-.28Zm-33.68-4.68c-.05-.19.02-.33-.06-.47-.11-.01-.22-.06-.31.04-.03.21.04.36.37.43Zm-10.62-1.98c.28.02.44-.04.46-.31-.17-.04-.31-.05-.46,0v.31Zm5.68,22.71v-.4c-.11-.09-.18-.24-.36-.07.13.13.13.33.19.5.08-.01.11-.02.17-.03Zm25.59-12.71c-.07.08-.19.14-.09.2.1.1.2.19.27.26.02-.14.06-.34-.18-.47Zm17.89-.5c-.25.14-.37.34-.32.45.1.05.21.06.32,0v-.44Zm-65.57-5.39c-.07.33.2.37.32.51.06-.05.09-.07.14-.11-.09-.19-.21-.33-.46-.4Zm13.37-7.02c-.16.16-.31.24-.36.42.07.07.13.13.19.2.06-.06.12-.12.17-.17v-.45Zm5.54,34.12c-.18.06-.29.12-.3.2.08.14.12.21.16.28.19-.14.25-.27.14-.49Zm-29.33-14.99c.14.19.28.25.46.17.02-.1.06-.21-.03-.3-.16-.04-.24.14-.43.14Zm-6.02,41.56c-.05-.17-.19-.24-.28-.35-.03-.04-.05-.04-.1.04.05.1-.07.25.06.38.09-.02.19.03.32-.07Zm13.88,20.04q.48-.03.51-.34c-.23-.02-.29.19-.51.34Zm21.06-51.14c-.04-.17-.1-.29-.31-.27-.07.12-.07.22,0,.32.11.01.22.06.32-.05Zm-31.3,38.52c-.32.16-.34.18-.26.31.1.05.21.06.31,0,0-.1.07-.22-.05-.3ZM78.62,31.16c-.16-.24-.37-.22-.6-.16.16.24.37.22.6.16Zm-4,75.31c.04-.15.05-.29,0-.43h-.2c-.02.19-.03.35.2.43Zm16.22-2.7c-.13-.05-.25-.09-.34.03-.02.15.11.19.17.27.06-.09.2-.13.17-.31Zm-19.91,20.06c0,.15-.05.3.04.46q.15-.2.14-.46h-.18Zm26.63-88.63c.07-.11.07-.21,0-.33h-.14c-.07.11-.07.21,0,.33h.14Zm9.06,46.15c.19-.14.23-.28.14-.47-.18.13-.24.26-.14.47Zm-.78,28.39c-.07.04-.14.08-.25.13.16.08.21.26.38.13.08-.17-.09-.21-.13-.27ZM55.52,44.61c-.01-.14.13-.34-.24-.33.06.12-.03.22.07.33h.17Zm14.43,9.76c.07-.11.07-.21,0-.33h-.14c-.07.11-.07.21,0,.33h.14Zm37.69,53.66c.11-.07.23-.15.45-.29-.33.02-.44.1-.45.29Zm-35.08-48.65c-.02.15.09.21.19.28.06-.12.07-.23,0-.33-.07-.03-.14-.03-.19.04Zm-22.82-14.58c-.07-.22-.15-.19-.24-.13-.02.1-.06.21.02.29.07-.05.15-.1.22-.16Zm.78-11.87c-.12,0-.2-.02-.22.09,0,.14.09.19.22.21v-.3Zm71.89,39.18c.14.06.11.21.21.29.06-.06.11-.11.17-.17-.1-.06-.14-.23-.37-.13Zm-42.69-12.67c.08-.08.09-.15,0-.23-.05,0-.12-.02-.16.05-.03.07-.02.13.05.18h.12Zm-13.98-28.01c.12-.2-.05-.25-.14-.34-.12.2.05.25.14.34Zm-4.21,39.03c-.07.05-.09.13-.04.18.05.05.08.16.19.14.08-.18-.09-.23-.15-.32Zm19.64-17.21c-.01.26.09.26.23.17,0-.06.02-.12-.06-.17h-.18Zm30.17,51.54c.08.13.14.23.2.33.07-.12.07-.22,0-.33h-.2Zm-57.31-57.78c-.01-.07-.02-.13-.03-.17-.09-.05-.16-.04-.21.03-.01.15.04.21.24.14Zm32.84,32.56c-.08.04-.16.07-.25.11.12.09.18.09.25.03v-.14Zm-20.38-15.15s-.04.11.05.19c.05,0,.1-.02.26-.05-.16-.07-.24-.11-.32-.15Zm-22.03,45.35c-.11-.07-.18-.11-.23.02.07.06.14.06.23-.02Zm35.48-25.42c.08-.08.08-.15,0-.23-.08.08-.08.15,0,.23Zm33.68-36.62c-.08.08-.08.15,0,.23.08-.08.08-.15,0-.23Zm-38.92,26.51c.05-.04.05-.08,0-.11-.05.04-.05.08,0,.11Z"/>
  <path class="cls-1" d="m27.7,61.94c.23.18.43.38.74.36.03.17.16.27.27.38v.52c-.4.13-.73.43-1.2.34-.21-.16-.4-.35-.52-.66v-.44c.14-.08.33.03.41-.16.06-.13.08-.29.3-.35Z"/>
  <path class="cls-1" d="m46.91,115.88c-.16-.3-.3-.57-.46-.88,0-.12-.05-.31.05-.51.53.32.94.71,1.33,1.11-.09.24-.25.42-.46.6.08.41.21.84.11,1.29-.09.04-.19.07-.2-.07-.01-.16-.19-.18-.24-.36.09-.38-.21-.78-.12-1.16Z"/>
  <path class="cls-1" d="m30.71,52.77c-.22.3-.07.65-.13.98.17.1.34.03.53.06.11.13.24.27.4.45v.6c-.18.18-.36.35-.54.53-.17-.16-.4-.32-.51-.6v-.74c-.15,0-.28-.01-.4-.02-.1-.08-.02-.19-.08-.3.13-.11.27-.22.38-.31-.05-.26.19-.42.12-.65.11,0,.17,0,.22,0Z"/>
  <path class="cls-1" d="m74.69,29.59c.27-.22.18-.64.61-.7.07.22.1.48.29.65.12.1.26,0,.42.08.04.05.17.09.15.23-.02.03-.04.07-.07.08-.08.01-.17.03-.23,0-.41-.25-.77-.03-1.14.15-.24-.35-.61-.47-.98-.57v-.91c.14-.1.09-.41.43-.38,0,.2.02.4.03.63.15.23.32.49.5.75Z"/>
  <path class="cls-1" d="m40.05,42.58c-.08.28.34.56-.09.78h-.71c-.16-.34-.39-.67-.47-1.04-.09-.38-.49-.66-.33-1.13.26.16.57.22.77.52v.41c.2.27.46.43.84.46Z"/>
  <path class="cls-1" d="m71.14,27.7c-.04.08-.11.04-.16.05-.15-.24-.21-.54-.5-.69-.14.03-.24.19-.46.1-.2-.54-.29-1.17-.75-1.67.41-.12.69.26,1.06.2v.63c.46.35.69.84.81,1.39Z"/>
  <path class="cls-1" d="m37.69,109.15c-.23-.16-.29-.41-.44-.59-.26-.31-.04-.61.05-.91.02-.07.03-.18.11-.24h.24c.16.17.33.35.52.54.02.43.05.9-.48,1.2Z"/>
  <path class="cls-1" d="m62.52,31v.52c-.21.06-.27-.07-.34-.21-.13-.25-.14-.56-.37-.77-.1-.07-.22-.02-.36-.04-.33-.18-.4-.55-.58-.86.72-.08.81-.03,1.2.64.14.25.2.55.45.72Z"/>
  <path class="cls-1" d="m39.2,40.37c.1-.13.17-.22.33-.23.22-.02.44-.13.55-.33.16-.28.46-.38.64-.62.3.21.02.38,0,.55-.02.11-.17.19-.27.28-.18.17-.32.36-.29.62.01.17-.1.23-.23.33-.21-.21-.54-.29-.72-.6Z"/>
  <path class="cls-1" d="m65.63,28.55h-.35c-.18-.17-.36-.35-.53-.52,0-.33.19-.55.41-.74h.36c.35.37.37.78.12,1.26Z"/>
  <path class="cls-1" d="m28.24,66.41c-.18.07-.38-.08-.49.14-.3-.22-.65-.35-.88-.64.13-.09.27-.03.4-.05.08.08.16.15.23.21.39-.19.42-.77.95-.78.07.59.06.64-.21,1.12Z"/>
  <path class="cls-1" d="m66.23,26.61c-.19-.22-.59-.16-.69-.55.58-.04,1.07.35,1.62.17.02.5-.14.72-.71,1.06-.16-.06.02-.24-.1-.31-.14-.08-.04-.25-.11-.35Z"/>
  <path class="cls-1" d="m68.71,27.25c-.13.17-.22.29-.27.37-.22.05-.32-.02-.44-.18.06-.39.19-.82.13-1.21.08-.09.13-.15.17-.2.24-.02.26.23.42.27v.96Z"/>
  <path class="cls-1" d="m30.71,52.77v-.63s.02-.04.04-.04c.13-.03.26-.03.39,0,.22.6.71.95,1.21,1.29-.09.11-.17.04-.23.08-.45-.28-.79-.76-1.4-.7Z"/>
  <path class="cls-1" d="m112.66,103.5q.28-.08.73-.67h.38c.07.1.07.22.03.27-.16.21-.37.35-.64.42-.18.23-.11.63-.49.77v-.8Z"/>
  <path class="cls-1" d="m68.69,29.38c.23-.49.58-.85.61-1.35.11-.05.22-.11.33-.16.14,0,.22.16.24.52-.53.13-.55.84-1.18,1Z"/>
  <path class="cls-1" d="m33.75,47.49s.06.03.1.04c.07.2-.14.24-.22.36v.33c-.29.43-.98.4-1.11,1,.12-.77.79-1.15,1.23-1.73Z"/>
  <path class="cls-1" d="m29.32,58.79c.17-.06.31-.21.52-.16.04.05.1.11.15.17v.73h-.41c-.12-.16-.24-.48-.27-.74Z"/>
  <path class="cls-1" d="m71.39,28.18c.42.12.75-.2,1.15-.06v.27c-.15.02-.26.13-.37.25h-.5c-.08-.12-.29-.18-.28-.46Z"/>
  <path class="cls-1" d="m31.47,101.21c-.13-.13-.27-.27-.39-.39v-.56c.33.14.59.31.8.55.04.19-.22.23-.12.4h-.28Z"/>
  <path class="cls-1" d="m28.43,56.1c.16,0,.32,0,.47,0,.11.11.25.19.21.28-.09.28-.32.26-.44.41-.08-.11-.15-.21-.28-.38,0-.03-.04-.18.05-.31Z"/>
  <path class="cls-1" d="m48.12,114.75h-.36v-.67c.06-.07.16,0,.24-.02.1.11.2.23.32.37.01.09-.03.2-.2.32Z"/>
  <path class="cls-1" d="m68.85,30.28h.5c.07.09.2.14.17.28-.29.25-.51-.14-.78-.04-.02-.22-.27-.36-.1-.58.12.07.19.17.21.34Z"/>
  <path class="cls-1" d="m27.85,58.85q.16.21.18.5c-.07.15-.29.05-.35.32-.1-.18-.15-.26-.22-.4.04-.14.27-.25.4-.42Z"/>
  <path class="cls-1" d="m44.14,114.98c-.08,0-.15,0-.22-.01-.07-.14-.03-.27-.04-.42.2-.04.39-.04.59,0,0,.07.02.12,0,.14-.1.1-.21.2-.32.3Z"/>
  <path class="cls-1" d="m51.1,118.3c0,.12,0,.19.01.29-.12.11-.22.26-.44.34v-.59c.13-.08.28,0,.43-.04Z"/>
  <path class="cls-1" d="m73.14,25.34c0,.11-.12.15-.17.22-.11-.14-.37-.09-.41-.3-.02-.14.09-.17.16-.26.13.13.38.1.42.34Z"/>
  <path class="cls-1" d="m65.09,29.41v.6c-.22.11-.35.02-.46-.16,0-.28.3-.22.46-.44Z"/>
  <path class="cls-1" d="m37.13,43.41c-.01.08-.02.11-.03.16h-.64c-.1-.19.08-.23.14-.32.21-.06.34.1.53.16Z"/>
  <path class="cls-1" d="m35.7,44.43c.08-.15.14-.27.2-.38.18-.03.19.13.32.16-.08.15-.14.28-.2.4-.15.03-.2-.09-.32-.19Z"/>
  <path class="cls-1" d="m61.46,26.83v.44c-.25.05-.27-.2-.43-.23.07-.2.22-.24.43-.21Z"/>
  <path class="cls-1" d="m55.54,30.17c.08-.25.3-.22.41-.35.03.15.32.04.28.3-.22.08-.45,0-.69.05Z"/>
  <path class="cls-1" d="m25.33,76.42c-.22,0-.29-.1-.33-.23.05-.12.11-.23.3-.23.1.14.04.29.03.46Z"/>
  <path class="cls-1" d="m63.39,26.61c.08.07.14.12.19.16,0,.18-.12.25-.26.29-.15-.07-.13-.18.07-.46Z"/>
  <path class="cls-1" d="m26.99,60.32v-.26c.11-.1.23-.09.36,0-.04.2-.13.32-.36.26Z"/>
  <path class="cls-1" d="m63.17,29.17c-.18-.18-.28-.27-.39-.39.23-.02.29.12.39.39Z"/>
  <path class="cls-1" d="m31.29,56.46c-.13-.08-.28-.13-.2-.36.15.08.23.18.2.36Z"/>
  <path class="cls-1" d="m68.15,29.25h.16c.06.07.06.14-.03.24-.04-.08-.09-.16-.13-.24Z"/>
  <path class="cls-1" d="m28.77,61.68c.04-.06.08-.13.15-.24q.02.28-.15.24Z"/>
  <path class="cls-1" d="m31.3,56.44c.06,0,.09.02.1.07,0,0-.03.04-.03.03-.05-.01-.08-.05-.07-.1Z"/>
  <path class="cls-1" d="m122.9,87.66c0-.06.02-.09.07-.1,0,0,.04.02.03.03-.01.05-.05.08-.1.07Z"/>
  <path class="cls-1" d="m54.72,98.83c-.03-.2.12-.33.19-.54.17.17.37.17.57.15.15.3.3.58.63.69.12,0,.15-.11.22-.16,0-.2,0-.41,0-.6-.05-.05-.1-.09-.16-.16-.25,0-.54.03-.76-.18,0-.04,0-.07,0-.16.81-.04,1.47.3,2.1.71-.03.21.08.41-.24.53h-.5c-.15.1-.02.25-.11.33-.12.09-.08.2-.09.33-.13.12-.28.25-.43.38-.39-.51-1.02-.8-1.43-1.33Z"/>
  <path class="cls-1" d="m51.45,84.67c.27.12.51-.14.8-.1-.2.81-.07.66-.99.93-.07.12-.02.26-.04.38-.05.05-.11.11-.16.16-.02-.03-.06-.05-.06-.08,0-.46-.09-.95.45-1.31Z"/>
  <path class="cls-1" d="m90.05,74.6c-.3.31-.51.52-.72.74v.23c-.16.08-.34.02-.5.04-.12-.07-.2-.38-.19-.76.19-.02.28-.17.38-.26h1.02Z"/>
  <path class="cls-1" d="m80.85,61.99c.23-.27.58-.24.86-.44.14.42-.14.72-.23,1.04-.05.21-.32.38-.64.39v-.99Z"/>
  <path class="cls-1" d="m58.8,67.75c.06-.06.11-.11.18-.18.09.1.18.19.28.31-.06.27.17.53.13.83-.03.3,0,.6,0,.9-.22.07-.35-.06-.34-.2.04-.52-.13-1.01-.24-1.5-.01-.05,0-.11,0-.16Z"/>
  <path class="cls-1" d="m80.64,60.13c.31.31.87.34.98.87-.07.06-.21.03-.27.15-.15,0-.31,0-.46,0-.48-.48-.48-.5-.25-1.02Z"/>
  <path class="cls-1" d="m61.82,93.56v.61c-.1.09-.17.2-.3.16-.11-.03-.14.11-.24.09v-1.15c.23.07.41.14.54.29Z"/>
  <path class="cls-1" d="m75.78,47.83c.1.25-.15.27-.17.42.09.09.13.22.05.37-.27-.19-.67-.11-.88-.38-.03-.14.06-.23.13-.25.29-.07.59-.11.88-.17Z"/>
  <path class="cls-1" d="m54.28,97.5v-.51c.1-.05.15-.02.22.03.05.04.13.06.2.08.23.36.14.74.14,1.15-.32-.21-.28-.61-.56-.75Z"/>
  <path class="cls-1" d="m51.21,82.57c.16-.16.28-.28.41-.4.11,0,.22-.07.31.05.02.18-.18.23-.24.37.14.21.16.44.1.71-.29-.18-.25-.58-.57-.74Z"/>
  <path class="cls-1" d="m84.85,54.38c-.08-.08-.13-.14-.18-.19.09-.56.53-.83.95-1.15-.25.44-.5.87-.77,1.33Z"/>
  <path class="cls-1" d="m82.85,104.77c-.21.39-.17.73-.49.92-.18-.04-.26-.2-.37-.3-.02-.1.02-.17.09-.2.23-.09.45-.2.77-.42Z"/>
  <path class="cls-1" d="m58.48,99.81c-.06-.07-.11-.13-.19-.21.16-.1.3-.19.44-.27.08-.07.21-.07.29.19v.29h-.54Z"/>
  <path class="cls-1" d="m84.94,105.69c-.31.27-.4.28-.54.12-.14-.15-.11-.24.16-.49.15.08.25.2.38.37Z"/>
  <path class="cls-1" d="m50.48,83.15c.33.15.41.42.57.69-.19,0-.31-.14-.47-.08-.04-.2-.28-.34-.1-.62Z"/>
  <path class="cls-1" d="m60.9,62.34c-.02.15.03.28-.04.4-.15.08-.2-.05-.3-.12v-.4c.16-.09.21.05.33.13Z"/>
  <path class="cls-1" d="m59.88,65.66c-.13.12-.23.06-.32.08-.11-.13-.04-.28-.05-.41.03-.05.05-.06.08-.02.09.11.23.19.28.35Z"/>
  <path class="cls-1" d="m86.36,52.41c.03.32,0,.35-.43.32.16-.13.24-.29.43-.32Z"/>
  <path class="cls-1" d="m73.54,68.59c.07.1.21.14.18.29-.09.12-.21.09-.33.04-.09-.18.1-.21.15-.32Z"/>
  <path class="cls-1" d="m86.97,52.14c.17-.08.27-.09.38-.02v.14c-.18.13-.23-.06-.38-.12Z"/>
  <path class="cls-1" d="m94.82,100.11c-.11.08-.14.25-.36.13.11-.08.14-.25.36-.13Z"/>
  <path class="cls-1" d="m51.69,95.75c-.04.05-.08.05-.11,0,.04-.05.08-.05.11,0Z"/>
  <path class="cls-1" d="m97.14,97.99c0-.06.02-.09.07-.1,0,0,.04.02.03.03-.01.05-.05.08-.1.07Z"/>
  <path class="cls-1" d="m34.97,99.11c-.3-.16-.51-.23-.75-.18-.01-.27.19-.34.29-.47h.28c-.03.19.09.34.18.65Z"/>
  <path class="cls-1" d="m42.49,45.31c.08,0,.12.04.12.11-.08,0-.12-.04-.12-.11Z"/>
</svg>