<?xml version="1.0" encoding="UTF-8"?>
<svg id="Layer_1" data-name="Layer 1" xmlns="http://www.w3.org/2000/svg" viewBox="0 0 150 150">
  <defs>
    <style>
      .cls-1 {
        fill: #bc0056;
      }
    </style>
  </defs>
  <path class="cls-1" d="m28.03,98.3c.04-.29-.23-.48-.28-.76-.03-.18-.1-.38-.1-.57,0-.37,0-.74,0-1.11,0-.2.06-.41-.14-.52.06-.44.44-.65.52-1.02-.54-.67-.83-1.3-.86-1.94h.68c.18-.41-.08-.72-.26-.98-.19-.28-.4-.52-.49-.86-.03-.13-.07-.32-.27-.39-.08,0-.18-.04-.28.02-.06.1-.03.2-.02.29.16.16.33.32.47.46v.59c-.52-.4-.78-.9-.72-1.5.05-.57-.24-1.11-.12-1.66.32-.45.29-.94.17-1.43,0-.04-.06-.07-.05-.1.07-.27-.09-.5-.13-.75-.03-.16.11-.25.13-.38-.21-.4-.16-.82-.07-1.22.09-.38.21-.75.2-1.16-.02-.53-.08-1.09.02-1.6.1-.48.06-.96.11-1.44.03-.28-.14-.5-.13-.75.02-.42-.07-.83.1-1.25.08-.21.1-.51-.06-.76-.1-.16-.03-.35-.03-.52.08-.15.22-.17.35-.23,0-.04.03-.09.02-.12-.15-.3-.23-.62-.25-.95-.01-.27.01-.54,0-.8-.01-.21,0-.41-.09-.64-.1-.27-.1-.63.1-.93-.07-.56.15-1.14-.13-1.68.08-.45-.2-.86-.13-1.31.09-.59-.23-1.15-.09-1.79.04-.03.12-.09.2-.15.06-.3-.04-.61.14-.89.05-.08.03-.22-.04-.34-.19-.34-.22-.71-.2-1.09.01-.23,0-.45,0-.68-.41-.38-.43-.9-.52-1.36.21-.26.54-.26.75-.49v-.9c-.24-.15-.58-.2-.74-.53.02-.42.35-.65.61-.92-.06-.32-.47-.09-.6-.43.04-.14,0-.35.08-.6.09-.27.12-.64-.06-.94-.04-.06-.03-.15-.03-.23-.01-.34.02-.67-.11-1.01-.06-.16-.06-.38.05-.59.12-.23.1-.49,0-.75-.21-.53-.33-1.08-.31-1.67.03-1.11,0-2.22,0-3.4.31.13.64.09.82.4.23-.06.34-.17.31-.39-.02-.03-.02-.08-.05-.1-.22-.2-.4-.46-.7-.58-.1-.04-.19-.16-.25-.26-.22-.34-.3-.74-.49-1.1-.11-.21.06-.5.21-.69.11-.14.12-.34.31-.43-.23-.27-.15-.56-.17-.85.16-.15.33-.31.49-.46v-.41c-.13-.19-.4-.16-.48-.38.02-.02.05-.05.08-.08.05-.08-.07-.08-.07-.13.04-.8-.19-1.59-.15-2.44.47-.11.84-.35.9-.85.1-.01.17.02.21-.06.02-.23,0-.44-.1-.68-.16-.33-.28-.69-.26-1.07,0-.25,0-.49,0-.69-.12-.22-.2-.42-.36-.57.64.05,1.22.27,1.77.5.17-.15.07-.3.1-.43-.28-.35-.45-.81-.97-.85-.12-.24.1-.38.12-.57.12-.02.23-.07.32-.2v-.62c-.37.22-.8.19-1.04.54-.06-.06-.11-.1-.17-.16-.15-.57.22-1.09.24-1.65.26-.31.69-.26.99-.49-.27-.72-.89-.98-1.63-1.22-.04-.04-.14-.15-.24-.25.02-.05.07-.06.14-.06.1,0,.23-.03.3.02.36.27.81.28,1.2.43.23.09.44.09.6-.14v-.73c.34-.23.69-.29,1.08-.03.07.15.2.32.38.44.26-.77.35-.96.9-1.28.48-.2.85.12,1.26.05.07-.17-.04-.41.22-.48.08,0,.17,0,.25,0,.08.27.32.41.5.63.41-.02.82-.2,1.25-.13.11-.15.32-.14.45-.29.15-.19.33-.09.49.09v.99l.23.22c.16-.46.52-.67.93-.76.44.09.07.57.44.72h.56c.15-.15.3-.31.46-.47-.22-.24-.69-.13-.89-.53-.19.04-.38.08-.63.13-.18-.09-.42-.22-.67-.35-.09-.29,0-.59-.14-.88-.13-.27.11-.52.28-.74.07.07.13.13.2.2,0,.11,0,.23,0,.36-.02.33.14.59.4.76.28.19.61.3.91.44.22-.24-.07-.39-.06-.58.02-.2,0-.41,0-.51.14-.44.38-.63.77-.67.12-.01.22-.15.35-.24.13.07.27.13.4.2-.03.3-.43.52-.11.92-.2.19-.42.39-.65.6-.04.15.04.27.18.37h.39c.17-.11.18-.32.31-.45,0-.16-.22-.26-.1-.5.09-.07.23-.19.33-.27.06-.33-.26-.59-.09-.8.18-.21-.04-.49.2-.62-.18-.3-.68-.2-.75-.65.22-.02.48.02.6-.08.16-.13.43.08.48-.36-.09-.21.48-.56-.01-.96.17-.12.31-.21.44-.3.13-.09.27-.02.39.15-.06.42.02.84.26,1.2-.14.53-.59.78-.89,1.14.07.1.23,0,.27.16.21-.15.45-.08.67-.1.18-.16.26-.37.48-.5.19-.11.36-.3.48-.53.15-.28.44-.46.84-.45v1.22h.73s.11-.11.17-.17v-.57c.09-.08.23-.2.36-.31-.28-.23-.62-.15-.95-.17-.18-.29-.38-.57-.71-.81.29-.08.55-.04.81-.05.25,0,.5.01.75,0,.27-.02.51.04.74.18v.68c-.09,0-.13.04-.13.12-.06-.01-.1.02-.11.07,0,0,.03.04.04.04.06-.01.09-.05.07-.11.09,0,.13-.04.13-.12.14-.02.19-.15.31-.24.11,0,.26-.01.39-.02.05-.09.19-.12.18-.25.03-.19-.3-.04-.24-.29.44-.26.94-.18,1.43-.19.08.08.15.15.25.25.41-.04.84.04,1.22.28.15-.16.08-.32.08-.47-.08-.07-.15-.15-.23-.23.11-.07.22-.13.33-.19q.59.23.79.5c.22-.04.07-.24.16-.36h.68c.15.18.41.31.48.62.49-.17.85-.56,1.32-.77.7.38,1.42.67,2.24.39.13-.05.15.11.27.11.84,0,1.68,0,2.51,0,.23-.16.51-.17.76-.11.17.04.33.12.52.11.19,0,.38,0,.56,0,.2.22.52.19.76.36.94-.71,1.84-.25,2.73.16.16-.17.16-.42.31-.55.15-.17.41,0,.5-.22.47.25.89.17,1.31-.15.18.25.5.28.66.54.65-.03,1.29-.18,1.95-.15.4.02.77.03,1.05.35.04.05.15.03.23.04.69-.61.8-.63,1.46-.25.23-.08.44-.18.59-.36.34-.04.65,0,.91.24.23-.07.44-.17.6-.37h1.63c.26.14.35.52.78.49.06-.25.27-.42.46-.58.23-.19.55-.25.79-.13.21.11.4.05.63.1.05-.07.1-.15.13-.2.5-.18.79.16,1.13.3.17-.15.26-.34.31-.55.29-.19.53.11.81.08.29-.03.59,0,.88,0,.14.15.32.26.35.48.18-.12.42-.15.51-.36h.79c.09-.19.32-.23.52-.37,1.67,0,3.38,0,5.1,0,.29,0,.57-.02.77-.24.3-.04.62.07.95-.12.14.21.46.03.67.21.45-.16.89-.35,1.41-.11.21.09.49.02.75.02.14-.14.37-.16.49-.38.35.07.72-.11,1.06.13.03.02.09,0,.12,0,.26.08.46-.11.7-.14.25-.03.43.29.72.07-.16-.19-.07-.47-.29-.64q.21-.24.44-.28.54.49,1.43.49c.04-.07.11-.17.16-.26.27.05.47.02.7.1.31.12.68.07,1-.1.09-.05.14-.13.27-.12.28,0,.55-.01.83-.1.22-.07.51-.07.78.06.2.1.49.04.74.04.4,0,.8,0,1.16.24.06.04.16,0,.27,0,.06-.06.13-.14.2-.22h.68c.11.13.3.15.47.25.4-.16.81-.27,1.26-.29.28-.01.54-.14.85,0,.24.11.55-.06.83.12.12.08.35.05.49-.09.12.17.3.08.46.1.17.01.34,0,.5,0,.35-.02.69,0,.92.27.22-.07.16-.31.37-.38.22-.06.47,0,.72.13.45-.18.88-.47,1.41-.38.09.13.27.13.39.22.05-.02.06-.11.14-.08.05.04.09.09.14.14-.02.12-.15.17-.22.27-.05.38.17.69.29,1.05.32,0,.5-.23.71-.42v-.37c.21-.19.42-.39.61-.57.02-.3.11-.53.36-.75.3.52.39,1.12.74,1.61h.26c.03-.08.06-.15.08-.22.11,0,.21-.04.32.02-.02.13-.15.17-.22.27.05.05.1.11.16.18h.63c.09-.07.15-.12.22-.17-.09-.09-.16-.16-.24-.23q.31-.29.58,0c-.13.13-.26.25-.35.34v.62c-.08.08-.14.13-.19.18-.35.03-.56-.19-.77-.38-.21.04-.28.22-.41.31q0,.35.22.58c.25-.14.51-.26.75.02.01.12-.23.14-.09.28-.28.13-.5.01-.7-.09-.12.16-.05.31-.07.45.07.07.15.14.24.22v.88c.38.28.81.17,1.2.19.06-.06.12-.12.19-.18v-.73c.14-.12.22-.3.45-.34.12.21.02.44.07.66-.3.27-.21.69-.43,1.03-.52.26-.8.91-1.45,1.07-.03.16-.05.32.03.47.32-.03.57-.27.88-.25.26.34.26.66,0,.99-.19,0-.4-.02-.61,0-.18.02-.34-.03-.45-.13-.27-.27-.66-.2-1.01-.41.11.41.48.49.67.74.2.26.34.59.65.78.21-.17.23-.48.56-.61.41-.02.84.28,1.32.26q.48.62,1.13.85-.33-.82-1.07-1.42c.1-.1.2-.25.36-.17.17.08.33.13.52.12.19,0,.38,0,.56,0,.06.06.12.12.18.18-.15.19-.17.42-.24.64-.08.24.03.5-.11.76-.1.19-.02.48-.02.7.2.24.44.39.56.67.1.23.48.15.61.44-.21.13-.42.04-.62.08-.1.07-.03.19-.05.29.3.32.73.34,1.13.48v.59c.13.27.33.23.58.23.07-.09.17-.23.31-.42v-.81c.12-.41.48-.19.71-.35.22-.15.38-.37.62-.5.28.21.25.64.63.83-.19.2-.38.33-.4.62.08.07.16.23.34.27.04-.03.1-.05.11-.07,0-.22,0-.44,0-.67.14.02.18.16.3.11.23.2.11.58.4.74.13.03.19-.08.26-.14.16-.47-.07-.88-.24-1.29-.03-.09-.11-.16-.1-.27,0-.06,0-.12.11-.16.31.15.51.41.51.77,0,.31.08.62-.1.95-.11.19-.02.48-.02.71.09.09.17.16.25.24v.62c-.25.38-.55.14-.86.03-.11-.46.37-.65.46-1.04-.08-.1-.2-.21-.42-.15-.12.38-.49.68-.43,1.14.33.47.8.71,1.36.85.12.61-.21,1.05-.62,1.41.17.47.69.53.91.91-.1.32-.36.57-.39.9-.03.37-.04.74,0,1.11.04.32.17.63.37.95v.69c0,.43,0,.87,0,1.3,0,.4.23.77.08,1.25-.05.08-.26-.09-.34.07q.23.37.58.43c.1.15.05.32.04.47-.05.85.19,1.69.15,2.54-.01.23.13.49.1.75-.14.09-.12.29-.25.39.08.22.18.44.39.6-.08.74.16,1.52-.26,2.26.06.32.35.53.5.89,0,.39-.08.86.02,1.29.1.42.08.83.11,1.21.24.43.44.83.37,1.28-.2.27-.59.23-.76.54.24.43.91.66.75,1.33-.07.07-.14.14-.22.21,0,.04,0,.08-.02.12-.08.24.16.39.14.63-.02.21-.09.43.1.64.07.08.01.28.01.42v6.61c.07.27.43.38.37.75-.12.1-.26.22-.37.31,0,1.94,0,3.81,0,5.68,0,.37-.06.75.1,1.13.07.16.1.43-.07.64-.07.09-.04.27-.04.41,0,.84,0,1.69,0,2.53,0,.48-.03.94-.23,1.39-.11.25.13.47.19.71,0,.04.03.07.06.15-.14.14-.32.27-.39.49,0,.41-.03.82,0,1.23.05.61-.12,1.2-.13,1.8,0,.19-.08.4.11.58.05.05.05.22,0,.3-.21.36-.07.81-.33,1.17-.07.1-.04.27-.04.41,0,1.54,0,3.09,0,4.63,0,.6-.18,1.14-.49,1.65.1.09.2.2.31.3.18.01.3-.22.51-.12.05.03.06.05.02.08-.3.27-.41.68-.71.95-.01.2-.02.37.15.56.25.29.31.65.13,1.04-.12.28-.18.59-.18.92,0,.36-.12.72-.21,1.08-.05.18-.19.35-.16.56.03.18,0,.37,0,.55l-.23.23c-.01.15-.01.29.04.46.16.49.03,1.01.07,1.52.02.22-.2.33-.23.52-.07.39.07.79-.14,1.18-.06.11-.03.29,0,.42.13.57.13.57,0,1.08-.02.06-.01.12-.01.17-.08.09-.23.01-.28.17-.35-.26-.83-.36-.97-.85,0-.02,0-.05,0-.06.17-.16.14-.36.1-.57-.09,0-.17,0-.27-.01-.13.15-.26.3-.45.51v.24c-.22.43-.66.43-1.04.63-.12-.19-.34-.13-.54-.14-.13.11-.25.23-.19.42.12.12.41.1.36.44-.26-.06-.52-.18-.83-.1-.2.14-.22.48-.55.61-.18-.07-.28-.26-.44-.38-.12,0-.25,0-.23,0-.18.1-.27.16-.34.19.2.18.38.35.56.51.08.72-.21,1.34-.18,2h.45c.18-.27.51-.39.9-.49.05-.41.4-.64.65-.91.05-.16-.09-.2-.12-.29.05-.33.3-.28.55-.28.3.23.52.59.93.74v.58c-.12.09-.28.03-.48.02.03-.35-.06-.65-.37-.88-.34.27-.25.62-.27.97-.34.22-.48.62-.82.92-.19,0-.43.05-.64-.01-.2-.05-.33.26-.54-.06v.62l-.18.17h-.75l-.22.22c.13.61-.18,1.21-.11,1.83-.24.26-.5.43-.89.45-.31.01-.61.2-.83.39-.48.43-1.02.73-1.65.87-.03,0-.06.07-.09.08-.04.01-.08,0-.14,0-.11-.14.01-.41-.28-.48v.64c-.11.11-.19.2-.27.27-.07.3.08.51.22.74-.14.13-.09.42-.41.44-.26-.27.21-.5.1-.8-.11-.06-.22-.12-.29-.16v-.44c-.11-.11-.22-.23-.3-.31-.21-.04-.33.02-.43.15.27.32-.04.61-.05.91-.25.12-.46-.02-.69-.12-.06-.1-.04-.26-.18-.3.07-.25.31-.31.39-.53-.57.04-1.06-.24-1.59-.28-.07,0-.14-.09-.22-.14.19-.26.22-.51.16-.78-.06-.05-.12-.11-.18-.17-.17.04-.31.19-.55.13,0,.28.05.55-.01.8-.06.25-.14.49-.11.7.31.55.52,1.11,1.12,1.36-.04.18-.17.07-.29.12-.13-.13-.28-.27-.42-.41-.46-.44-.67-.45-1.25-.07-.1.1.02.27-.12.39-.07.06-.04.23-.07.42-.08.06-.2.16-.4.31-.03,0-.08-.09-.18-.19-.15-.41.25-.82.07-1.3-.05-.06-.16,0-.24,0-.3.3-.6.59-.85.84-.41.1-.81-.12-1.14.2v.92h-.7c-.07-.08-.16-.15-.18-.29-.06-.43-.36-.67-.76-.81-.33-.11-.65-.24-1-.36-.14.1-.36.12-.48.29-.09.29.17.46.24.7,0,.12-.13.15-.18.23-.5.11-.94-.23-1.44-.14.17-.16.38-.07.59-.11v-.68c-.1-.09-.18-.27-.44-.31-.05.49-.16.94-.71,1.13-.21,0-.41.01-.62,0-.19-.01-.31.14-.51.14-.44,0-.8-.1-1.08-.44-.04-.05-.09-.09-.13-.13,0-.14-.05-.29.15-.37-.21-.08-.08-.35-.26-.37-.12-.12-.23-.04-.3-.07-.38.19-.2.69-.62.89-.11-.2-.23-.4-.42-.52h-.38c-.09.09-.05.25-.18.3,0,.21,0,.41,0,.62-.23.15-.37.03-.51-.15.09-.25.18-.5.28-.77-.18-.29-.44-.44-.8-.52-.43.25-.19.9-.66,1.1-.42-.14-.9-.16-1.27-.45-.07.06-.13.12-.19.17.05.05.09.09.14.15-.03.2-.22.28-.33.41h-.71c-.28-.14-.52-.26-.78-.39-.22.26-.35.56-.66.76-.57.04-1.17.03-1.77-.22-.04.01-.06.12-.24.09-.11-.05-.2-.29-.44-.27.1-.15.34-.02.32-.38-.03-.07-.18-.11-.37-.08-.12.08,0,.32-.14.31-.36.12-.66-.03-.93.11-.27.14-.56.01-.81.08-.28-.35-.16-.73-.2-1.06-.05-.08-.12-.06-.22-.07,0,.36-.08.7-.4.92,0,.39.06.77-.24,1.18-.01,0-.13.07-.3.15-.14-.18-.33-.31-.47-.52-.15-.23-.09-.46-.12-.67-.11-.12-.21-.23-.3-.32-.19-.02-.25.14-.36.22-.32.14-.61-.23-.95-.06v.82c-.46.17-.83.49-1.31.64-.22.06-.44.18-.61.34-.18.17-.36.16-.56.13-.2-.15-.23-.4-.36-.61-.47.03-.88.28-1.34.39-.43.11-.88.17-1.3.35-.5-.12-.89.39-1.34.25-.19-.1-.32-.17-.46-.25-.17,0-.21.17-.35.25-.36-.04-.76.07-1.16-.09-.14.07-.21.34-.49.33.07-.41.08-.41.47-.8v-.38c-.43-.1-.87-.21-1.33-.2-.1.45-.08.79.09,1.21-.06.06-.14.12-.23.2-.22-.09-.35-.33-.64-.36-.09.05.03.19-.04.29q-.46.19-1.14.11c.17-.34.43-.57.76-.74-.05-.19-.27-.2-.41-.28-.12-.07-.31-.03-.45-.18-.15.16-.35.17-.55.14-.22.15-.35.35-.46.62v.37c-.22.02-.35-.08-.38-.29-.04-.29-.25-.52-.25-.82,0-.12-.13-.15-.18-.24h-.38c-.21.42-.76.7-.54,1.33h.58c.24.13.32.27.24.5-.31.1-.56-.06-.8-.21-.05.04-.09.07-.14.11-.09-.15-.03-.29-.05-.43-.16-.16-.33-.32-.49-.48.38-.45.19-.99.25-1.5.24-.15.26-.48.48-.59.06-.2-.18-.22-.11-.38-.17-.03-.29-.21-.46-.19-.19,0-.32.15-.34.25-.11.5-.56.73-.86,1.07-.05.06-.12.12-.18.17-.1.08-.03.19-.05.29.16.14.36.02.61.12.19.16.44.38.52.74-.16.23-.51.25-.63.53.06.36.31.56.67.68-.1.1-.16.16-.22.22-.39.03-.77.04-1.06-.26-.23.13-.38.28-.44.5-.12-.02-.07-.12-.1-.18-.12-.11-.34.03-.43-.17-.28,0-.55-.03-.83.11-.5.26-1.06.37-1.61.5-.26.06-.49.23-.77.25-.21.02-.43-.11-.61-.06-.21.06-.4.03-.62.05v-.83c-.15-.32-.29-.53-.45-.64-.18-.03-.2.08-.27.1-.06-.06-.12-.12-.18-.17.09-.39.21-.78.49-1.11v-1.14s-.11-.11-.17-.16c-.05,0-.08,0-.1,0-.33.31-.67.61-1,.92.03.25.26.32.38.5,0,.21.07.46-.12.66.31.48.02.96-.01,1.43.2.13.42,0,.64.1-.15.18-.45-.03-.56.21-.24-.08-.39.18-.64.13-.22-.04-.45,0-.65,0-.08-.23.15-.31.13-.49h.55c.09-.19.06-.32-.09-.45-.17-.15-.26-.35-.24-.58.01-.19-.16-.31-.2-.47-.04-.17-.18-.29-.19-.48,0-.21.22-.35.15-.56.26-.14.23-.4.27-.63,0-.05.07-.09.11-.14-.13-.17-.13-.42-.37-.52-.15,0-.25.11-.27.21-.11.61-.52,1.04-.89,1.49-.03.19.05.39.2.39.29,0,.39.19.54.33v.36c-.04.07-.11.06-.17.06-.28,0-.57-.04-.82.17.1.21.34.22.49.32.22.03.37-.23.59-.09.07.09.02.19.03.29-.22.04-.33.21-.49.35v.38c.05.11.22.16.24.31-.32.09-.58-.16-.89-.13-.31.03-.63,0-.93,0-.07-.06-.13-.12-.18-.18.04-.04.08-.09.12-.13-.25-.28-.58-.34-.97-.3-.07-.08-.14-.18-.21-.26-.13.02-.24-.04-.32.06-.04.2.18.25.25.39.08.22-.18.36-.12.58-.29.4-.7.62-1.19.73-.06-.07-.11-.13-.19-.22-.07-.19.05-.38.14-.59-.12-.1-.23-.2-.35-.3-.04.04-.1.09-.17.16v.62c-.11.1-.22.04-.32.06-.06-.06-.12-.12-.21-.21.22-.19.05-.51.27-.72-.14-.18-.37-.22-.56-.34-.21.1-.4.19-.62.3-.2-.23-.4-.46-.6-.69-.32.13-.45.38-.67.54-.27.01-.53.1-.76.26-.11.08-.02.19-.08.32-.11.11-.22.28-.44.32-.09.16,0,.29.08.42-.11.1-.3-.03-.39.13-.02.03-.13.05-.17.03-.44-.28-.97.04-1.41-.23-.09-.05-.26-.02-.41.05-.3.14-.63.22-.99.2-.19-.01-.41-.08-.58.11-.03.04-.18.03-.29-.03-.33-.21-.72-.22-1.05-.2-.23-.09-.18-.31-.32-.41.14-.14.09-.32.1-.53-.09-.07-.21-.15-.39-.28h-.32c-.19.33.17.61.08.93-.07.25-.27.47-.16.76-.32.07-.63.05-.96-.14-.08-.09.08-.31-.15-.39.27-.2.59-.32.75-.65-.05-.14.07-.26.15-.43-.05-.05-.1-.11-.16-.18-.27-.13-.51.01-.72.14-.17.1-.34.25-.28.46-.2.21-.38.41-.58.62-.4-.15-.37-.57-.62-.89-.2-.16-.53-.13-.83-.23-.32-.11-.58-.3-.9-.4-.18-.05-.22-.26-.29-.44.14-.07.3-.15.47-.23.02-.18-.14-.24-.25-.38v-1.06c-.18.15-.41.12-.44.2-.17.32.08.44.06.62-.01.18-.21.3-.11.55-.44-.02-.87.09-1.28-.18.06-.19-.08-.41.11-.62.06-.07.06-.26.01-.35-.17-.33-.07-.63.07-.96.36.1.49.47.79.63.25.03.19-.22.28-.33.35-.42.33-.63,0-1.09-.14-.19-.23-.42-.46-.55-.14.32-.62.18-.8.64,0,.03-.01.18-.03.36-.16-.12-.11-.25-.1-.36.02-.14-.18-.18-.13-.32-.02-.22.2-.33.25-.52,0-.12,0-.25,0-.37-.16-.3-.78-.07-.65-.67.1-.07-.06-.38.23-.5.24.04.54-.13.75.12.2,0,.25-.18.37-.25h1c.06.06.12.12.18.18v.25c-.19.18-.38.36-.59.56-.25-.02-.43-.34-.76-.22.12.3.42.36.7.52.11.19.2.45.4.65.19.18.05.56.38.67.15-.07.21-.15.27-.3.17-.46.22-.94.37-1.39.08-.25.13-.54.29-.74.16-.19-.06-.47.21-.6-.06-.06-.12-.12-.19-.18h-.61c-.31-.15-.16-.52-.51-.76.02,0-.09-.03-.22.09.09.18.18.37.27.55-.01.12-.13.15-.19.24h-.63c-.22-.22-.44-.44-.69-.68v-.84c-.1-.17-.26-.18-.37-.26-.1-.07-.18-.17-.26-.24-.07-.37.37-.59.24-.97-.05-.16-.26-.22-.26-.45,0-.26-.22-.3-.46-.24-.02.25-.12.48-.2.58-.2.21-.39.06-.5.28-.22-.2-.4-.44-.69-.48-.11-.62.59-.54.66-.86.1-.15-.03-.14-.02-.15.22-.22.42-.41.61-.6-.05-.31.04-.55.13-.7-.03-.21-.12-.19-.21-.19-.12-.12-.03-.27-.06-.41-.19-.18-.39-.36-.62-.58h-.2c-.12.05-.02.25-.2.3.27.2.32.56.73.75-.29.06-.42.19-.57.34-.36-.22-.57-.5-.52-.97-.11-.08-.25-.17-.44-.3.02,0-.03.02-.08.07-.14.12-.15.31-.27.47.12.35.27.69.59.96h.63c.14.18-.08.44.2.55-.43.22-.95.12-1.29.52.23.29.12.64.15.98-.53.13-1.05.19-1.54.45-.07-.06-.13-.11-.21-.18v-.67c.08-.08.19-.18.29-.29.22.24.51.06.76.13.26-.97-.17-1.71-.89-2.12-.12-.28-.08-.63-.37-.85-.41-.02-.86.09-1.2-.32.03-.43-.09-.9.16-1.34.19-.26.5-.44.57-.82q-.18-.22-.56-.22s-.04.03-.04.04c0,.04,0,.08,0,.12-.26.17-.54.24-.84.17-.06-.06-.11-.1-.15-.15-.09-.67-.03-1.28.72-1.61v-.39c-.2-.1-.39-.2-.62-.31,0-.24-.01-.48,0-.72.02-.26-.09-.53.08-.77.14-.2,0-.45.14-.69.12-.19.02-.52.02-.79v-.76c.15-.26.4-.32.62-.5-.4-.6-.67-1.26-.93-1.91.16-.19.26-.33.44-.4-.01.29-.03.59.17.85h.4c.24-.17.21-.38.14-.61-.22-.13-.42-.29-.71-.24Zm11.05-66.92c.14.1.17.25.33.19.09-.19.16-.43.16-.58-.09-.06-.2-.02-.3-.03-.12.11.03.34-.05.61-.06-.01-.1.02-.11.07,0,0,.03.04.04.04.06-.01.09-.05-.06-.3Zm70.44,83.62c-.21-.06-.4-.04-.5.15-.08.16,0,.31.16.43.14.02.3.05.45-.03.02-.21.02-.4-.13-.56.08,0,.16-.01.23-.02.04-.09.05-.17-.03-.23-.05,0-.1,0-.18.01,0,.08-.01.16,0,.25Zm-61.75-3.6c-.01.06.02.1.07.11,0,0,.04-.03.04-.04-.01-.06-.05-.08-.12-.04.07-.34-.23-.57-.13-.83-.15-.2-.29-.24-.48-.16v.54c.17.12.28.36.61.41Zm-2-9.64c-.3-.07-.37.31-.63.29-.09.27-.18.53-.28.85.69-.16.87-.6.9-1.14.06.01.1-.02.11-.07,0,0-.03-.04-.04-.04-.06.01-.09.05-.06.11Zm-14.72-63.71c0-.49,0-.91-.43-1.23-.16.32-.3.59-.13.95.15.07.32.16.56.18.02.41-.08.79.18,1.14h.4c.07-.06.13-.12.19-.17-.08-.51-.12-.57-.76-.87Zm6.55,73.35c-.17.3-.38.6-.21.97.21.04.26-.17.4-.23.06.06.12.12.18.17-.09.11-.18.23-.35.19-.06-.01-.11,0-.14.07.13.09.2.26.38.31.24-.04.45-.15.6-.3.13-.43-.28-.69-.27-1.05-.22-.04-.38-.21-.74-.1.31-.28.67-.11.96-.18.2-.11.24-.28.19-.43-.12-.38-.26-.76-.41-1.13-.05-.13-.17-.23-.22-.3-.27.04-.46-.04-.63.07-.06.38.25.49.51.64-.32.19-.4.53-.63.73v.37c.07.07.12.12.38.19Zm14.64,9.51c.08-.09.21-.15.18-.33-.07-.04-.15-.08-.24,0,0,.11-.06.23.2.32-.27.29-.21.62-.21.93.09.06.12.17.24.18.17-.06.3-.19.55-.05.29.17.66.22.97.31.18-.18.34-.33.51-.5-.14-.21-.16-.45-.1-.73.11-.11.24-.22.38-.34v-.63c.09-.06.12-.15.22-.15.09,0,.21.05.26-.09.02-.15-.11-.19-.19-.28-.14.19-.33.1-.5.11-.23-.21-.45-.41-.78-.35-.17.4-.32.78-.69,1.05.12.3-.17.38-.3.55-.15,0-.29,0-.5,0Zm-10.14-62.64c-.26-.09-.54-.18-.81-.26-.08.11-.19.16-.19.32,0,.36.07.71.12,1.06.07.46.02.94.02,1.39-.09.16-.24.18-.39.25.2.17.3.4.41.62.2.4.32.75.05,1.2-.17.29-.27.66-.19,1.04.17.17.39.33.47.6.06.49-.19.97-.11,1.48,0,.02-.07.06-.08.09-.07.33-.33.65-.05.99-.04.28.23.53.12.81-.1.25-.29.47-.35.72-.03.13-.18.18-.14.35.15.24.32.5.5.78v1.08c-.27.22.02.6-.25.82.04.27-.01.53.11.82.24.58.26,1.2-.21,1.76-.01-.08-.01-.18-.03-.18-.31-.06-.39-.31-.49-.54-.08-.18-.21-.29-.36-.39-.02-.02-.07.01-.11.02-.07.09-.02.19-.03.29.33.31.68.61.8,1.03.16.03.2-.06.26-.11.14.23.29.45.45.71-.08.83.12,1.71-.16,2.59-.19.18-.4.39-.62.6.05.09-.04.2.06.29.13,0,.28.01.3.01.2.14.32.22.41.29-.02.3-.05.55-.1.81-.08.38.02.78.07,1.18.09.69.07,1.4,0,2.1-.03.27-.06.57-.18.84-.09.21-.07.46,0,.7.12.37.22.75.2,1.16-.02.64-.03,1.28,0,1.91.02.43.09.86.32,1.32.27-.59.71-1.01.83-1.63.24-.24.49-.52.78-.76.28-.23.44-.53.56-.83.49-1.18.48-1.19,1.21-1.92.1-.1.2-.21.31-.3.14-.12.23-.3.23-.46,0-.38.23-.62.48-.86.2-.19.47-.37.53-.65.16-.77.7-1.3,1.17-1.87.28-.35.73-.59.76-1.12,0-.05.1-.08.12-.13.13-.31.41-.49.59-.7.04-.13-.02-.25.08-.32h.25c.1-.1.21-.2.31-.31-.08-.74.42-1.1.94-1.41.43-.06.77.11,1.17.21.07-.07.16-.18.26-.29v-.63c-.2-.21-.45-.28-.71-.32-.05-.14-.03-.27-.01-.43.27-.17.49-.37.64-.7.12-.27.36-.52.59-.76.4-.41.9-.7,1.29-1.13-.07-.38-.24-.71-.52-.98-.34-.33-.72-.64-.99-1.02-.4-.57-.78-1.17-1.33-1.62-.75-.61-1.43-1.3-2.12-1.97-.1-.1-.24-.19-.31-.31-.27-.48-.65-.86-1.02-1.25-.63-.67-1.44-1.16-2.04-1.9.06-.12.13-.26.2-.39.2.05.33-.04.46-.21-.41-.2-.82-.37-1.28-.13-.23-.18-.47-.32-.67-.51-.21-.19-.45-.37-.58-.62-.13-.25-.36-.44-.4-.77-.03-.23.07-.5-.12-.67-.34-.16-.6.19-.89.08l-.48-.47c0-.15.05-.36-.12-.52.29.04.36-.22.52-.32-.14-.39-.51-.42-.78-.63.16.31.07.67.24.97Zm65.91,15.68c-.08.01-.12-.03-.12-.1,0-.24,0-.49,0-.73.43-.08.83-.22,1.25-.17v-.31c-.18-.17-.38-.35-.59-.55-.19-.03-.41,0-.62.18-.02-.33-.29-.6-.15-.85.15-.26.05-.59.28-.81.23-.07.43.03.61.13.1-.11.23-.15.22-.3-.08-.21-.31-.21-.46-.33-.05.12-.17.09-.26.14-.09.05-.13.19-.3.2-.28-.59.05-1.24-.17-1.73.04-.1.08-.17.11-.24.21.23.44.37.51.61.5-.58.67-1.26.55-2.03-.27-.29-.66-.53-.61-1.03.18-.09.37-.15.5-.31,0-.2,0-.41,0-.61,0-.2.03-.38.12-.57.11-.23-.13-.44-.14-.68,0-.13-.21-.16-.34-.22v-.44c.19-.16.42-.36.66-.56-.09-.52-.23-1.01-.16-1.49-.14-.06-.24-.11-.34-.16-.04.15-.24.05-.32.24v.83c-.44.13-.45-.25-.59-.43v-.79c.48-.27.87-.65,1.24-1.05v-.86c-.06-.06-.12-.12-.18-.18h-.25c-.06.06-.12.12-.2.2v1.13l-.07-.05c-.03.07-.06.14-.08.2-.18-.11-.31-.19-.44-.27-.02-.17-.04-.32.04-.48.18-.38.26-.78.16-1.2-.1-.05-.2-.03-.28-.02-.35.28-.61.6-.78,1-.7.61-1.25,1.37-2.03,1.88-.14.09-.28.21-.29.44,0,.15-.13.32-.25.45-.37.39-.76.77-1.16,1.14-.23.21-.49.4-.83.44-.09.29-.12.62-.28.87-.17.27-.46.47-.71.71h-.32c-.43.26-.55.69-.73,1.11-.6-.07-1,.25-1.38.71v.47c-.21.21-.41.4-.6.59-.39.41-.88.75-1.15,1.26-.16.29-.4.51-.63.73-.22.22-.45.44-.67.66-.24.24-.44.5-.61.8-.32.54-.71,1.06-1.39,1.27v.67c-.32-.11-.18-.38-.25-.58-.18-.02-.35-.06-.5-.16-.05.04-.09.08-.14.11-.06.04-.17,0-.21.09.03.58.1.69.71,1.03.08-.14.22-.13.33-.1.17.05.24-.17.37-.14l.62.61c-.09.26.17.47.22.72.06.3.09.57.33.77.22-.1.17-.31.23-.47.86.06,1.22.48,1.23,1.41.12.12.27.21.35.35.18.32.34.64.71.82.09.05.15.17.21.28.2.34.44.65.68.96.22.28.35.54.44.93.04.18.11.31.29.44.23.17.48.36.61.66.07.16.18.36.34.48.6.44.82,1.16,1.27,1.71.46.57.91,1.15,1.35,1.74.28.37.61.71.68,1.21.03.22.17.47.4.57.46.2.62.63.88.99.36.49.63,1.05,1.1,1.47.39.35.82.7,1.06,1.17.22.43.54.8.77,1.23.02.05.08.07.11.1.07-.06.14-.11.22-.18-.39-.71-.26-1.47-.28-2.23.18-.17.35-.32.5-.47.06-.52-.14-1-.14-1.51,0-.46.13-.9.05-1.39-.11-.6-.02-1.23-.03-1.85,0-.16.12-.26.12-.38,0-.19.1-.42-.12-.57.08-.17-.22-.21-.13-.38.06-.25.19-.47.41-.63-.1-.18-.18-.33-.28-.51,0-.34-.02-.71-.11-1.09-.09-.39-.03-.82-.03-1.23-.07-.07-.15-.15-.26-.26.11-.91.37-1.81.71-2.78-.38.06-.6-.11-.81-.29v-.39c.48-.51,1.27-.79,1.36-1.63-.14-.07-.29-.03-.43-.03-.15.4-.57.5-.89.8-.1-.4.1-.66.21-.95h.53c-.08-.13.03-.24-.09-.35-.15.01-.31-.06-.45.06v.31Zm-42.38,8.9c-.22.03-.22.25-.33.36h-.25c-.09-.2-.19-.39-.21-.61-.23-.13-.46-.23-.66-.39-.23-.18-.42-.4-.62-.6-.09,0-.17,0-.26,0-.17.47-.85.68-.68,1.3-.13.12-.25.3-.35.29-.38-.04-.45.27-.53.47-.25.66-.68,1.22-1.1,1.77-.56.73-1.09,1.46-1.47,2.31-.11.26-.21.55-.48.74-.05.03-.06.05-.13.04-.05-.08-.11-.17-.16-.25-.08.08-.14.13-.24.23.15.12.29.24.4.33v.68c-.13.17-.22.28-.3.38h-.4c-.2.14-.32.22-.43.3.08.42-.22.67-.36,1.07v.38c-.16.31-.5.36-.7.59-.36.41-.75.8-1.1,1.22-.11.14-.24.31-.21.53.04.41.03.6-.22.85-.15.15-.11.33-.16.41-.35.25-.67.26-.94.12-.27.1-.2.29-.19.44.05.67-.3,1.15-.69,1.62h-.48c-.14.12-.25.21-.38.32.22.44.14.9.16,1.36-.18.17-.34.32-.51.48v.47c-.16.17-.3.32-.46.48-.2-.1-.3.04-.44.18v.66h-1.2c-.43.43-.44,1.05-.86,1.5.22.14.23.36.33.53-.22.14-.44-.01-.61.1-.07.24-.09.48-.21.68-.11.19-.07.3.04.48.24.38.65.54.94.78h.52c.13-.12.23-.25.42-.26,0-.25-.02-.46-.09-.7-.07-.25-.31-.45-.26-.76.52.02,1.03-.08,1.48.2.08.35-.05.67-.13,1.01.25.08.46.03.65-.09.12.06.24.12.36.18.04.15-.07.33.09.46.09.08.07.24.03.28-.23.24-.05.51-.12.73.12.18.26.24.45.2.16-.2.14-.53.44-.62.12.03.16.17.27.14.14-.12.26-.22.34-.3v-.41c-.15-.07-.29-.03-.44-.03-.09.23-.22.42-.37.47-.17-.14-.28-.23-.4-.32.33-.09.48-.41.72-.59-.04-.42.07-.83-.13-1.21-.08-.15.07-.24.2-.31.13.15.31.25.31.5,0,.13.21.17.29.25.17.16.48.03.59.38,0,.05-.05.2.02.32.64.17,1.05-.18,1.41-.59.34,0,.56.22.83.32.19.07.3.19.41.38.16.29.21.62.38.89.28.04.42.44.82.2.2-.21.59-.31.78-.68-.19-.33-.39-.69-.39-1.11h.3c.21-.15.35-.25.49-.35-.17-.33-.21-.66-.14-1,.79-.5,1.78-.49,2.59-1.01.6.07,1.23-.06,1.87.11.45.13.88-.14,1.26-.34h.64c.02.2.25.34.14.56-.27.17-.63.16-.92.41.3.2.55.37.82.55v.67c.53.31.64.88.9,1.39.33-.03.66.02,1.02-.04-.23-.19-.49.01-.64-.13-.14-.38.27-.44.33-.63v-.45c-.39.09-.3-.3-.48-.44.41-.31.57-.74.63-1.24-.27-.14-.46-.46-.85-.19-.12.08-.35.01-.52.01-.08-.23.15-.31.13-.48h1.43c.08.08.17.15.23.23.16.23.47.5.72.63.09.04.16.12.23.17v.48c-.13.13-.3.3-.5.49,0,.12.18.16.23.24.07.41.1.78.32,1.11.16-.07.31.03.46-.09,0-.09,0-.19,0-.29.04-.52-.06-1.04.11-1.56.11-.36.04-.75-.28-1.05-.09-.09-.14-.23-.2-.35-.01-.03.01-.08.03-.17.16.12.19-.06.28-.1.11.1.22.2.26.24.1.31.18.55.26.78.26.12.5.23.74.34.07-.16.13-.28.2-.41-.21-.13-.1-.36-.07-.62-.12-.12-.24-.24-.35-.34.24,0,.57-.09.81.02.39.19.68.06,1.01-.09.21-.1.44-.11.6.12-.14.21-.25.43-.27.68-.35.04-.71-.08-.95.21-.15.17.05.25.07.37-.28.36-.69.29-1.06.29,0,.02-.09,1.24-.09,1.24.12.05.16-.09.25-.11.37.2.67.44.86.83.33.21.63.17.98-.04.43-.26.75-.59.98-1,.04-.41-.08-.82.14-1.22-.09-.07-.19-.15-.28-.22.22-.29.58-.31.81-.54.24-.23.25-.62.55-.79.35.09.37.44.59.61h.67c.11-.29,0-.55-.11-.83h1.15c0,.84,0,1.66,0,2.48,0,.02-.01.04-.02.05-.01.02-.03.03-.05.04q-.29-.05-.87-.62c-.47-.09-.93.35-1.37-.02-.23.32-.32.64-.31,1.08.06.06.12.12.18.18.36.03.57-.23.82-.39.17.09.31.17.48.26.22.06.55-.14.78.2-.09.55.13,1.04.4,1.51.36.1.64-.1.91-.14.18-.35.53-.54.72-.81-.09-.25-.38-.32-.39-.44.09-.53.53-.17.68-.44.38,0,.28-.47.57-.54,0-.16.04-.3-.04-.45h-.54c-.23.28-.57.34-.85.5-.07-.11-.19-.14-.2-.29.2-.18.11-.43.12-.54.12-.38.34-.56.5-.73.03-.22-.04-.4.09-.63.09.41.16.74.26,1.23.18-.4.34-.64.65-.71-.04-.09-.17-.14-.11-.27.36-.31.63-.73,1.03-.89.58-.1,1.05-.01,1.46.27.2.14.33.06.49-.05.02-.02.08,0,.06,0,.1.07.17.12.29.21-.13.07-.23.13-.31.18.19.35.74.35.69.85-.33-.02-.57-.24-.86-.35-.31-.12-.51-.46-.9-.4-.11.22-.28.43-.16.71.44.09.69.33.66.65-.34-.05-.55-.3-.74-.48h-.54c-.17.35-.38.66-.29,1.03-.17.17-.3.33-.51.38-.04.21.03.36.28.44.23-.12.51-.16.79-.14.04,0,.1.02.12,0,.27-.28.53-.06.77.02.5.18.97.45,1.58.31.04-.05.1-.14.16-.22.25.32.26.33.06.57-.12.15-.18.27-.05.43.23,0,.37-.21.58-.25.21.19.46.12.7.11.16-.16.32-.33.51-.52.74.2,1.41-.23,2.16-.29.07.36-.2.49-.46.61-.11.22-.21.42-.32.66.52.12.96-.16,1.44-.12-.09-.28-.2-.49-.4-.65.01-.19-.07-.42.08-.49.72-.2,1.35-.22,1.97-.19.38-.23.4-.62.51-.98.38.02.72-.16,1.06-.29.05-.19.17-.34.16-.56,0-.27.09-.54.14-.81.05-.32.33-.57.69-.68h.66v.55c-.52.43-.63,1.09-.99,1.61v.6c.2.2.2.52.44.68h.5s-.05-.05-.07-.08c.1-.04.21-.07.26-.09.02-.19,0-.31-.12-.39,0-.21,0-.41,0-.62.15-.15.29-.32.53-.36-.1-.37-.24-.69-.11-1.07.26.1.48-.08.73-.13.25-.05.35-.38.62-.49.35.19.29.62.49.88.17.22.08.46.13.69l-.11.11c.16.08.32.16.52.27-.44.07-.75.23-1.03.44-.04.22-.06.41.16.57h.53c.19-.24.6-.27.64-.66.06-.38.03-.8.36-1.04.45-.05.61.42,1,.36.07-.13.13-.27.18-.37-.14-.38-.41-.6-.66-.83-.23-.21-.33-.32-.47-.66-.08-.18-.28-.28-.32-.49-.52-.19-.66-.7-.94-1.09-.28-.4-.52-.83-.87-1.19-.38-.41-.72-.86-1.07-1.29-.15-.18-.22-.41-.35-.6-.56-.85-1.33-1.56-1.79-2.48-.05-.1-.18-.26-.26-.25-.41.04-.46-.28-.56-.51-.22-.51-.47-1-.94-1.35-.03-.02-.05-.06-.07-.09.02-.23-.07-.43-.24-.58-.73-.64-1.08-1.57-1.76-2.25-.27-.27-.59-1.07-.64-1.28-.1-.48-.35-.93-.25-1.4-.14-.27-.37-.2-.57-.21-.22-.21-.42-.41-.45-.75-.01-.14-.12-.29-.22-.4-.27-.3-.48-.67-.9-.83-.21.1-.41.22-.59.39-.49.47-.92.98-1.49,1.37-.24.16-.49.37-.59.68-.03.09-.13.18-.22.21-.36.14-.54.48-.85.7-.25-.04-.52.07-.7-.07-.27,0-.43.15-.52.32-.21.41-.6.65-.91,1.02-.03-.22-.09-.38.04-.56.12-.16.02-.36.05-.52-.15-.16-.3-.3-.42-.42h-.73c-.07.39-.52.54-.58.89.1.24.33.43.15.72-.18-.1-.36-.12-.51-.28h-.63c-.19-.18-.25-.37-.31-.59-.06-.22-.19-.42-.29-.62h-.94s-.08.1-.14.19c-.04-.45.2-.78.46-1.1.03-.04.03-.11.04-.15-.05-.08-.12-.06-.18-.07-.08-.02-.1-.14-.21-.12-.17.09-.46.14-.47.31-.01.36-.38.51-.4.83.12.31.42.56.37.95-.65.1-.81-.58-1.29-.71h-.56c-.03.47-.3.76-.68,1.02-.4-.45-.85-.79-1.44-.9-.16.41.44.7.15,1.11-.06-.11-.17-.15-.19-.3-.03-.36-.15-.71-.29-1.05-.2-.52-.43-1.03-.49-1.59-.48-.14-.89-.4-1.3-.63-.12-.58-.47-1-.88-1.37-.23.05-.48-.08-.65.19-.14.4.24.67.33,1.02-.05.05-.1.1-.14.14-.19-.09-.37-.18-.57-.27-.14-.32-.25-.65-.03-1,.1-.16-.06-.29-.48-.86.12.12.24.21.32.33.08.11.16.14.28.06-.21-.23-.05-.53-.13-.78-.13-.15-.27-.24-.47-.11,0,.16,0,.32.37.94Zm16.78-19.28c.11.05.02.21.14.25.04,0,.08,0,.12,0,.09-.11.09-.24.02-.33-.14-.18-.04-.3.02-.48.15-.45.42-.69.9-.68-.04-.17-.21-.06-.23-.12v-.56c.48-.47.92-.95,1.41-1.37.27-.23.6-.39.72-.84v-.5c.7-.7,1.47-1.32,1.88-2.22.34-.29.5-.76.9-.98.21-.12.33-.26.43-.45.48-.98,1.08-1.88,1.91-2.62.19-.16.29-.37.4-.58.22-.44.41-.9.87-1.19.34-.21.56-.58.93-.78.11-.06.2-.17.22-.34.01-.16.09-.34.23-.46.55-.47.97-1.06,1.47-1.56.37-.37.69-.78.99-1.2.16-.22.25-.51.55-.65h.71c.07-.07.14-.12.19-.18v-.81c.46-.18.75-.59,1.05-1h.67c.08-.12.03-.24.09-.36.15-.31.34-.58.59-.81.39-.37.74-.8,1.17-1.12.56-.42,1.11-.83,1.59-1.36-.26-.09-.52.03-.74-.15-.09-.07-.32-.06-.42,0-.22.13-.4.16-.59-.01-.65,0-1.3-.04-1.93.2-.29.11-.6.2-.94.17-.35-.03-.71,0-1.07,0-.14,0-.34-.05-.42.03-.19.16-.4.06-.59.1-.18.04-.27-.14-.45-.14-.2,0-.31.17-.52.15-.22-.03-.43.03-.64.09-.23.06-.45.12-.66.24-.14.08-.31.06-.45-.01-.01-.07-.03-.13-.04-.19h-1.31c-.27.31-.61.4-1.03.35-.07.08-.14.18-.18.22-.42.14-.64-.2-1.01-.22-.14.15-.41.16-.53.39-.6-.12-1.02.34-1.54.45-.06-.06-.1-.1-.15-.14.09-.31.55-.51.27-1.02-.03-.19-.39.09-.46-.13-.47.13-.99.13-1.42.47h-.49c-.36.3-.26.81-.63,1.1-.57-.06-1.16.1-1.75-.11-.12-.05-.31.01-.47.05-.45.1-.92.11-1.39-.01-.3-.08-.6-.24-.93-.16-.06.23-.22.37-.41.49-.43-.05-.8-.4-1.26-.21-.01.06-.03.12-.04.19h-.89c-.35-.18-.67-.32-.95-.43-.15-.08-.3-.16-.37-.2-.09-.3.2-.44.09-.66-.1-.09-.2-.2-.32-.31-.27.28-.54.56-.81.84-.01.01,0,.04,0,.1.25.07.53.12.63.42v.2c-.1.1-.21.2-.3.29-.43-.16-.67-.5-.87-.83-.54-.12-1.02.24-1.54.08-.21-.07-.38-.2-.5-.34-.36,0-.68-.04-.99,0-.84.14-1.15.19-1.71-.02-.24-.09-.47-.09-.68-.11-.44-.33-.85-.33-1.3.01-.64-.07-1.32.08-1.99-.12-.36-.11-.76.06-1.14.1-.58.05-1.17.01-1.74.01-.14-.08-.18-.26-.34-.25-.2.06-.2.25-.29.37-.31.05-.57-.23-1.02-.04-.02.03-.14.17-.25.3-.53-.02-1.05.08-1.5-.24-.06-.04-.18-.04-.24,0-.45.25-.96.33-1.45.43-.48.1-.96.11-1.4-.05-.31.08-.48.31-.7.48-.43.19-.89.13-1.34.13-.59,0-1.17,0-1.76,0-.37,0-.71.11-1.06.18-.17.03-.37.1-.55.18-.18.07-.41.02-.62.01-.43-.02-.83.21-1.27.13-.29.23-.66.02-.94.16-.33.16-.65.05-.97.09-.06,0-.12.01-.19.02v.59c.2-.06.31.23.54.12.29.28.54.61.86.82.17.11.21.26.33.36.14.12.28.25.38.4.39.59.94,1.03,1.46,1.49.25.22.52.4.7.7.13.22.36.49.58.53.32.06.5.25.62.45.12.2.27.35.42.5.53.51,1.03,1.05,1.63,1.5.4.3.71.7,1.08,1.04.49.46.92.99,1.49,1.37.19.13.33.34.47.54.3.43.57.93,1.16,1.06.22.24.54.35.76.6.27.31.56.63.89.87.83.61,1.55,1.38,2.03,2.26.08.15.1.36.35.35.33.35.76.59,1.13.88.51.41,1.06.81,1.42,1.38.23.36.59.64.69,1.03.46.15.91.25,1.08.73v.64c-.12.08-.28-.04-.35.11,0,.04,0,.08,0,.12.25.17.45-.04.67-.08.11.11.22.22.26.26-.06.52-.3.97-.15,1.47.06,0,.1,0,.14,0q.19-.58.63-.88c.45.11.74.41.96.86v.31c.27.38.76.45,1.06.79.3.36.66.67,1,1-.15.34-.23.65-.15.97.21.3.54.09.81.18.07.07.13.17.22.21.67.3,1.14.82,1.53,1.4.14.21.28.39.46.55.2.18.35.38.47.62-.05.05-.11.11-.17.17q-.22-.11-.45-.02c0,.24.31.2.36.34.14.34.42.35.69.3.36-.07.7-.21.96-.3.09-.09.12-.11.12-.12-.04-.23.09-.42.13-.63.06-.27.26-.37.48-.48.12-.06.25-.18.31-.3.18-.41.56-.67.83-1.02.47-.61.9-1.23,1.26-1.9.32-.6.76-1.06,1.34-1.42.3.25.51.6.94.73.17-.32.33-.62.49-.93-.24-.28-.65-.41-.88-.76,0-.48.52-.45.72-.69.23-.31.14-.85.74-.82Zm-39.84,58.83c-.14-.52.4-.46.43-.77-.13-.2-.3-.33-.43-.38-.23-.24-.16-.54-.39-.7-.25.15-.56.16-.78.35-.08-.1-.22-.15-.17-.31.15-.07.31-.14.47-.21.02-.4.53-.39.67-.7-.14-.14-.26-.26-.38-.37-.33-.06-.4.27-.68.4h-.62c.13.47-.27.87-.09,1.25.26.4.73.21.99.5-.2.24-.24.57-.51.77.41.25.57.67.79,1.03h.58c.1.12.21.26.28.33.37.12.46-.14.63-.27-.18-.15-.17-.39-.29-.53-.29-.08-.4-.32-.5-.39Zm-5.17-1.62c.19-.2.4-.4.6-.61h.42c.19.18.38.42.72.49.13-.1.27-.21.34-.33.05-.42-.25-.39-.46-.44-.14-.14-.28-.27-.41-.4,0-.24-.06-.5.26-.56.22.05.2.26.29.35.39.11.67-.09.98-.23.22-.1.28-.26.2-.5h-1.19c-.07-.39-.39-.48-.72-.64-.02.19-.21.11-.31.2-.13.47-.39.89-.4,1.39-.2.17-.34.4-.6.47-.05.23-.26.43-.08.7.07.12.21.12.37.11Zm78.13-6.7c.19-.62.72-.8.9-1.39-.01-.49-.24-1.06-.4-1.65-.29-.04-.43-.36-.7-.34-.17.47.09.91.11,1.37.01.47-.23.9-.13,1.36l-.62.61v.8c.35.08.61-.03.85-.27v-.47Zm-51.79-10.71c.05.33-.06.67-.38.91v.63c.07.07.12.13.16.16h.72v-.66c.25-.23.42-.48.37-.8-.03-.17.08-.27.14-.37.12-.19.13-.37.1-.55-.59-.36-1.19-.65-1.88-.23-.06.53.59.48.76.92Zm-12.35,19.6q.3-.29.39-.59c-.32.06-.58-.09-.86-.17-.11-.34.33-.54.15-.8-.03-.1-.07-.21-.1-.29-.22.1-.36.24-.57.09v-.66c-.31-.09-.22-.68-.73-.49-.14.33-.28.66-.42.98.17.32.56.19.77.43.1.5.61.83.66,1.37.21.06.39.23.7.11Zm-13.45-.1c.39-.58.53-1.25,1-1.65.07-.24-.06-.33-.16-.42-.76-.12-1.26.3-1.7.8v.61c.19.19.19.49.42.66h.43Zm54.84-48.23s-.09.03-.13.04c-.01-.09-.02-.17-.04-.25-.27.25-.48.45-.74.62-.26.17-.49.4-.6.76.32-.05.53.13.76.3-.16.06-.3.13-.38.26v.35c.16.16.3.31.41.43.29.09.5-.04.71-.16.05-.41-.26-.62-.5-.88.22-.18.39-.37.51-.69v-.78Zm-31.43,29.52c.17-.17.31-.31.43-.42.19,0,.35.03.48,0,.18-.05.23.2.39.13.07-.09.22-.13.19-.29-1.15-.72-1.59-.74-2.58-.7-.06.13-.22.09-.3.17,0,.14-.04.28.04.45.43.21.88.43,1.34.66Zm-27.35,5.4c.34.33.58.67,1.02.61.12.48-.05.85-.26,1.2-.1.16-.1.27.01.46.22-.19.42-.43.66-.41.39.02.67-.19,1-.31v-.27c-.3-.19-.39-.58-.73-.81h-.51c-.11-.16-.2-.31-.3-.46h-.9Zm13.65-4.56c-.14.41-.6.6-.75,1.04.14.2.37.32.6.42.14.06.3.11.4.22.19.19.38.18.59.12.27-.43.5-.36-.27-1.66-.18-.01-.3-.21-.58-.13ZM116.87,37.36c-.04-.42-.25-.78-.18-1.21-.26-.02-.52.08-.64-.23.02-.29.02-.61-.2-.89-.12.07-.16-.06-.27-.12-.08.34-.26.6-.59.74-.05.02-.09.08-.06.21.08.07.21.16.37.29.23-.02.45.22.71.14.14.35-.11.62-.09.91.15.15.29.29.45.45.13-.05.28.04.41-.06,0-.1.04-.2.08-.22Zm-87.08,5.25c.05.4-.25.74-.1,1.15.12.08.19.29.41.29.15-.14.01-.32.03-.35.24-.36.54-.44.79-.58-.02-.28.08-.57-.14-.8.25-.34.08-.71.14-1.06-.19.02-.26-.2-.46-.17-.04.05-.1.11-.16.18.17.36.31.73.19,1.19-.24-.05-.45.04-.72.16Zm16.14,79.27c.15.11.04.26.15.32.08.12.17.23.22.32h.65c.25-.14.19-.35.19-.53-.19-.29-.49-.44-.75-.62-.28-.19-.34-.59-.69-.72-.11.31-.41.5-.45.83.17.21.43.26.67.41Zm10.36-46.81c.41-.52.45-1.27,1.15-1.5.07-.2.01-.34-.16-.46h-.51c-.44.34-.64.84-.94,1.28-.03.05-.12.09-.12.13,0,.14-.06.28.03.4.05.05.1.1.15.14h.4Zm-5.61,44.8c-.02.29-.01.56.17.79h.66c.1-.1.19-.19.28-.28.06-.1-.05-.25.09-.33.18,0,.35,0,.52.11.1.06.21.21.38.14.05-.02.12-.01.17-.1-.06-.12-.13-.26-.16-.33-.58-.45-1.21-.29-1.8-.32-.1.09-.18.18-.31.31Zm-10.44-11.93c.05.22.21.28.41.25.18-.03.31.09.43.17.19.13.34.06.5.07.2-.19.37-.37.56-.55-.04-.26.05-.54-.08-.87-.39.35-.82.49-1.28.44-.12.26-.46.22-.54.49Zm77.2-1.25c0,.35.01.66-.21.92-.1.12-.06.3.01.45.11.21.23.41.44.51.54-.19.64-.39.62-1.13-.16-.42-.42-.66-.87-.76Zm-52.63-2.44c-.18.26-.18.26-.18.86,0,.18-.02.37.2.48.46.09.81-.16,1.17-.39-.16-.35-.19-.77-.56-.95h-.63Zm3.12,16.48c.49.17.81-.17,1.06-.08.6-.12.76-.58,1.1-.98-.49.09-.85-.11-1.27-.26-.27.44-.42.94-.89,1.32ZM35.78,36.74c.23-.27.18-.6.17-.91,0-.18.03-.32.19-.42.18-.04.39.05.61-.08-.16-.24-.27-.48-.61-.43-.28.27-.55.56-.84.82-.27.24-.31.55-.35.81.28.23.55.26.83.21Zm26.57,83.5c.28-.25.52-.49.52-.88-.05-.04-.12-.1-.21-.17-.27-.09-.51.17-.76.15-.19.15-.17.38-.36.46-.1,0-.21-.02-.3,0-.11.03-.12-.18-.3-.04.33.35.76.47,1.17.57.03.13-.04.24.07.33.05,0,.11-.01.18-.02v-.4Zm-24.39-14.58c-.25.21-.4.51-.6.75-.12.14-.29.43,0,.75.21-.5.75-.36,1.1-.6.02-.55.05-1.08-.44-1.46-.19.16-.27.32-.06.56Zm7.35,16.75c-.16.31.11.52.08.78-.06.42.16.71.47.92.21.1.28-.06.4-.16v-.89c-.16-.14-.18-.35-.27-.51-.22-.08-.42-.22-.68-.14Zm14.4-3.45c-.23.44-.41.8-.61,1.18.39.19.68.62,1.16.45.11-.08.23-.16.33-.23-.29-.47-.56-.9-.88-1.41Zm41.48-1.31c-.21-.55-.73-.77-1.19-1.05-.14.16-.36.26-.28.56.32.26.59.63.8,1.02.45.09.5-.32.68-.54Zm-17.58-39.21c.25.28.38.67.76.69.31-.13.38-.39.49-.6-.12-.36-.24-.72-.63-.88-.24.1-.47.22-.63.45v.33Zm-37.23,20.05c.08.27.23.47.28.73.07.35.26.7.71.79-.02-.19.21-.03.28-.16v-.22c-.12-.27-.42-.31-.61-.51v-.43c.12-.35.33-.56.37-.9-.48.08-.71.42-1.02.7Zm-17.61-63.96c-.21.18-.57.17-.74.45-.02.35.2.56.39.75-.09.19-.24.33-.1.52.4-.3.72-.66.79-1.18-.18-.1,0-.43-.36-.54Zm60.45,45.48c-.46-.04-.78.13-.96.64,0,.07,0,.23,0,.39,0,.02.02.03.03.05.35.22.4.2,1.07-.26.08-.28,0-.54-.15-.83Zm-48.75-23.02c-.4.3-.52.69-.48,1.11.03.31.17.61.12.94.25.21.02.62.39.82-.05-.64.08-1.26-.1-1.92.09-.15.16-.38.3-.46.12-.28-.03-.37-.21-.49Zm21.25,63.97c-.24-.28-.57-.25-.81-.42-.19.08-.16.31-.29.41.11.23.12.58.38.63.28.06.21.5.6.4-.08-.35.22-.66.11-1.03ZM112.85,30.46c-.39-.03-.79.08-1.12-.14-.14.1-.01.26-.1.34-.13.12-.11.24-.06.39.28-.02.5.17.73.27.34-.15.61-.35.72-.71-.04-.04-.09-.09-.16-.16Zm-37.18,55.83v-.45c-.25-.06-.42-.01-.49.25.1.46.45.79.72,1.2.18.06.39.22.68.08-.05-.13.07-.29-.1-.49-.2-.15-.56-.19-.81-.6Zm44.69-47.28c-.08-.43-.31-.73-.76-.87-.12.39-.3.76-.27,1.14.17.25.38.21.51.19.2-.17.35-.31.52-.46Zm-56.93,66.58c-.09.09-.14.15-.2.21.14.4.52.54.78.81.35-.29.59-.58.45-1.02h-1.04Zm56.02-.31c-.13-.17-.28-.24-.48-.14-.07.46-.36.83-.52,1.25-.02.05-.03.12.05.18h.41c.34-.37.61-.76.54-1.29Zm-42.69-20.69c-.1.1-.2.2-.31.3.23.13.05.37.16.55h.75c.14-.12.25-.21.34-.29v-.26c-.26-.29-.58-.34-.94-.3Zm35.53,31.25c0-.29,0-.57,0-.85,0-.27-.04-.3-.42-.37-.35.33-.38.38-.45.73.17.18.33.34.48.49h.39Zm-69.16-23.35c.06.32-.28.37-.4.63.2.21.13.59.47.73.21.1.31-.06.41-.15.12-.42-.13-.78-.13-1.18-.09,0-.17,0-.35-.02Zm-6.68,19.29c-.27.25-.51.47-.77.71.17.2-.16.3-.1.49.02.06.01.12.07.16h.26c.31-.41.94-.66.77-1.36h-.23Zm4.64-6.6c.29.18.54.34.79.49.26.16.54.24.86.14v-.26c-.17-.3-.53-.37-.82-.55-.27-.04-.54-.03-.83.19Zm39.74-24.3c-.25.08-.31.33-.22.48.16.26.1.47-.05.69q.48.06.89-.22c.02-.58-.03-.66-.62-.95Zm-51.33-29.55c.11-.14.35-.12.44-.34-.02-.3-.21-.54-.34-.65-.48-.09-.52.24-.66.45v.54h.56Zm6.46-8.67c.13.28.14.65.54.8.25-.13.64-.11.6-.56-.29-.29-.53-.43-.73-.45-.19-.02-.31.06-.41.21Zm28.38,78.41h-.54c-.3.24-.18.47-.05.71.13.23.26.45.59.36.18-.29.2-.6.15-.92-.04-.04-.09-.09-.15-.15Zm-16.49-17.73c-.46-.28-.61-.72-.95-1.2,0,.62,0,1.11,0,1.6.4.02.68-.06.94-.4Zm-8.29,8.8c.07-.09.2-.14.18-.29-.03-.22-.14-.4-.3-.55h-.45c-.18.13-.29.22-.41.3.08.16.15.3.16.31.3.29.56.25.82.23Zm27.46-33.27c.02-.64-.31-1.01-.42-1.44-.24-.05-.36.04-.46.19.02.25.02.5-.21.79.47-.05.79.07,1.09.45Zm1.4-7.28h.85c.04-.35.06-.69-.19-.98-.41,0-.53.4-.79.55-.04.19.17.25.13.42Zm-27.85,31.79c-.35-.06-.55.23-.88.3.23.45.5.73.98.68.08-.07.15-.13.2-.18.04-.33-.23-.53-.3-.8Zm15.15-13.64c.2.18.41.38.61.56.3-.25.26-.54.26-.83-.1-.1-.21-.2-.3-.29h-.57v.56Zm56.2-54.34c.36.04.63-.08.9-.21.14-.07.09-.21.09-.32-.11-.1-.21-.21-.32-.31h-.52c-.06.06-.1.1-.16.16v.69Zm-40.84,70.79h.8c.23-.17.18-.37.16-.56-.14-.09-.2-.27-.37-.29-.33.13-.57.35-.77.63.08.08.13.14.2.21Zm-40.14-.9c.02-.6-.3-.9-.86-1.09v.66c.23.22.41.41.62.62.08.01.12-.11.23-.18Zm92.13-50c.14-.45-.18-.76-.37-1.1-.17,0-.33-.06-.48.04v.42c.12.31.25.53.47.64h.37Zm-92.67,30.4c-.23.16-.33.42-.49.67-.17.27-.3.5-.36.9.36-.43.74-.68,1.13-.9v-.49c-.09-.06-.12-.18-.28-.18Zm14.67-38.46c.19.06.35.26.57.11v-1.02c-.15-.07-.29-.03-.42-.03-.11.1-.22.2-.3.28-.07.26.02.45.15.67Zm15.54,31c-.13-.12-.21-.29-.42-.33-.07.07-.14.14-.2.2v.87c.16.04.05.28.28.31.14-.08.25-.21.35-.34v-.71Zm-30.43,24.95c-.1-.1-.21-.2-.31-.3-.23.23-.63.03-.83.35,0,.07,0,.15.01.22.33.08.58.39.93.28.07-.07.13-.12.19-.17,0-.13,0-.25,0-.37Zm50.9,2.37v-.75c-.19.16-.21-.08-.4-.08-.06.2-.28.08-.43.15-.11.28.04.5.17.72.2-.12.31.18.5.11l.16-.15Zm-13.31,14.19v-.37c-.09-.07-.14-.21-.18-.2-.34.03-.52.15-.67.3v.71c.39.01.63-.2.85-.43ZM45.05,29.92c-.15-.19.19-.22.12-.33-.19-.2-.34-.35-.47-.49h-.26c-.1.08-.04.25-.17.3v.64c.27.15.47-.03.78-.12Zm42.16,45.99c-.14-.15-.29-.3-.45-.46h-.86c-.04.16-.04.32-.02.41.48.41.91.04,1.32.05Zm-56.17,7.7h-.81c-.17.11-.2.24-.18.39.14.22.35.34.53.41.17-.15.32-.29.46-.41v-.38Zm25.65,22.53c-.39-.3-.28-.95-.96-.92-.01.21-.21.32-.15.55.24.29.53.52,1.11.37Zm34.89,12.68c-.16-.18-.26-.29-.29-.31-.56-.19-.96.08-1.3.08.13.14.29.29.46.48.34-.04.66-.33,1.12-.24Zm-7.16-54.29c-.25-.44-.56-.7-1.03-.87v.87h1.03Zm-50.98,40.64c0-.07.04-.19-.03-.29-.14-.16-.33-.21-.5-.28-.12.11-.24.22-.36.32.08.18.18.33.16.5.13.06.25.11.41.19.09-.12.18-.25.32-.44Zm39.5,14.7c.18.15.36.36.48.63-.07.13-.23.16-.39.24.37.02.4.03.43-.04.09-.26.38-.49.14-.8-.08-.11-.02-.24-.04-.35,0-.04-.03-.07-.05-.1h-.4c-.15.11-.21.22-.17.43Zm-28.79-71.01c.4.02.71-.11,1.02-.22.08-.03.12-.11.09-.21-.13-.19-.34-.24-.54-.32-.13.22-.46.04-.58.32v.42Zm30.38,65.87c-.23.09-.18.33-.32.43.32.39.56.85,1.08,1.04-.32-.45-.41-1.01-.76-1.46Zm-27.33-14.14c-.15-.19-.16-.41-.34-.55h-.69v.43c.13.08.19.26.4.31.13-.24.4-.08.64-.19Zm14.8-40.99c0-.52-.31-.77-.71-.95l-.16.16v.4c.24.24.46.47.87.4Zm-36.46-14.58c.25,0,.45.28.73.09.08-.33-.24-.52-.28-.86-.2.2-.24-.23-.45-.03v.8Zm4.99,32.77c.18-.18.34-.33.5-.49v-.48c-.38.16-.78.29-.86.77.1.13.21.22.36.2Zm23.58-9.41c-.39.15-.67.35-.77.73.4.24.49.21.98-.3.06-.19-.06-.3-.21-.42Zm58.53,44.29c-.47,0-.71.27-.69.8h.71c0-.27,0-.51,0-.75,0-.02-.02-.03-.03-.05Zm-14.68-8.99c-.14-.14-.25-.3-.41-.38-.18-.1-.37-.31-.68-.05.22.14.3.36.45.54.15.18.34.31.58.32.09-.14.04-.26.06-.43Zm-60.81,10.82q-.2.26,0,.72s.52.1.57.09v-.64c-.15-.24-.36-.19-.57-.17Zm11.28-26.29c-.05.22-.05.43.14.55h.52c.23-.13.24-.28.18-.42-.14-.19-.35-.22-.5-.3-.13.06-.23.11-.34.17Zm-.26-58.64c.3-.44.72-.63.9-1.07h-.74s-.1.1-.16.15v.92Zm-15.39,73.79c-.29.28-.44.53-.46.72-.02.18.05.3.19.38.15-.14.3-.28.45-.42-.11-.2.16-.31.11-.5-.08-.05-.12-.17-.29-.19Zm60.36-26.2c-.19.12-.25.26-.21.46.27.06.47.32.8.29.17-.11.26-.25.18-.46-.25-.09-.5-.19-.77-.29Zm15.76-19.54c-.03-.11,0-.29.1-.44-.09-.08-.14-.18-.27-.15-.29.19-.4.51-.61.75.11.18.23.28.36.25.15-.14.26-.25.42-.4Zm-1-28.47c0,.09,0,.17,0,.12.15.21.24.34.3.42h.49c-.16-.2.13-.22.08-.4-.11-.12-.2-.27-.34-.32-.25-.03-.37.14-.54.18Zm-.11-1.25q-.34-.64-.76-.62v.66c.19.06.34.24.56.16.06-.06.12-.11.2-.2Zm-62.52,80.42c-.42-.05-.65.18-.86.42-.05.05-.05.19.03.3h.48c.15-.12.26-.21.35-.28v-.44Zm18.08,2.26c.39-.37.38-.51-.02-1.03-.1,0-.2-.04-.31.04v.61c.12.13.21.24.33.38Zm-34.27-17.45c-.17-.35-.49-.37-.74-.49-.03.16-.24.03-.28.17.17.14.16.39.29.52h.55c.07-.08.12-.13.19-.21Zm15.49,30.87c-.4-.37-.48-.85-.79-1.21.05.27-.12.49-.15.7.18.18.33.33.51.5h.43Zm-14.94-84.03q-.27.26-.32.53c.06.08.13.16.18.22.31-.09.54-.23.7-.47-.02-.09.04-.2-.06-.28h-.5Zm21.96,36.91c.14.08.19.31.45.28v-1.11h-.3c-.13.23-.22.48-.15.82Zm-15.26-11.13c-.13-.18-.24-.32-.34-.46-.13.06-.25.12-.36.17v.7h.28c.15-.15.3-.29.42-.41Zm68.42,51.29c0-.22.06-.44-.15-.55h-.71v.44c.29-.02.52.25.86.11Zm-29.49,2.53c.18.36.45.51.63.73.16-.03.31.05.45-.07-.05-.28-.23-.48-.44-.66h-.65Zm1.32-42.14c.02.19-.04.33.05.46.15.14.33.21.5.28.28-.35.28-.39.04-.75h-.59Zm-33.21-31.11c-.15-.12-.26-.4-.57-.27-.06.12-.11.24-.18.39.21.19.38.43.75.44v-.57Zm-16.29-4.11c-.07.07-.12.13-.2.22.09.1.17.21.2.35,0,.01.03.02.04.02h.49c.18-.11.22-.25.18-.43-.21-.11-.42-.24-.71-.16Zm5.81,66.09c.23.13.14.37.28.55.5-.3.43-.73.4-1.14-.36.07-.41.4-.68.59Zm13.13,6.37c-.44.18-.5.58-.8.8.11.11.17.18.25.24.03.02.08,0,.13,0,.14-.14.28-.29.42-.44v-.61Zm7.7-32.43c.15-.03.26.03.42-.13.05-.13.23-.3.2-.56q-.3-.23-.62-.02v.71Zm45.06,36.08c.28-.04.56.05.91-.08-.21-.22-.37-.39-.54-.56-.17.1-.36.12-.48.25-.04.05-.09.08-.06.19.03.03.08.09.18.2Zm7.11-88.19c-.24-.17-.37-.47-.69-.57-.21.29.18.48.04.74.23,0,.32.14.44.25.04.03.11.02.16.03.1-.14.03-.29.06-.44Zm-27.19,53.06c.08.19.24.3.37.4.24-.11.43-.19.62-.29.02-.01.03-.07.04-.1,0-.02,0-.05,0-.06-.06-.06-.12-.12-.17-.17q-.44,0-.85.22Zm16.71-56.68c-.14-.05-.32.03-.42-.14-.26.38-.25.5,0,.71h.56c.11-.24-.1-.38-.14-.57Zm-25.38,47.39c.13.27.23.57.62.69v-.86c-.14-.06-.28-.03-.42-.02l-.2.19ZM30.04,33.92c.02.19-.03.33.04.46h.84c.04-.2,0-.35-.18-.46h-.7Zm11.2,6.23c.13.06.1.21.18.3.16-.05.22.19.37.14.24-.15.23-.36.19-.57-.15-.23-.36-.18-.56-.16-.08.09-.05.24-.18.3Zm-8.9,6.33c.33-.1.32-.42.44-.65-.04-.09-.09-.19-.15-.3h-.28c-.17.27-.24.54-.14.83.06.06.1.1.12.12Zm71.1,41.79c0-.17.2-.25.09-.37-.09-.13-.19-.26-.29-.4-.15.15-.27.27-.39.39-.04.17.05.27.18.37h.41Zm5.38-57.94c-.17.11-.22.25-.19.43.06.06.12.11.18.17.14,0,.28.04.42-.02q.2-.3-.04-.58h-.37Zm-57.9,23.8c.16.1.21.29.33.29.17-.13.3-.22.42-.31-.03-.16.05-.31-.06-.43-.14,0-.29-.04-.45.05-.07.11-.15.25-.24.4Zm10.74,51.46c-.26.16-.19.38-.16.6.21,0,.41.04.62-.04-.14-.22.18-.35.08-.56h-.55Zm14.7-32.74q.34-.21.7-.86h-.45l-.3.3c0,.12,0,.27,0,.41,0,.04.02.07.05.16Zm-4.37,13.8q.03-.36-.22-.92s-.07-.04-.1-.06c-.15.03-.25.11-.26.28q.17.47.59.69Zm-28.06-56.58c-.25,0-.5,0-.75,0-.02,0-.04.06-.07.1.05.18.22.27.33.38.14,0,.26,0,.25,0,.21-.14.33-.21.44-.29-.06-.06-.11-.11-.2-.19Zm-13.77,17.6c-.26-.18-.42.1-.63.13v.38c.13.06.27.13.44.21.06-.08.12-.16.19-.25v-.47Zm20.93-5.86c-.36.02-.74-.07-1.06.18.05.06.11.11.19.2.33-.09.75.17,1.06-.19-.05-.05-.1-.1-.19-.19Zm-2.73,79.37s-.12-.08-.22.02v.42c.16.05.19.27.39.27.09-.12.3-.07.35-.2-.18-.18-.34-.33-.52-.51Zm-19.58-19.74c.15.2.44.21.6.53v-.79c-.11-.18-.25-.2-.4-.18-.15.09-.24.21-.19.44Zm25.89-9.66c.2-.08.35.01.48-.09.15-.11.2-.25.11-.42-.18,0-.3-.22-.51-.15-.09.06-.21.12-.22.26.03.12.17.18.13.4Zm.38-19.65c.16.23.28.44.57.45.06-.09.18-.12.18-.24-.11-.14-.12-.33-.26-.45-.11-.09-.22-.06-.34-.02-.05.08-.02.21-.15.26Zm24.82,13.77c-.2.15-.33.25-.41.32v.41c.11.07.21.03.31.03.2-.14.21-.43.43-.55-.11-.15-.24-.23-.32-.21Zm.83-5.72c.22.26.54.32.85.45.06-.28.07-.49-.16-.63h-.5l-.18.18Zm43.13-14.82c-.21-.31-.49-.15-.68-.19-.2.15-.25.29-.16.48h.49c.14-.11.25-.2.35-.29ZM29.51,38.68c-.11.08-.24.17-.34.24-.03.27.07.38.28.43.18.04.25-.1.33-.2v-.37c-.1-.08-.25-.05-.27-.11Zm81.94-9.23c.17-.08.22-.23.2-.4-.07-.08-.13-.16-.26-.31-.07.36-.36.13-.49.29v.26c.18.03.3.22.55.16Zm-77.46,6.3l.63-.61s-.08-.07-.13-.12c-.28.12-.55.23-.68.5.06.13.13.22.19.23Zm85.07,8.29c-.21-.27-.04-.64-.36-.87-.13.06-.26.13-.4.2.18.09.11.25.14.38.25-.02.31.32.61.29Zm-28.57,33.53c-.16-.2-.36-.17-.56-.14q-.23.33.08.6c.22-.08.43-.18.47-.46Zm6.33,38.81c.13.21.22.5.55.59.07-.44-.1-.88-.39-.88-.03.05-.08.14-.16.29Zm-26.02-47.36v.6c.1,0,.18,0,.23.01.14-.13.27-.24.44-.39-.11-.06-.2-.11-.29-.15l.06-.06h-.43Zm-24.02,14c.21-.11.35-.17.49-.24-.05-.13.08-.17.11-.26-.13-.09-.2-.26-.35-.3-.14.01-.17.13-.24.17v.62Zm43.33,5.98c.27-.42.21-.53-.28-.6-.04.2-.27.34-.15.6h.44ZM31.75,34.03c.06-.12.21-.09.31-.18-.23-.25-.46-.47-.83-.43-.21.55.35.42.53.61Zm50.45,45.25c-.25.13-.53.21-.6.52.09.09.13.22.21.14.18-.15.36-.3.56-.46-.05-.05-.1-.11-.17-.2Zm-13.46.09c-.26-.15-.21-.4-.44-.48-.19-.02-.35.03-.4.23-.04.22.14.33.19.57.06-.16.08-.23.11-.32h.54Zm-42.89-29.78c-.03.15-.2.11-.34.2.06.13-.07.29.05.41h.42c.06-.14.11-.26.19-.42-.07-.04-.16-.1-.32-.2Zm92.74,57.75v.69c.08.06.14.11.21.14.03.01.07-.01.12-.03v-.82c-.08,0-.14-.01-.2,0-.04,0-.08.01-.13.03ZM31.43,35.21c.06.4.11.48.49.77.06-.37,0-.69-.3-.95-.07.07-.13.13-.19.18Zm33.34,40.08c.19-.03.27.19.45.14.05-.02.11-.03.16-.05v-.19c-.13-.16-.23-.29-.31-.39-.12,0-.2.01-.3.02v.47Zm26.73,2.96c-.18.14-.31.28-.19.48.08.13.22.2.37.15.21-.07.26-.24.22-.44-.12-.06-.24-.12-.4-.2Zm-3.25-7.46c.2.17.31.41.6.28.07-.13.03-.27.03-.41-.12-.16-.27-.25-.47-.14-.02.1-.03.2-.16.27Zm-61.18,16.5c-.09.14-.05.3-.03.45.13.06.26.11.38.17.11-.06.21-.12.24-.3-.17-.12-.26-.39-.58-.31Zm51.64-1.26c.28-.06.42-.26.65-.35.18-.07.11-.17.01-.27-.06-.06-.11-.12-.16-.11-.18.18-.34.34-.51.51,0,.05,0,.13.01.22Zm30.42,28.27c.01-.21-.16-.25-.28-.44v-.9c-.1.1-.16.16-.22.21-.06.37.23.68.13,1.01.13.1.2.25.37.12Zm.91-85.44c-.09.3.05.5.14.7.12-.1.24-.2.34-.28q-.1-.39-.48-.42ZM44.63,122.27q-.01-.47-.31-.46c-.21.09-.2.3-.31.42.07.06.13.12.18.17.17.03.23-.18.44-.13Zm40.98-39.03c.06.39.23.61.44.61.07-.09.21-.13.21-.2-.14-.18-.23-.31-.3-.41h-.34Zm-39.65,21.86c.12-.01.27.04.4-.03.1-.21-.02-.34-.17-.46-.14.01-.28-.04-.41.03-.07.17-.03.31.18.46Zm32.75-63.65c-.02-.19.03-.34-.05-.47-.06-.05-.12-.1-.18-.15-.14.07-.27.14-.41.21.16.13.14.36.32.42h.32Zm-44.39,16.2c-.32.26-.34.33-.16.53.11.13.24.1.39.04v-.4c-.08-.05-.11-.17-.23-.17Zm76.13-21.26q-.07.42.57.55c-.07-.41-.15-.49-.57-.55Zm5.12,72.9c.18.04.24-.09.34-.17,0-.18.05-.38-.04-.57-.12.03-.23-.04-.3.03v.71Zm1.35-69.69c.28.31.36.32.55.14.09-.09.11-.29.03-.38h-.42c-.03.1-.17.11-.16.24Zm-5.28,74.58c.03-.23-.04-.39-.28-.44-.25.25-.31.55-.12.63.12-.06.26-.12.39-.19Zm-13.73-27.35c-.15-.05-.3-.04-.5.01.13.15-.07.18-.08.28.1.16.26.23.42.16.16-.08.27-.24.17-.46ZM30.03,46.57c-.24-.18-.38-.22-.48-.12,0,.06,0,.14-.01.24.14.1.2.33.45.32.1-.15.05-.3.04-.45Zm32.72,13.99c.13.17.27.24.48.13,0-.07,0-.15.01-.25-.14-.1-.2-.33-.45-.32-.1.15-.05.3-.04.45Zm-33.52,48c-.06.06-.12.12-.19.19.19.13.28.42.6.28.05-.14.06-.26-.06-.38-.11-.11-.23-.07-.34-.08Zm32.64,7.35c-.04-.25-.2-.32-.46-.3-.03.1-.2.12-.17.28.07.09.12.21.26.21.12-.06.24-.12.38-.19Zm-1.62-58.27c.02.47.03.48.46.46.03-.14.05-.26-.07-.38-.11-.1-.22-.07-.38-.08Zm-19.76,25.85c-.02.22.12.26.19.35.14-.02.29.04.42-.05v-.31h-.61Zm-2.9,23.99c0,.18-.02.31.13.41.13.09.25.1.37-.01-.01-.12.02-.23-.08-.33-.12-.12-.24-.11-.42-.06Zm12.08-29.93c0,.23-.1.46.2.59.24-.16.18-.37.14-.59h-.34Zm64.4-43.25c-.05.16-.05.31,0,.47.14-.03.2.1.32.12v-.58h-.32Zm-32.03,76.35c.24-.17.23-.38.13-.58-.03-.06-.22-.08-.32.04,0,.19-.06.41.19.55ZM46.08,44.91l-.19.18c.02.18-.05.37.04.56.22-.15.27-.36.34-.54-.08-.08-.14-.14-.2-.2Zm17.84,29.15c-.14.16-.25.28-.35.39.03.03.08.14.25.11.08-.08.18-.19.29-.3-.07-.07-.12-.13-.19-.2Zm4.21,41.57c-.16-.05-.32-.05-.48,0v.31c.16.05.32.05.48,0v-.31Zm28.27-39.2c-.21-.02-.3.09-.34.22-.06.17.05.29.19.39.24-.17.21-.38.15-.61Zm-40.02.99c.29-.37.28-.41-.17-.64,0,.17-.01.32-.02.45l.19.19Zm-25.25-40.95c.11.17.16.28.31.29.13-.06.25-.13.23-.33-.1-.03-.13-.2-.28-.17-.08.07-.16.13-.26.2Zm52.12,80.83c-.11-.09-.15-.23-.31-.21-.09.07-.22.12-.22.27.06.11.12.21.26.23.13-.04.2-.12.26-.29Zm-32.08-24.12c.17.02.32.11.48.02.07-.09.21-.14.11-.32-.26-.06-.43.08-.59.3Zm17.09-9.65c.13.07.24.18.36.19.14,0,.2.24.34.13-.15-.14-.3-.29-.47-.46-.02,0-.19-.11-.23.14Zm-36.35,17.59c.09-.25-.02-.39-.28-.49-.07.12-.07.27-.19.34.12.14.25.26.47.15Zm21.41-38.01c.11-.03.18,0,.23-.08v-.51c-.08-.04-.1-.17-.23-.14v.72Zm40.68,11.35c-.06.06-.16.1-.17.21q.31.21.6-.03c-.11-.14-.23-.23-.43-.18Zm-15.27,45.71c-.06-.25.13-.54-.24-.73v.73h.24Zm43.86-20.68c-.14-.25-.36-.19-.56-.18-.03,0-.05.09-.12.22.23-.05.3.17.49.15.06-.06.11-.11.18-.18Zm-77.58-1.24c.03.29.29.29.48.42.01-.45-.04-.5-.48-.42Zm1.47-47.99c.03-.47.04-.41-.31-.5-.08.25,0,.41.31.5Zm-13.88,46.95c-.01.3.06.49.18.46.15-.13.24-.26.11-.46h-.29Zm16.24,23.11c-.18.13-.25.27-.14.47.11.01.23.07.33-.04.03-.17,0-.32-.19-.43Zm3.74-70q-.22-.33-.55-.23c.1.23.24.34.55.23Zm-10.28,74.07c.17-.13.29-.27.15-.47h-.3c-.11.22,0,.35.15.47Zm57.55-18.21c.13-.09.26-.18.36-.26q-.03-.23-.2-.31c-.04.2-.27.34-.16.57Zm-53.35-47.2c.11-.09.26-.23.08-.46-.16.03-.29.09-.31.33.06.03.14.08.24.13Zm31.87,59.61c-.08.23-.04.38.18.48.03-.1.17-.12.16-.25-.05-.12-.12-.24-.34-.23Zm-37.74-39.5q-.41-.03-.34.33c.19,0,.27-.13.34-.33Zm14.53-4.15c-.13.07-.24-.02-.33.07.06.11.11.22.17.33h.13c.11-.1.06-.22.03-.4Zm36.08,16.98c.08.25.16.41.44.31-.06-.2-.13-.35-.44-.31Zm-44.03,8.89c.11.11.17.17.23.22.11,0,.24.07.33-.05,0-.06.02-.12-.06-.17h-.5Zm-3.38,7.14c.06-.13.1-.25-.04-.35-.16-.02-.2.12-.3.18.1.08.15.25.34.17Zm10.76-1.77c-.06-.24.02-.39-.07-.54h-.16c-.11.2-.04.35.23.54Zm37-28.65c.11.28.18.43.43.41.03-.27-.12-.34-.43-.41ZM28.04,43.5c.11.08.17.26.35.14.09-.18-.09-.23-.17-.34-.05.06-.11.12-.18.2Zm-1.29,24.76c-.01-.15.14-.37-.18-.36-.07.13-.08.24,0,.36h.18Zm4.63,31.9c.1-.24.04-.39-.16-.49-.1.2-.04.35.16.49Zm34.65-21.53c-.01.2-.07.36.03.51.08-.07.14-.13.25-.22-.26.02-.12-.18-.28-.3Zm-33.68,20.31c-.07.11-.06.22,0,.34.11-.07.22-.14.21-.3-.06-.07-.13-.08-.21-.04Zm51.07-15.96q.08.2.3.21c-.07-.12-.14-.22-.3-.21Zm27.11,31.84q.23-.01.3-.21c-.16-.02-.23.09-.3.21Zm-72.22,8.19c-.08.01-.15-.02-.2.06-.03.07-.03.14.05.2.16.01.23-.05.15-.25ZM122.84,53.38c.08.09.17.09.25,0-.02-.05.03-.12-.05-.16-.15-.05-.22.01-.2.17Zm-96.44,6.42c-.08-.09-.17-.09-.25,0,0,.06-.03.12.05.17.16.05.22-.01.2-.17Zm52.25,22.43q-.08-.2-.3-.21c.07.12.14.22.3.21Zm-26.21,28.11c-.12-.08-.2-.11-.24.02.08.06.15.07.24-.02Zm23.69-25.76c.09-.08.09-.17,0-.25-.09.08-.09.17,0,.25Zm-5.66,1.35c-.08.11-.12.19.02.24.07-.07.06-.14-.02-.24Zm45.4,29.31c.08-.11.12-.19-.02-.24-.06.08-.07.15.02.24Zm-68.09,6.97c.09.09.17.09.25,0-.09-.09-.17-.09-.25,0Zm-3.13-20.52c-.12-.08-.2-.11-.24.02.08.06.15.07.24-.02Zm35.39,18.23c-.06.04-.06.08,0,.12.06-.04.06-.08,0-.12ZM38.91,31.81c.06-.04.06-.08,0-.12-.06.04-.06.08,0,.12Zm54.89,71c-.04-.06-.08-.06-.12,0,.04.06.08.06.12,0Zm18.04-70.62c-.06.04-.06.08,0,.12.06-.04.06-.08,0-.12Zm-56.71,56.6c.06-.04.06-.08,0-.12-.06.04-.06.08,0,.12Zm16.91-12.67c.04.06.08.06.12,0-.04-.06-.08-.06-.12,0Zm-36.65,39.11c-.06.04-.06.08,0,.12.06-.04.06-.08,0-.12Z"/>
  <path class="cls-1" d="m33.34,31.93c-.18.08-.38.18-.64.3-.17.17-.06.54-.39.72-.46-.27-.47-.77-.67-1.18.17-.15.33-.29.51-.45.2-.02.42,0,.65.1.2.08.45.02.68.02.14-.07.19-.28.39-.24.05.03.06.06.03.09-.18.19-.4.34-.57.64Z"/>
  <path class="cls-1" d="m48.31,123.38c.29.01.56-.06.87.28.18.32.36.46.97.67-.46.15-.96.28-1.42.15-.48-.14-.97-.04-1.43-.13-.08-.45.4-.25.51-.45.12-.21.43-.21.5-.52Z"/>
  <path class="cls-1" d="m119.07,34.05c.26-.09.45.17.7.12.11.12.03.27.03.31.22.22.38.37.57.55.13,0,.16-.25.37-.25.13.1.26.21.37.39-.13.17-.31.07-.45.1-.15.08-.21.23-.27.38-.6-.23-1.17-.48-1.46-1.16-.02-.07.16-.08.14-.2-.01-.08,0-.16,0-.24Z"/>
  <path class="cls-1" d="m30.6,119.18c.46,0,.8.23,1.14.12.19.18.35.34.52.51.2.01.28-.21.49-.19.24.1.35.34.45.59-.07.12-.16.2-.32.24-.09.02-.15.18-.24.31-.27-.21-.44-.38-.59-.6-.2-.32-.49-.58-.92-.59-.14,0-.33-.14-.53-.37Z"/>
  <path class="cls-1" d="m28.98,112.02h-.26c-.13-.15.03-.41-.26-.51.17-.13.28-.22.44-.35h.56c.33.25.73.46.97.83.01.14-.12.17-.17.26h-.53c-.21-.16-.23-.42-.37-.61h-.25c-.15.08.02.28-.13.37Z"/>
  <path class="cls-1" d="m32.13,116.35c-.06-.06-.1-.1-.19-.19-.02-.2.03-.45-.12-.69-.11-.18.2-.28.12-.48h.92c.24.11.22.32.2.55-.25.32-.69.45-.93.81Z"/>
  <path class="cls-1" d="m33.52,118.21c.09.09.19.19.3.29v.47c-.12.25-.34.22-.57.21-.18-.2-.38-.41-.56-.59-.23-.02-.41-.02-.52-.27.47.06.87-.21,1.35-.11Z"/>
  <path class="cls-1" d="m121,108.43s.1.08.16.13c-.08.48-.16.95-.23,1.42-.09.1-.19.21-.28.3-.08,0-.13,0-.19-.05-.18-.12-.19-.32-.12-.44.2-.38.27-.8.39-1.2.02-.07.11-.18.27-.17Z"/>
  <path class="cls-1" d="m117.95,35.13v-1.08c.26.15.55.2.76.44-.08.28-.36.52-.25.86.29.05.37.29.46.51-.09.07-.2.02-.31.03-.2-.27-.36-.58-.67-.76Z"/>
  <path class="cls-1" d="m81.64,120.91c-.17-.24-.35-.43-.27-.71.51-.15.96.13,1.46.1-.1.35-.52.34-.66.61h-.54Z"/>
  <path class="cls-1" d="m27.14,33.7c.05.22,0,.37-.2.46-.21.07-.33-.14-.51-.15-.04-.24-.26-.35-.4-.52,0-.14-.04-.28.03-.43.05,0,.12-.02.16,0,.31.21.62.43.92.64Z"/>
  <path class="cls-1" d="m124.09,96.16c.23-.26.52-.27.7-.45l.21.2c-.12.22-.23.46-.37.69-.14.23-.46.23-.6.49-.22-.36.19-.63.05-.93Z"/>
  <path class="cls-1" d="m34.07,29.59c-.05.19.11.24.13.38.01.11-.11.14-.17.23h-.52c-.31-.17-.37-.59-.66-.86.39.08.78.16,1.22.26Z"/>
  <path class="cls-1" d="m122.09,34.98c-.1.09-.16.14-.2.17-.16.02-.2-.1-.28-.16-.11-.3.12-.65-.17-.93.07-.14.14-.27.2-.4.17-.04.3.11.3.18,0,.26.22.47.15.75-.03.12,0,.24,0,.38Z"/>
  <path class="cls-1" d="m27.67,31.02v-.34c.16-.15.32-.3.51-.47.04,0,.12,0,.2,0q.05.53-.22.93-.28.02-.48-.13Z"/>
  <path class="cls-1" d="m122.1,111.42v-1.7c.08-.09.17-.04.25-.05.11-.02.12.1.23.13-.17.28-.01.61-.13.85-.12.25.02.58-.35.78Z"/>
  <path class="cls-1" d="m30.71,32.21c-.15.15-.25.25-.36.35-.06-.06-.11-.12-.15-.16-.16-.4.12-.75.09-1.12.12-.1.23-.2.35-.29.07.11.07.28.02.39-.13.29-.11.55.05.83Z"/>
  <path class="cls-1" d="m119.5,32.91c.05-.09.1-.18.16-.31.45.41.77.81.82,1.35-.13.13-.25.09-.39.05v-.51c-.23-.22-.43-.43-.59-.58Z"/>
  <path class="cls-1" d="m28.25,32.67h-.29c-.05-.24-.28-.38-.43-.55,0-.11.01-.19.02-.28h.57c.16.25.24.53.14.84Z"/>
  <path class="cls-1" d="m28.14,109.94c-.45.23-.68.55-1.07.72v-.72h1.07Z"/>
  <path class="cls-1" d="m115.65,30.95c.1.16.18.29.26.43-.04.05-.1.1-.15.16-.2-.1-.4-.2-.6-.3.06-.25.21-.33.49-.29Z"/>
  <path class="cls-1" d="m33.34,114.24c.31-.02.52.12.8.25-.21.18-.46.07-.55.26-.26-.09-.32-.25-.25-.51Z"/>
  <path class="cls-1" d="m30.91,114.86c-.18-.06-.28-.19-.21-.44.11-.05.26-.13.41-.2.12.16.06.32.06.47-.09.05-.12.17-.26.17Z"/>
  <path class="cls-1" d="m34.01,121.03c-.19-.18-.38-.37-.57-.55.13-.12.28-.04.44-.07.1.1.21.22.32.32.03.17-.12.21-.18.3Z"/>
  <path class="cls-1" d="m107.99,119.54h-.57c-.1-.09-.01-.2-.07-.29.15-.12.32-.06.47-.06.08.09.21.15.17.35Z"/>
  <path class="cls-1" d="m26,42.32q-.02.44-.42.49c-.1-.12-.09-.24,0-.37.1-.14.24-.13.43-.12Z"/>
  <path class="cls-1" d="m25.65,41.02c-.28.17-.4,0-.55-.2.08-.08.13-.14.22-.25.11.16.32.21.32.44Z"/>
  <path class="cls-1" d="m33.75,27.74h.26c.08.16.07.33,0,.5q-.32-.16-.27-.5Z"/>
  <path class="cls-1" d="m36.05,29.97h.48c.07.1.05.24.18.3-.15.15-.46.03-.66-.3Z"/>
  <path class="cls-1" d="m31.67,113.3c.24-.12.28.07.39.13.1.2-.29.21-.19.42-.06-.18-.13-.36-.2-.56Z"/>
  <path class="cls-1" d="m68.02,121.9c.23-.02.39.17.76.11-.28.18-.43.13-.58.13-.05-.08-.18-.11-.18-.24Z"/>
  <path class="cls-1" d="m117.37,29.59s.09,0,.13,0c.13.09.02.22.07.29-.06.1-.13.07-.19.08-.1-.12-.1-.25,0-.37Z"/>
  <path class="cls-1" d="m118.19,32.17c0,.13-.1.25-.27.26.08-.08.19-.18.27-.26Z"/>
  <path class="cls-1" d="m117.06,27.63c-.02.26-.14.34-.36.36.13-.13.23-.23.36-.36Z"/>
  <path class="cls-1" d="m119.04,34.04c-.1-.09-.24-.13-.23-.21.02-.17.1-.16.19-.16.14.1.04.25.04.37Z"/>
  <path class="cls-1" d="m117.04,32.86c.19-.1.34-.03.51-.07,0,.1,0,.16.01.2-.07.07-.01.11-.05.05-.1-.19-.3-.06-.47-.18Z"/>
  <path class="cls-1" d="m114.42,31.58h.33c-.03.14-.08.25-.23.24-.12-.02-.1-.11-.1-.24Z"/>
  <path class="cls-1" d="m37.25,123.91c-.11.11-.17.16-.22.22-.06-.06-.11-.11-.17-.17.01-.12.11-.07.17-.08.06,0,.11.01.22.03Z"/>
  <path class="cls-1" d="m27.29,29.89c-.1.09-.17.08-.24.02.05-.14.13-.1.24-.02Z"/>
  <path class="cls-1" d="m29.33,32.58c.11.06.11.13.05.2-.17-.04-.02-.14-.05-.2Z"/>
  <path class="cls-1" d="m56.06,123.83c-.09.08-.21.08-.23-.02-.03-.13.11-.02.17-.05,0,0,.04.04.06.07Z"/>
  <path class="cls-1" d="m27.47,33.05c-.06-.04-.06-.08,0-.12.06.04.06.08,0,.12Z"/>
  <path class="cls-1" d="m86.16,41.85c-.09.09-.15.14-.21.2h-.66c-.15-.2.16-.27.09-.43.19-.09.04-.31.19-.43.32.09.42.38.58.66Z"/>
  <path class="cls-1" d="m69.23,42.03c-.06-.04-.14-.09-.27-.16q.3-.02.27.16Z"/>
  <path class="cls-1" d="m83.76,102.3c.13-.13.27-.27.42-.41.27,0,.53-.03.81.21.06.1.16.29.15.52h.25c-.12-.32.15-.55.12-.86-.03-.3,0-.61,0-.92.09-.05.12-.18.27-.19.22.2.54.3.73.56.03.31-.06.64.12.94.05.08.05.23-.04.34-.22.27-.19.69-.53.89-.11.07-.02.19-.06.3-.09.09-.2.19-.3.28-.28-.41-.57-.82-.83-1.2h-.75c.03.31-.08.61.15.85-.08.17-.26.12-.34.23l-.16-.15v-1.4Z"/>
  <path class="cls-1" d="m87.31,102.75c.31-.03.58.22.91.1.07-.15-.18-.12-.19-.24v-.44c.08-.15.12-.24.17-.32.19.23.35.41.51.59.5.04.88-.19,1.24-.21.12.17.03.32.09.45-.41.3-.81.56-1.35.57-.24,0-.47.15-.72.24-.26,0-.42-.26-.69-.26-.02-.18-.06-.34.03-.48Z"/>
  <path class="cls-1" d="m58.22,105.7c-.62-.18-.77-.74-1.13-1.1-.2-.2-.14-.48-.12-.73.28-.06.4.15.46.28.25.51.76.89.79,1.55Z"/>
  <path class="cls-1" d="m87.98,100.86c-.03.11.19.17.15.34-.05.05-.1.11-.17.18h-.79c-.07-.08-.17-.21-.31-.37-.04-.13.07-.25.21-.36.29.03.61-.09.91.22Z"/>
  <path class="cls-1" d="m54.97,103.75c.21-.37.47-.52.63-.74h.43c.07.09.17.22.28.38v.17c-.39.28-.81.15-1.34.19Z"/>
  <path class="cls-1" d="m88.98,100.87c.09-.1.16-.17.26-.27.27.26.71.16.92.52-.11.17-.13.41-.35.52-.45-.05-.56-.44-.83-.77Z"/>
  <path class="cls-1" d="m78.42,88.23c.05.25.09.44-.07.62q.34.68.3.97c-.16-.38-.45-.6-.69-.85-.07-.37.29-.46.46-.73Z"/>
  <path class="cls-1" d="m83.69,101.64c-.07-.1-.17-.24-.26-.37-.02.02-.04.04-.07.06v-.38c.13-.06.27-.13.41-.2.07.06.13.12.2.18v.53c-.08.05-.11.17-.28.17Z"/>
  <path class="cls-1" d="m58.66,104.36c-.23-.22-.45-.41-.56-.71.12-.2.34-.19.56-.15.35.27.11.56,0,.86Z"/>
  <path class="cls-1" d="m72.35,87.93h.41c.08.14.03.28.04.42-.2.05-.35.26-.6.15-.06-.22-.09-.43.15-.58Z"/>
  <path class="cls-1" d="m74.36,87.55c.19.09.17.31.3.41-.06.08-.11.16-.14.2-.21.01-.25-.12-.35-.22.07-.13.13-.27.2-.4Z"/>
  <path class="cls-1" d="m77.48,104.83c-.09-.26,0-.41.23-.49.2.07.07.22.12.32-.11.05-.23.11-.35.17Z"/>
  <path class="cls-1" d="m51.44,103.84c.09-.11.09-.23.15-.34.15,0,.31-.06.46.04-.15.2-.36.26-.61.3Z"/>
  <path class="cls-1" d="m77.34,89.52c-.2.03-.31-.05-.39-.21.24-.09.3.08.39.21Z"/>
  <path class="cls-1" d="m57.84,103.05c-.1.09-.17.08-.24.02.05-.14.13-.1.24-.02Z"/>
  <path class="cls-1" d="m77.32,89.52c.06-.01.1.02.11.07,0,0-.03.04-.04.04-.06-.01-.09-.05-.07-.11Z"/>
  <path class="cls-1" d="m107.83,66.79c.1.18.28.09.35.11.26.24.35.49.32.79-.23.25-.53.21-.82.2l-.18-.18v-.63c.1-.09.2-.18.33-.3Z"/>
  <path class="cls-1" d="m107.36,62.77c.07-.16.12-.28.18-.41.08-.06.22-.06.28-.02.27.22.48.48.44.9-.12.08-.27.18-.47.3-.29-.09-.25-.48-.43-.78Z"/>
  <path class="cls-1" d="m108.35,66.04h-.4c-.07-.24-.27-.38-.43-.54v-.66c.11-.05.18-.06.24.07.11.22.14.44.1.81.1.07.27.18.49.33Z"/>
  <path class="cls-1" d="m107.75,63.57c0,.19.04.4-.21.49-.06-.15-.04-.3-.01-.47.08,0,.15-.01.23-.02Z"/>
</svg>