<?xml version="1.0" encoding="UTF-8"?>
<svg id="Layer_1" data-name="Layer 1" xmlns="http://www.w3.org/2000/svg" viewBox="0 0 33 33">
  <defs>
    <style>
      .cls-1 {
        fill: #bc0056;
      }
    </style>
  </defs>
  <path class="cls-1" d="m16.02,17.77c-.66-.08-1.26.38-1.34,1.04-.38,3.07-.36,4.95-.36,5.02,0,.66.54,1.18,1.2,1.18,0,0,.01,0,.02,0,.66-.01,1.19-.55,1.18-1.22,0-.02-.02-1.79.34-4.69.08-.66-.38-1.26-1.04-1.34Z"/>
  <path class="cls-1" d="m19.59,17.76c-.66-.08-1.25.39-1.33,1.05-.41,3.38-.41,4.95-.4,5.01,0,.66.54,1.19,1.2,1.19h0c.66,0,1.2-.54,1.19-1.2,0-.01,0-1.51.39-4.72.08-.66-.39-1.25-1.05-1.33Z"/>
  <path class="cls-1" d="m21,9.15c-.65-.13-1.28.29-1.41.94-.36,1.8-.57,3.14-.67,3.95-.08.66.38,1.26,1.04,1.34.05,0,.1,0,.15,0,.59,0,1.11-.44,1.19-1.05.1-.77.29-2.05.64-3.78.13-.65-.29-1.28-.94-1.41Z"/>
  <path class="cls-1" d="m12.37,17.77c-.66-.06-1.24.42-1.31,1.08-.31,3.3-.27,4.82-.27,4.88.02.65.55,1.16,1.2,1.16.01,0,.02,0,.03,0,.66-.02,1.18-.57,1.16-1.23,0-.01-.04-1.47.26-4.59.06-.66-.42-1.24-1.08-1.31Z"/>
  <path class="cls-1" d="m13.58,9.01c-.65-.11-1.27.32-1.39.97-.36,2.02-.52,3.45-.59,4.13-.06.66.42,1.25,1.07,1.31.04,0,.08,0,.12,0,.61,0,1.13-.46,1.19-1.08.06-.64.22-2.01.56-3.94.12-.65-.32-1.27-.97-1.39Z"/>
  <path class="cls-1" d="m26.73,5.08c-.25-.43-.54-.85-.86-1.24C23.02.36,18.05-.93,13.79.7c-3.43,1.31-5.94,3.87-7.45,7.61-1.05,2.6-1.61,5.67-1.77,9.67-.1,2.51-.28,7.18,1.94,10.49,1.9,2.83,5.07,4.52,8.5,4.52.51,0,1.01-.03,1.49-.09,2.92-.35,5.38-1.64,7.32-3.83,1.56-1.76,2.75-4.09,3.55-6.92,1.1-3.94,1.16-7.92,1.09-9.95-.06-1.89-.31-4.69-1.73-7.13Zm-3.86,15.82c-1.26,4.49-3.58,6.97-6.92,7.37-.3.04-.62.05-.94.05-1.86,0-3.58-.91-4.61-2.45-1.37-2.05-1.23-5.73-1.15-7.71.29-7.43,2.27-11.59,6.22-13.1.68-.26,1.4-.39,2.13-.39,1.78,0,3.54.76,4.65,2.12.17.2.32.42.44.64.69,1.18,1.02,2.69,1.1,4.92.06,1.76.01,5.2-.92,8.54Z"/>
</svg>