<?xml version="1.0" encoding="UTF-8"?>
<svg id="Layer_1" data-name="Layer 1" xmlns="http://www.w3.org/2000/svg" viewBox="0 0 150 150">
  <defs>
    <style>
      .cls-1 {
        fill: #bc0056;
      }
    </style>
  </defs>
  <path class="cls-1" d="m113.25,63.53c.33-.5.84.05,1.22-.27.34-.28.7.28,1.18.03.39-.2.98-.04,1.49-.04.35-.52,1-.61,1.53-.99,1.62-.05,3.33-.18,4.67,1.2.27.06.56.09.83-.01,2.36-.95,2.36-1.02,4.23-.93,1.16.05,2.26-.24,3.4-.29,1.07-.05,2.07.42,3.15.3.29-.03.63.27,1.01.46-.09.72.47,1.34.27,2.07.19.34.49.54.64.9.11.27.1.64.5.78-.42.6-.27,1.33-1.09,1.68-.5.21-.43,1.29.08,1.81,1.27,1.29.94,2.78.64,4.29-.04.2-.17.34-.28.37-.48.15-.56.57-.74.94.27.29.48.66.93.72.13.08.03.24.09.33.47.84.03,1.57-.26,2.32-.42,1.09-.97,2.09-1.89,2.84-.16.13-.33.22-.57.25v1.96c-1.11,0-2.18,0-3.25,0-1.16,0-2.35-.13-3.42.5-.56-.09-1.13.15-1.68-.16-.4-.23-.88-.04-1.23-.08-2.52,1.38-4.94.5-7.36-.03-.07.18-.12.33-.17.47-2.14.56-4.33.25-6.5.29-2.33.05-4.67.01-7.03.01-.3.19-.5.69-1.09.44-.14-.12-.1-.48-.52-.7-.65-.06-1.4.37-2.22.28-.86-.09-1.75-.02-2.62-.02s-1.67.03-2.5-.01c-.79-.04-1.61.21-2.38-.19-.16.39-.31.8-.52,1.04-.36.25-.66.07-.89.17-.43-.23-.4-.74-.78-1h-4.25c-.28.12-.4.62-.84.48-.42-.03-.55-.44-.92-.58-.32-.12-.71-.28-.91-.15-.51.34-1.03.21-1.54.21-3.33.01-6.67,0-10,.01-.92,0-1.79-.23-2.67-.48-.29-.08-.49-.22-.73-.35-.36-.2-.69-.58-1.21-.37-.1.31-.01.74-.5.96-.41-.07-.79-.34-1.15-.73h-10.68c-.52-.39-1.2-.49-1.59-1.03h-11c-.83,0-1.67-.07-2.5.02-.8.09-1.48-.47-2.23-.25-.31-.32-.78-.35-.98-.74h-.9v1.32c-.21.23-.52.22-.61.14-.6-.55-1.33-.52-1.94-.48-.56-.29-1.04-.53-1.27-1h-11.31c-.23-.53-.62-.99-.69-1.7-.95-.87-2.2-1.49-3.32-2.3h-1.98c-.35-.28-.61-.57-.26-1.03.22-.29.1-.61.06-1.01-.59.17-1.07-.23-1.65-.27.11-.36.23-.69.68-.78v-2.82c-.23-.17-.53-.4-.78-.58.23-.51.65-.54.94-.74.29-.21.59.18.88.2.37.03.71.07.95.24.31-.31.6-.6,1.01-1.01v-.84c-.22-.18-.51-.41-.71-.58v-.66c.83-.55,1.59-1.25,2.66-1.4.2-.68.58-1.23,1.16-1.67q.8-.18.93-1.04c-.49,0-.97-.02-1.45-.03-.5,0-1-.02-1.5,0-.74.03-1.36-.32-2.01-.59-.07-.03-.06-.21-.12-.42-.58.12-1.11-.18-1.66-.36-.12-.04-.29-.17-.27-.47.24-.17.44-.51.7-.7.38-.28.17-.71.46-1.03.85-.6,1.8-.57,2.78-.23.3.07.44-.25.78-.23,1.16.05,2.33-.01,3.5.03.55.02,1.07.27,1.65.26.64-.02,1.17-.17,1.63-.62.16-.16.33-.31.57-.42.94-.43,1.49-.26,2.02.74h3.35c.18-.37.64-.41.97-.72.2,0,.45-.02.69,0,2.27.18,4.51-.29,6.77-.26.53,0,1.02.07,1.53.23.41.13.61.34.64.75h3.74c.43.32,1.05.36,1.07,1.03,1.82,0,3.61,0,5.4,0,.37,0,.72,0,1.03-.29.14.1.26.2.38.29.26.09.34-.19.41-.21,1.81.41,3.56.04,5.26.26.76.1,1.52.12,2.27.24.43.07.93.14,1.29.46.17-.21.36-.36.86-.06.05.07.28.35.4.51.8.15,1.32-.04,1.73-.46.5-.52,1.23-.38,1.8-.68.61.34,1.46.16,1.89.94,2.32,0,4.65-.04,6.97.02,1.25.03,2.49.29,3.67.98,10.75,0,21.58,0,32.41,0,.48,0,.98-.12,1.38.28Z"/>
  <path class="cls-1" d="m136.23,103.15c.02.43.12.92-.19,1.29-.04.84,1.03,1.05.97,1.96-.25.2-.54.43-.73.58-.14.95.18,1.79-.28,2.55.34.79.93,1.36,1.78,1.92.02.04-.04.24-.06.46-.14.05-.28.1-.48.17.16.6-.36,1.11-.24,1.73-.18.21-.29.53-.64.41-.22.58-.68,1.09-.12,1.68.06.06,0,.31.12.31.63-.02.54.63.86.87.2.96-.25,1.64-.99,2.26.17.9-.27,1.56-.91,2.2-.66.66-1.32,1.37-2.2,1.63-.56.17-.53.65-.85.91.02.16.27.19.22.36.02.29-.26.33-.32.52-.27-.15-.47-.32-.46-.69h-6.35c-.13.52-.8.52-.99.98-.77-.24-1.36-.7-2.08-1.13v1.45c-.26.2-.48.38-.79.62h-.65c-.38-.23-.31-.72-.92-.97-1.28,0-2.81,0-4.34,0-.41,0-.8,0-1.05-.25-.49-.05-.91.19-1.01.4-.19.37-.34.61-.89.59-.39-.23-.65-.83-1.03-.87-.79-.33-1.3.14-1.83.1-.61-.06-1.12.56-1.82.07-.45-.31-1.21.18-1.77-.22-.59.33-1.24.1-1.87.21-.13.32,0,.76-.48.96h-10.16c-.65.47-1.2,1.14-2.13.54-.23-.15-.64-.02-.83-.02-.51-.25-.85-.56-1.36-.5-.32.21.09.78-.64.95h-20.57c-.42.41-.74.84-1.27,1.04-.41,0-.83-.03-1.24,0-.71.06-1.34-.12-1.91-.51-.42-.29-.85-.54-1.43-.66-.59.56-1.25-.12-1.92-.09-.47.33-.51,1.02-1.19,1.29-.4-.39-.84-.81-1.31-1.25-.48-.22-.91.06-1.31.28-.38.21-.45.82-1.01.88-.28-.28-.6-.6-.95-.95h-1.85c-.62,0-1.25.02-1.87,0-.6-.02-1.22.13-1.81-.14-.59.35-1.32.01-1.97.16-.68.15-1.24-.4-2.02-.21-.12.11-.32.29-.5.45-.34.02-.5-.27-.82-.27-1.67.04-3.33.02-5,.01-.2,0-.27.15-.4.25-.06-.05-.11-.15-.18-.16-2.61-.19-5.22-.02-7.8-.1-.29.18-.4.44-.45.64-.22-.22-.47-.47-.72-.72-.9-.09-1.75-.17-2.35-.9-1.34,0-2.71-.04-4.08.01-.98.03-1.89-.15-2.76-.6-.15-.65-.01-1.27.21-1.77,0-.4-.26-.64-.43-.63-.88.06-1.42-.47-1.96-1.03-.14-.15-.29-.3-.43-.43-1.06-.32-2.06.39-3.13.15-.2-.61.19-1.31-.32-1.92.49.03.84-.25,1.3-.37-.06-1.5-1.32-2.39-1.8-3.71-.08-.36.55-.04.53-.46-.02-.4.4-.13.56-.25.24-.19.51-.19.77-.27.19-.06.42-.19.67-.33-.19-.8.39-1.53.24-2.36-.05-.26.19-.54.28-.62.48-.45.75-1.05,1.19-1.53.52-.57,1.17-.79,1.87-.9.64-.29.67-.96.9-1.49.09-.2.1-.51-.26-.58.51-.68,1.39-.83,1.61-1.31.41-.65-.23-.87-.06-1.26,1.08-.5,2.23-.3,3.46-.35.1-.14.25-.34.36-.48.46-.05.5.37,1.04.48.01,0,.32.11.56-.07.39-.28.74-.29,1.11,0,.19.15.4.05.59.07.72.06,1.43-.06,2.16.22.59.22,1.14-.21,1.55-.71h1.3c.1.13.23.29.36.45h.9c.21-.21.44-.44.72-.72.8.08,1.71-.24,2.45.28.65.46,1.39.5,2.09.7.45.13.89.28,1.33.43.45.16.84.44,1.36.36.08-.01.18.15.27.23.09-.08.18-.16.25-.24.2-.05.33.04.43.18.04.01.08.04.09.03.1-.07.18-.16.29-.21.07-.03.16,0,.25,0h31.42c.41-.27.38-.79.81-1.02.58.14,1.03.53,1.45,1.02h5.47c.62,0,1.25-.04,1.87.01.55.05,1.16-.26,1.66.22.54-.45,1.18-.12,1.8-.26.36-.32.65-.78,1.19-.95h10.1c.27-.33.58-.71.91-1.11.7.34,1.02.96,1.56,1.34.86.14,1.41-.41,1.86-.89,1.49-.49,2.93-.35,4.35-.35,1.42,0,2.86-.18,4.2.3l1.08-1.08c1.07.42,2.24.41,3.34.24,1.68-.26,3.35-.18,5.03-.21,1.67-.02,3.35.16,4.99-.05,1.68-.21,3.35-.15,5.03-.2.08,0,.19.03.25,0,.39-.26.76-.29,1.23-.13.71.24,1.49.29,1.97,1.04Zm-111.5,2.14h-1.45c-.01.35-.13.67.06.91h1.39v-.91Z"/>
  <path class="cls-1" d="m18.56,32.27c.27-.25.48-.44.69-.64l-.4-.4c-.67.19-1.31-.15-1.98-.25-.16-.02-.28-.26-.52-.5.69-.28,1.06-.81,1.54-1.24.63.02.57.55.69.98h1.11c.09-.15.24-.4.39-.65.05.04.1.08.15.12v-1.09c-.64-.74-1.21-.2-1.76.04-.29-.29-.59-.59-.99-.98-.04-.21.13-.46.43-.65.65-.42,1.4-.64,2.1-.98.15-.07.23-.22.36-.23,1.01.61,2.07.49,3.15.43,0-.54-.44-.67-.63-.97h-1.72c-.48-.38-1.15-.43-1.48-.98-.91.05-1.74-.38-2.65-.31-.31.03-.74-.24-1-.58-.13-.43.57-.63.14-1.14.67,0,1.16-.03,1.66,0,.48.04.95-.07,1.46.09.4.13.87-.24,1.3-.05.56-.61,1.18-.93,2.02-.77.49.4,1.13.68,1.58,1.3.61-.44,1.25-.76,1.62-1.24,1.16-.5,2.27-.33,3.37-.34,1.79-.02,3.58,0,5.46,0,.4-.64,1.21-.67,1.86-1,.89.3,1.73.7,2.5,1.3.41-.42.92-.35,1.39-.29.61.08,1.4.03,1.96-.22.25-.11.5-.21.76-.32.4.06.75.23,1.04.52,2.95,0,5.91-.03,8.87.01,1.59.02,3.2-.24,4.77.24.82-.2,1.61.55,2.37.19.82-.39,1.63-.03,2.4-.21.89.82,1.93,1.11,2.92,1.03.72-.29,1.18-.79,1.91-.31.29.19.81.03,1.25.03q.85-.72,2.13-.72c.26.28.5.56.68.75,5.42,0,10.66,0,15.91,0,.63,0,1.28-.14,1.91.21.32.18.78.02,1.12-.28.19-.16.19-.48.48-.65.54.3.78,1.01,1.83,1.11.51-.06.6-1.01,1.23-1.4h15.23c.17-.22.18-.54.38-.66.26.26.51.51.7.71.5-.14.77.06,1.11.25.47-.45.9-1.02,1.75-1.06.43.42.95.88,1.77.74.71-.66,1.61-.99,2.65-.98,1.21.02,2.42,0,3.42,0,1.02.29,1.38,1.21,2.25,1.46.2-.21.03-.51.09-.81.2-.22.42-.45.62-.67.54.2,1.01.55,1.49.03.51.07,1.06-.23,1.53.23.08.08.32.01.48.01.24.24.48.48.76.76h8.09v3.38c.18.47.63.74.86,1.23-.63.74-.91,1.62-1.08,2.55.19.51.35,1,.98,1.22.5.18.53.89,1,1.21v1.05c-.45.45-.98.91-1.43,1.45-.43.51-1.18.49-1.61,1.15.74,1,1.38,2.12,2.07,3.3-.02.4-.76.15-.78.7-.01.43-.56.57-.73.94.1.42-.37.72-.25,1.15-.87,1.01-1.8,1.95-3.41,2.36-.48-.13-1.16.45-1.96.32-.56-.09-1.11-.35-1.64-.86-.21-.21-.53-.3-.76-.42-.38.17-.45.5-.61.79-.85.05-1.34-1.1-2.3-.71-.41.32-.4.99-1.16,1.18-.31-.07-.86.2-1.34-.21-.12-.1-.4-.02-.61-.01-.46,0-.91.52-1.39.06-.43.36-.95.15-1.42.18-.54.04-1.08,0-1.62,0h-1.5c-.87,0-1.79.17-2.61-.04-1.27-.33-2.52-.15-3.78-.2-1.14-.04-2.24.34-3.4.26-1.12-.08-2.25,0-3.37-.03-.25,0-.35.17-.51.26-.32.07-.44-.37-.79-.25-.29.1-.53-.12-.77-.24-.07.02-.18.02-.22.07-.27.38-.77,0-1.01.27-.25.29-.6.4-.89.59-.18.12-.54.16-.7.05-.43-.27-1.08-.14-1.3-.74-.34.08-.63-.04-.97.15-.76.42-1.62.51-2.49.65-2.06.34-4.1.15-6.15.2-2.04.04-4.08,0-6.12,0-.28.09-.35.46-.73.51-.25-.15-.54-.46-.85-.48-.95-.07-1.91-.02-2.85-.02-.26.28-.5.55-.67.74h-.68c-.1-.05-.16-.15-.13-.28.08-.35-.19-.5-.38-.71-.07.07-.13.13-.19.19-.81-.41-1.57.22-2.4.09-.85-.13-1.75-.03-2.69-.03-.12.16-.27.35-.38.5h-.6c-.14-.14-.28-.29-.42-.43-.09-.02-.16-.06-.24-.06-2.29,0-4.58-.06-6.87.02-1.16.04-2.25-.33-3.34-.28-.56-.28-1.07-.54-1.56-.78-.27.19-.14.42-.22.7-1.04.59-2.15.46-3.21-.06-.88-.43-1.77-.65-2.75-.61-1.04.04-2.08,0-3.12.01-.15.43-.42.77-.76.97-.85.24-.75-.62-1.06-.82-.34-.26-.79.03-.95-.4-1.19.51-2.44.19-3.65.24-1.29.05-2.58.01-3.87.01h-3.75c-1.25,0-2.5,0-3.75,0-.48,0-.93-.09-1.41-.2-.52-.12-.58-.48-.79-.79h-5.76c-.56-.84-.43-1.78-.28-2.68.04-.22-.19-.49.12-.75.16-.14.03-.63.03-.94-.59-.68-1.35-.68-2.14-.62-.4-.42-.79-.83-1.16-1.23.44-.69,1.23-.38,1.76-.76,1.15.37,2.36.86,3.65.16.3-.29.76-.52.92-1.01-.27-.3-.58-.12-.84-.17-.35-.07-.71.1-1.05-.2-.17-.15-.58-.13-.84-.04-1.53.52-3.1.14-4.65.21-.41.02-.81-.35-1.24-.21-.51-.37-.53-1-.9-1.4.12-.12.24-.24.36-.36.77-.09,1.48.28,2.26.28.79,0,1.48-.5,2.19-.27Zm7.87-2.46c.5.54,1.05.8,1.58.69.66-.36.46-.79.45-1.25-.22,0-.43-.05-.61.01-.31.11-.37-.34-.72-.24-.23.18-.5.4-.71.78Z"/>
</svg>